<?xml version="1.0" standalone="no"?>
<!DOCTYPE svg PUBLIC "-//W3C//DTD SVG 1.1//EN" "http://www.w3.org/Graphics/SVG/1.1/DTD/svg11.dtd">
<svg width="330mm" height="435mm" viewBox="0 -435 330 435" xmlns="http://www.w3.org/2000/svg" version="1.1">
<title>OpenSCAD Model</title>
<path d="
M 321.995,-365 L 322,-365 L 322.836,-365.044 L 323.663,-365.175 L 324.472,-365.392 L 325.254,-365.692
 L 326,-366.072 L 326.702,-366.528 L 327.353,-367.055 L 327.945,-367.647 L 328.472,-368.298 L 328.928,-369
 L 329.308,-369.746 L 329.608,-370.528 L 329.825,-371.337 L 329.956,-372.164 L 330,-373 L 330,-373.005
 L 330,-373.005 L 330,-426.995 L 330,-426.995 L 330,-427 L 329.956,-427.836 L 329.825,-428.663
 L 329.608,-429.472 L 329.308,-430.254 L 328.928,-431 L 328.472,-431.702 L 327.945,-432.353 L 327.353,-432.945
 L 326.702,-433.472 L 326,-433.928 L 325.254,-434.308 L 324.472,-434.608 L 323.663,-434.825 L 322.836,-434.956
 L 322,-435 L 321.995,-435 L 321.995,-435 L 8.00499,-435 L 8.00499,-435 L 8,-435
 L 7.16376,-434.956 L 6.3367,-434.825 L 5.52786,-434.608 L 4.74609,-434.308 L 4,-433.928 L 3.29773,-433.472
 L 2.64696,-432.945 L 2.05486,-432.353 L 1.52788,-431.702 L 1.07181,-431 L 0.69165,-430.254 L 0.391556,-429.472
 L 0.17482,-428.663 L 0.0438385,-427.836 L 0,-427 L 0.000259399,-426.995 L 0,-426.995 L 0,-373.005
 L 0.000259399,-373.005 L 0,-373 L 0.0438385,-372.164 L 0.17482,-371.337 L 0.391556,-370.528 L 0.69165,-369.746
 L 1.07181,-369 L 1.52788,-368.298 L 2.05486,-367.647 L 2.64696,-367.055 L 3.29773,-366.528 L 4,-366.072
 L 4.74609,-365.692 L 5.52786,-365.392 L 6.3367,-365.175 L 7.16376,-365.044 L 8,-365 L 8.00499,-365
 L 8.00499,-365 L 321.995,-365 z
M 319.739,-422.514 L 319.48,-422.555 L 319.227,-422.622 L 318.983,-422.716 L 318.75,-422.835 L 318.531,-422.977
 L 318.327,-423.142 L 318.142,-423.327 L 317.977,-423.531 L 317.835,-423.75 L 317.716,-423.983 L 317.622,-424.227
 L 317.555,-424.48 L 317.514,-424.739 L 317.5,-425 L 317.514,-425.261 L 317.555,-425.52 L 317.622,-425.773
 L 317.716,-426.017 L 317.835,-426.25 L 317.977,-426.469 L 318.142,-426.673 L 318.327,-426.858 L 318.531,-427.023
 L 318.75,-427.165 L 318.983,-427.284 L 319.227,-427.378 L 319.48,-427.445 L 319.739,-427.486 L 320,-427.5
 L 320.261,-427.486 L 320.52,-427.445 L 320.773,-427.378 L 321.017,-427.284 L 321.25,-427.165 L 321.469,-427.023
 L 321.673,-426.858 L 321.858,-426.673 L 322.023,-426.469 L 322.165,-426.25 L 322.284,-426.017 L 322.378,-425.773
 L 322.445,-425.52 L 322.486,-425.261 L 322.5,-425 L 322.486,-424.739 L 322.445,-424.48 L 322.378,-424.227
 L 322.284,-423.983 L 322.165,-423.75 L 322.023,-423.531 L 321.858,-423.327 L 321.673,-423.142 L 321.469,-422.977
 L 321.25,-422.835 L 321.017,-422.716 L 320.773,-422.622 L 320.52,-422.555 L 320.261,-422.514 L 320,-422.5
 z
M 9.73868,-422.514 L 9.48021,-422.555 L 9.22745,-422.622 L 8.98315,-422.716 L 8.75,-422.835 L 8.53053,-422.977
 L 8.32716,-423.142 L 8.14214,-423.327 L 7.97745,-423.531 L 7.83493,-423.75 L 7.71613,-423.983 L 7.62234,-424.227
 L 7.55463,-424.48 L 7.51369,-424.739 L 7.5,-425 L 7.51369,-425.261 L 7.55463,-425.52 L 7.62234,-425.773
 L 7.71613,-426.017 L 7.83493,-426.25 L 7.97745,-426.469 L 8.14214,-426.673 L 8.32716,-426.858 L 8.53053,-427.023
 L 8.75,-427.165 L 8.98315,-427.284 L 9.22745,-427.378 L 9.48021,-427.445 L 9.73868,-427.486 L 10,-427.5
 L 10.2613,-427.486 L 10.5198,-427.445 L 10.7725,-427.378 L 11.0168,-427.284 L 11.25,-427.165 L 11.4695,-427.023
 L 11.6728,-426.858 L 11.8578,-426.673 L 12.0225,-426.469 L 12.1651,-426.25 L 12.2839,-426.017 L 12.3776,-425.773
 L 12.4454,-425.52 L 12.4863,-425.261 L 12.5,-425 L 12.4863,-424.739 L 12.4454,-424.48 L 12.3776,-424.227
 L 12.2839,-423.983 L 12.1651,-423.75 L 12.0225,-423.531 L 11.8578,-423.327 L 11.6728,-423.142 L 11.4695,-422.977
 L 11.25,-422.835 L 11.0168,-422.716 L 10.7725,-422.622 L 10.5198,-422.555 L 10.2613,-422.514 L 10,-422.5
 z
M 41.5,-372.99 L 41.2236,-377 L 40,-377 L 40,-392.5 L 26,-392.5 L 26,-407.5
 L 40,-407.5 L 40,-423 L 41.2241,-423 L 41.5,-427 L 44.5,-427 L 44.7759,-423
 L 50.9841,-423 L 51.26,-427 L 54.26,-427 L 54.5359,-423 L 60.7441,-423 L 61.02,-427
 L 64.02,-427 L 64.2959,-423 L 70.5041,-423 L 70.78,-427 L 73.78,-427 L 74.0559,-423
 L 80.2641,-423 L 80.54,-427 L 83.54,-427 L 83.8159,-423 L 90.0241,-423 L 90.3,-427
 L 93.3,-427 L 93.5759,-423 L 99.7841,-423 L 100.06,-427 L 103.06,-427 L 103.336,-423
 L 109.544,-423 L 109.82,-427 L 112.82,-427 L 113.096,-423 L 119.304,-423 L 119.58,-427
 L 122.58,-427 L 122.856,-423 L 129.064,-423 L 129.34,-427 L 132.34,-427 L 132.616,-423
 L 138.824,-423 L 139.1,-427 L 142.1,-427 L 143.445,-407.5 L 147.515,-407.5 L 148.86,-427
 L 151.86,-427 L 153.36,-405.25 L 153,-405.25 L 153,-394.75 L 153.36,-394.75 L 151.86,-372.99
 L 148.86,-372.99 L 147.515,-392.5 L 143.445,-392.5 L 142.1,-372.99 L 139.1,-372.99 L 138.824,-377
 L 132.616,-377 L 132.34,-372.99 L 129.34,-372.99 L 129.064,-377 L 122.856,-377 L 122.58,-372.99
 L 119.58,-372.99 L 119.304,-377 L 113.096,-377 L 112.82,-372.99 L 109.82,-372.99 L 109.544,-377
 L 103.336,-377 L 103.06,-372.99 L 100.06,-372.99 L 99.7836,-377 L 93.5764,-377 L 93.3,-372.99
 L 90.3,-372.99 L 90.0236,-377 L 83.8164,-377 L 83.54,-372.99 L 80.54,-372.99 L 80.2636,-377
 L 74.0564,-377 L 73.78,-372.99 L 70.78,-372.99 L 70.5036,-377 L 64.2964,-377 L 64.02,-372.99
 L 61.02,-372.99 L 60.7436,-377 L 54.5364,-377 L 54.26,-372.99 L 51.26,-372.99 L 50.9836,-377
 L 44.7764,-377 L 44.5,-372.99 z
M 225.44,-405.25 L 226.94,-427 L 229.94,-427 L 231.44,-405.25 z
M 254.72,-405.25 L 256.22,-427 L 259.22,-427 L 260.72,-405.25 z
M 264.48,-405.25 L 265.98,-427 L 268.98,-427 L 270.48,-405.25 z
M 274.24,-405.25 L 275.74,-427 L 278.74,-427 L 280.24,-405.25 z
M 176.64,-405.25 L 178.14,-427 L 181.14,-427 L 182.64,-405.25 z
M 157.12,-405.25 L 158.62,-427 L 161.62,-427 L 163.12,-405.25 z
M 244.96,-405.25 L 246.46,-427 L 249.46,-427 L 250.96,-405.25 z
M 215.68,-405.25 L 217.18,-427 L 220.18,-427 L 221.68,-405.25 z
M 205.92,-405.25 L 207.42,-427 L 210.42,-427 L 211.92,-405.25 z
M 196.16,-405.25 L 197.66,-427 L 200.66,-427 L 202.16,-405.25 z
M 186.4,-405.25 L 187.9,-427 L 190.9,-427 L 192.4,-405.25 z
M 284,-405.25 L 285.5,-427 L 288.5,-427 L 290,-405.25 z
M 166.88,-405.25 L 168.38,-427 L 171.38,-427 L 172.88,-405.25 z
M 235.2,-405.25 L 236.7,-427 L 239.7,-427 L 241.2,-405.25 z
M 187.9,-372.99 L 186.4,-394.75 L 192.4,-394.75 L 190.9,-372.99 z
M 168.38,-372.99 L 166.88,-394.75 L 172.88,-394.75 L 171.38,-372.99 z
M 158.62,-372.99 L 157.12,-394.75 L 163.12,-394.75 L 161.62,-372.99 z
M 285.5,-372.99 L 284,-394.75 L 290,-394.75 L 288.5,-372.99 z
M 275.74,-372.99 L 274.24,-394.75 L 280.24,-394.75 L 278.74,-372.99 z
M 265.98,-372.99 L 264.48,-394.75 L 270.48,-394.75 L 268.98,-372.99 z
M 256.22,-372.99 L 254.72,-394.75 L 260.72,-394.75 L 259.22,-372.99 z
M 246.46,-372.99 L 244.96,-394.75 L 250.96,-394.75 L 249.46,-372.99 z
M 236.7,-372.99 L 235.2,-394.75 L 241.2,-394.75 L 239.7,-372.99 z
M 226.94,-372.99 L 225.44,-394.75 L 231.44,-394.75 L 229.94,-372.99 z
M 217.18,-372.99 L 215.68,-394.75 L 221.68,-394.75 L 220.18,-372.99 z
M 197.66,-372.99 L 196.16,-394.75 L 202.16,-394.75 L 200.66,-372.99 z
M 178.14,-372.99 L 176.64,-394.75 L 182.64,-394.75 L 181.14,-372.99 z
M 207.42,-372.99 L 205.92,-394.75 L 211.92,-394.75 L 210.42,-372.99 z
M 9.73868,-372.514 L 9.48021,-372.555 L 9.22745,-372.622 L 8.98315,-372.716 L 8.75,-372.835 L 8.53053,-372.977
 L 8.32716,-373.142 L 8.14214,-373.327 L 7.97745,-373.531 L 7.83493,-373.75 L 7.71613,-373.983 L 7.62234,-374.227
 L 7.55463,-374.48 L 7.51369,-374.739 L 7.5,-375 L 7.51369,-375.261 L 7.55463,-375.52 L 7.62234,-375.773
 L 7.71613,-376.017 L 7.83493,-376.25 L 7.97745,-376.469 L 8.14214,-376.673 L 8.32716,-376.858 L 8.53053,-377.023
 L 8.75,-377.165 L 8.98315,-377.284 L 9.22745,-377.378 L 9.48021,-377.445 L 9.73868,-377.486 L 10,-377.5
 L 10.2613,-377.486 L 10.5198,-377.445 L 10.7725,-377.378 L 11.0168,-377.284 L 11.25,-377.165 L 11.4695,-377.023
 L 11.6728,-376.858 L 11.8578,-376.673 L 12.0225,-376.469 L 12.1651,-376.25 L 12.2839,-376.017 L 12.3776,-375.773
 L 12.4454,-375.52 L 12.4863,-375.261 L 12.5,-375 L 12.4863,-374.739 L 12.4454,-374.48 L 12.3776,-374.227
 L 12.2839,-373.983 L 12.1651,-373.75 L 12.0225,-373.531 L 11.8578,-373.327 L 11.6728,-373.142 L 11.4695,-372.977
 L 11.25,-372.835 L 11.0168,-372.716 L 10.7725,-372.622 L 10.5198,-372.555 L 10.2613,-372.514 L 10,-372.5
 z
M 319.739,-372.514 L 319.48,-372.555 L 319.227,-372.622 L 318.983,-372.716 L 318.75,-372.835 L 318.531,-372.977
 L 318.327,-373.142 L 318.142,-373.327 L 317.977,-373.531 L 317.835,-373.75 L 317.716,-373.983 L 317.622,-374.227
 L 317.555,-374.48 L 317.514,-374.739 L 317.5,-375 L 317.514,-375.261 L 317.555,-375.52 L 317.622,-375.773
 L 317.716,-376.017 L 317.835,-376.25 L 317.977,-376.469 L 318.142,-376.673 L 318.327,-376.858 L 318.531,-377.023
 L 318.75,-377.165 L 318.983,-377.284 L 319.227,-377.378 L 319.48,-377.445 L 319.739,-377.486 L 320,-377.5
 L 320.261,-377.486 L 320.52,-377.445 L 320.773,-377.378 L 321.017,-377.284 L 321.25,-377.165 L 321.469,-377.023
 L 321.673,-376.858 L 321.858,-376.673 L 322.023,-376.469 L 322.165,-376.25 L 322.284,-376.017 L 322.378,-375.773
 L 322.445,-375.52 L 322.486,-375.261 L 322.5,-375 L 322.486,-374.739 L 322.445,-374.48 L 322.378,-374.227
 L 322.284,-373.983 L 322.165,-373.75 L 322.023,-373.531 L 321.858,-373.327 L 321.673,-373.142 L 321.469,-372.977
 L 321.25,-372.835 L 321.017,-372.716 L 320.773,-372.622 L 320.52,-372.555 L 320.261,-372.514 L 320,-372.5
 z
M 321.995,-292 L 322,-292 L 322.836,-292.044 L 323.663,-292.175 L 324.472,-292.392 L 325.254,-292.692
 L 326,-293.072 L 326.702,-293.528 L 327.353,-294.055 L 327.945,-294.647 L 328.472,-295.298 L 328.928,-296
 L 329.308,-296.746 L 329.608,-297.528 L 329.825,-298.337 L 329.956,-299.164 L 330,-300 L 330,-300.005
 L 330,-300.005 L 330,-353.995 L 330,-353.995 L 330,-354 L 329.956,-354.836 L 329.825,-355.663
 L 329.608,-356.472 L 329.308,-357.254 L 328.928,-358 L 328.472,-358.702 L 327.945,-359.353 L 327.353,-359.945
 L 326.702,-360.472 L 326,-360.928 L 325.254,-361.308 L 324.472,-361.608 L 323.663,-361.825 L 322.836,-361.956
 L 322,-362 L 321.995,-362 L 321.995,-362 L 8.00499,-362 L 8.00499,-362 L 8,-362
 L 7.16376,-361.956 L 6.3367,-361.825 L 5.52786,-361.608 L 4.74609,-361.308 L 4,-360.928 L 3.29773,-360.472
 L 2.64696,-359.945 L 2.05486,-359.353 L 1.52788,-358.702 L 1.07181,-358 L 0.69165,-357.254 L 0.391556,-356.472
 L 0.17482,-355.663 L 0.0438385,-354.836 L 0,-354 L 0.000259399,-353.995 L 0,-353.995 L 0,-300.005
 L 0.000259399,-300.005 L 0,-300 L 0.0438385,-299.164 L 0.17482,-298.337 L 0.391556,-297.528 L 0.69165,-296.746
 L 1.07181,-296 L 1.52788,-295.298 L 2.05486,-294.647 L 2.64696,-294.055 L 3.29773,-293.528 L 4,-293.072
 L 4.74609,-292.692 L 5.52786,-292.392 L 6.3367,-292.175 L 7.16376,-292.044 L 8,-292 L 8.00499,-292
 L 8.00499,-292 L 321.995,-292 z
M 319.739,-349.514 L 319.48,-349.555 L 319.227,-349.622 L 318.983,-349.716 L 318.75,-349.835 L 318.531,-349.977
 L 318.327,-350.142 L 318.142,-350.327 L 317.977,-350.531 L 317.835,-350.75 L 317.716,-350.983 L 317.622,-351.227
 L 317.555,-351.48 L 317.514,-351.739 L 317.5,-352 L 317.514,-352.261 L 317.555,-352.52 L 317.622,-352.773
 L 317.716,-353.017 L 317.835,-353.25 L 317.977,-353.469 L 318.142,-353.673 L 318.327,-353.858 L 318.531,-354.023
 L 318.75,-354.165 L 318.983,-354.284 L 319.227,-354.378 L 319.48,-354.445 L 319.739,-354.486 L 320,-354.5
 L 320.261,-354.486 L 320.52,-354.445 L 320.773,-354.378 L 321.017,-354.284 L 321.25,-354.165 L 321.469,-354.023
 L 321.673,-353.858 L 321.858,-353.673 L 322.023,-353.469 L 322.165,-353.25 L 322.284,-353.017 L 322.378,-352.773
 L 322.445,-352.52 L 322.486,-352.261 L 322.5,-352 L 322.486,-351.739 L 322.445,-351.48 L 322.378,-351.227
 L 322.284,-350.983 L 322.165,-350.75 L 322.023,-350.531 L 321.858,-350.327 L 321.673,-350.142 L 321.469,-349.977
 L 321.25,-349.835 L 321.017,-349.716 L 320.773,-349.622 L 320.52,-349.555 L 320.261,-349.514 L 320,-349.5
 z
M 9.73868,-349.514 L 9.48021,-349.555 L 9.22745,-349.622 L 8.98315,-349.716 L 8.75,-349.835 L 8.53053,-349.977
 L 8.32716,-350.142 L 8.14214,-350.327 L 7.97745,-350.531 L 7.83493,-350.75 L 7.71613,-350.983 L 7.62234,-351.227
 L 7.55463,-351.48 L 7.51369,-351.739 L 7.5,-352 L 7.51369,-352.261 L 7.55463,-352.52 L 7.62234,-352.773
 L 7.71613,-353.017 L 7.83493,-353.25 L 7.97745,-353.469 L 8.14214,-353.673 L 8.32716,-353.858 L 8.53053,-354.023
 L 8.75,-354.165 L 8.98315,-354.284 L 9.22745,-354.378 L 9.48021,-354.445 L 9.73868,-354.486 L 10,-354.5
 L 10.2613,-354.486 L 10.5198,-354.445 L 10.7725,-354.378 L 11.0168,-354.284 L 11.25,-354.165 L 11.4695,-354.023
 L 11.6728,-353.858 L 11.8578,-353.673 L 12.0225,-353.469 L 12.1651,-353.25 L 12.2839,-353.017 L 12.3776,-352.773
 L 12.4454,-352.52 L 12.4863,-352.261 L 12.5,-352 L 12.4863,-351.739 L 12.4454,-351.48 L 12.3776,-351.227
 L 12.2839,-350.983 L 12.1651,-350.75 L 12.0225,-350.531 L 11.8578,-350.327 L 11.6728,-350.142 L 11.4695,-349.977
 L 11.25,-349.835 L 11.0168,-349.716 L 10.7725,-349.622 L 10.5198,-349.555 L 10.2613,-349.514 L 10,-349.5
 z
M 284,-332.25 L 285.5,-354 L 288.5,-354 L 290,-332.25 z
M 41.5,-299.99 L 41.2236,-304 L 40,-304 L 40,-319.5 L 33,-319.5 L 33,-308.6
 L 7,-308.6 L 7,-339.6 L 33,-339.6 L 33,-334.5 L 40,-334.5 L 40,-350
 L 41.2241,-350 L 41.5,-354 L 44.5,-354 L 44.7759,-350 L 50.9841,-350 L 51.26,-354
 L 54.26,-354 L 54.5359,-350 L 60.7441,-350 L 61.02,-354 L 64.02,-354 L 64.2959,-350
 L 70.5041,-350 L 70.78,-354 L 73.78,-354 L 74.0559,-350 L 80.2641,-350 L 80.54,-354
 L 83.54,-354 L 83.8159,-350 L 90.0241,-350 L 90.3,-354 L 93.3,-354 L 93.5759,-350
 L 99.7841,-350 L 100.06,-354 L 103.06,-354 L 103.336,-350 L 109.544,-350 L 109.82,-354
 L 112.82,-354 L 113.096,-350 L 119.304,-350 L 119.58,-354 L 122.58,-354 L 122.856,-350
 L 129.064,-350 L 129.34,-354 L 132.34,-354 L 132.616,-350 L 138.824,-350 L 139.1,-354
 L 142.1,-354 L 143.445,-334.5 L 147.515,-334.5 L 148.86,-354 L 151.86,-354 L 153.36,-332.25
 L 153,-332.25 L 153,-321.75 L 153.36,-321.75 L 151.86,-299.99 L 148.86,-299.99 L 147.515,-319.5
 L 143.445,-319.5 L 142.1,-299.99 L 139.1,-299.99 L 138.824,-304 L 132.616,-304 L 132.34,-299.99
 L 129.34,-299.99 L 129.064,-304 L 122.856,-304 L 122.58,-299.99 L 119.58,-299.99 L 119.304,-304
 L 113.096,-304 L 112.82,-299.99 L 109.82,-299.99 L 109.544,-304 L 103.336,-304 L 103.06,-299.99
 L 100.06,-299.99 L 99.7836,-304 L 93.5764,-304 L 93.3,-299.99 L 90.3,-299.99 L 90.0236,-304
 L 83.8164,-304 L 83.54,-299.99 L 80.54,-299.99 L 80.2636,-304 L 74.0564,-304 L 73.78,-299.99
 L 70.78,-299.99 L 70.5036,-304 L 64.2964,-304 L 64.02,-299.99 L 61.02,-299.99 L 60.7436,-304
 L 54.5364,-304 L 54.26,-299.99 L 51.26,-299.99 L 50.9836,-304 L 44.7764,-304 L 44.5,-299.99
 z
M 166.88,-332.25 L 168.38,-354 L 171.38,-354 L 172.88,-332.25 z
M 196.16,-332.25 L 197.66,-354 L 200.66,-354 L 202.16,-332.25 z
M 186.4,-332.25 L 187.9,-354 L 190.9,-354 L 192.4,-332.25 z
M 244.96,-332.25 L 246.46,-354 L 249.46,-354 L 250.96,-332.25 z
M 157.12,-332.25 L 158.62,-354 L 161.62,-354 L 163.12,-332.25 z
M 176.64,-332.25 L 178.14,-354 L 181.14,-354 L 182.64,-332.25 z
M 274.24,-332.25 L 275.74,-354 L 278.74,-354 L 280.24,-332.25 z
M 264.48,-332.25 L 265.98,-354 L 268.98,-354 L 270.48,-332.25 z
M 254.72,-332.25 L 256.22,-354 L 259.22,-354 L 260.72,-332.25 z
M 235.2,-332.25 L 236.7,-354 L 239.7,-354 L 241.2,-332.25 z
M 225.44,-332.25 L 226.94,-354 L 229.94,-354 L 231.44,-332.25 z
M 215.68,-332.25 L 217.18,-354 L 220.18,-354 L 221.68,-332.25 z
M 205.92,-332.25 L 207.42,-354 L 210.42,-354 L 211.92,-332.25 z
M 197.66,-299.99 L 196.16,-321.75 L 202.16,-321.75 L 200.66,-299.99 z
M 168.38,-299.99 L 166.88,-321.75 L 172.88,-321.75 L 171.38,-299.99 z
M 158.62,-299.99 L 157.12,-321.75 L 163.12,-321.75 L 161.62,-299.99 z
M 178.14,-299.99 L 176.64,-321.75 L 182.64,-321.75 L 181.14,-299.99 z
M 187.9,-299.99 L 186.4,-321.75 L 192.4,-321.75 L 190.9,-299.99 z
M 207.42,-299.99 L 205.92,-321.75 L 211.92,-321.75 L 210.42,-299.99 z
M 217.18,-299.99 L 215.68,-321.75 L 221.68,-321.75 L 220.18,-299.99 z
M 226.94,-299.99 L 225.44,-321.75 L 231.44,-321.75 L 229.94,-299.99 z
M 246.46,-299.99 L 244.96,-321.75 L 250.96,-321.75 L 249.46,-299.99 z
M 256.22,-299.99 L 254.72,-321.75 L 260.72,-321.75 L 259.22,-299.99 z
M 265.98,-299.99 L 264.48,-321.75 L 270.48,-321.75 L 268.98,-299.99 z
M 275.74,-299.99 L 274.24,-321.75 L 280.24,-321.75 L 278.74,-299.99 z
M 285.5,-299.99 L 284,-321.75 L 290,-321.75 L 288.5,-299.99 z
M 236.7,-299.99 L 235.2,-321.75 L 241.2,-321.75 L 239.7,-299.99 z
M 9.73868,-299.514 L 9.48021,-299.555 L 9.22745,-299.622 L 8.98315,-299.716 L 8.75,-299.835 L 8.53053,-299.977
 L 8.32716,-300.142 L 8.14214,-300.327 L 7.97745,-300.531 L 7.83493,-300.75 L 7.71613,-300.983 L 7.62234,-301.227
 L 7.55463,-301.48 L 7.51369,-301.739 L 7.5,-302 L 7.51369,-302.261 L 7.55463,-302.52 L 7.62234,-302.773
 L 7.71613,-303.017 L 7.83493,-303.25 L 7.97745,-303.469 L 8.14214,-303.673 L 8.32716,-303.858 L 8.53053,-304.023
 L 8.75,-304.165 L 8.98315,-304.284 L 9.22745,-304.378 L 9.48021,-304.445 L 9.73868,-304.486 L 10,-304.5
 L 10.2613,-304.486 L 10.5198,-304.445 L 10.7725,-304.378 L 11.0168,-304.284 L 11.25,-304.165 L 11.4695,-304.023
 L 11.6728,-303.858 L 11.8578,-303.673 L 12.0225,-303.469 L 12.1651,-303.25 L 12.2839,-303.017 L 12.3776,-302.773
 L 12.4454,-302.52 L 12.4863,-302.261 L 12.5,-302 L 12.4863,-301.739 L 12.4454,-301.48 L 12.3776,-301.227
 L 12.2839,-300.983 L 12.1651,-300.75 L 12.0225,-300.531 L 11.8578,-300.327 L 11.6728,-300.142 L 11.4695,-299.977
 L 11.25,-299.835 L 11.0168,-299.716 L 10.7725,-299.622 L 10.5198,-299.555 L 10.2613,-299.514 L 10,-299.5
 z
M 319.739,-299.514 L 319.48,-299.555 L 319.227,-299.622 L 318.983,-299.716 L 318.75,-299.835 L 318.531,-299.977
 L 318.327,-300.142 L 318.142,-300.327 L 317.977,-300.531 L 317.835,-300.75 L 317.716,-300.983 L 317.622,-301.227
 L 317.555,-301.48 L 317.514,-301.739 L 317.5,-302 L 317.514,-302.261 L 317.555,-302.52 L 317.622,-302.773
 L 317.716,-303.017 L 317.835,-303.25 L 317.977,-303.469 L 318.142,-303.673 L 318.327,-303.858 L 318.531,-304.023
 L 318.75,-304.165 L 318.983,-304.284 L 319.227,-304.378 L 319.48,-304.445 L 319.739,-304.486 L 320,-304.5
 L 320.261,-304.486 L 320.52,-304.445 L 320.773,-304.378 L 321.017,-304.284 L 321.25,-304.165 L 321.469,-304.023
 L 321.673,-303.858 L 321.858,-303.673 L 322.023,-303.469 L 322.165,-303.25 L 322.284,-303.017 L 322.378,-302.773
 L 322.445,-302.52 L 322.486,-302.261 L 322.5,-302 L 322.486,-301.739 L 322.445,-301.48 L 322.378,-301.227
 L 322.284,-300.983 L 322.165,-300.75 L 322.023,-300.531 L 321.858,-300.327 L 321.673,-300.142 L 321.469,-299.977
 L 321.25,-299.835 L 321.017,-299.716 L 320.773,-299.622 L 320.52,-299.555 L 320.261,-299.514 L 320,-299.5
 z
M 40.8345,-232.193 L 40.8411,-232.185 L 41.2852,-231.741 L 41.7733,-231.346 L 42.3,-231.004 L 42.8596,-230.719
 L 43.4459,-230.494 L 44.0525,-230.331 L 44.6728,-230.233 L 45.0656,-230.212 L 44.5005,-219 L 51.2595,-219
 L 50.5395,-233.285 L 50.7813,-233.76 L 51.0063,-234.346 L 51.1689,-234.953 L 51.2671,-235.573 L 51.3,-236.2
 L 51.2671,-236.827 L 51.1689,-237.447 L 51.0063,-238.054 L 50.7813,-238.64 L 50.4961,-239.2 L 50.2199,-239.625
 L 49.76,-248.75 L 55.76,-248.75 L 54.2605,-219 L 61.0195,-219 L 59.52,-248.75 L 65.52,-248.75
 L 64.0205,-219 L 70.7795,-219 L 69.28,-248.75 L 75.28,-248.75 L 73.7805,-219 L 80.5395,-219
 L 79.04,-248.75 L 85.04,-248.75 L 83.5405,-219 L 90.2995,-219 L 88.8,-248.75 L 94.8,-248.75
 L 93.3005,-219 L 100.059,-219 L 98.56,-248.75 L 104.56,-248.75 L 103.061,-219 L 109.819,-219
 L 108.32,-248.75 L 114.32,-248.75 L 112.82,-219 L 119.579,-219 L 118.08,-248.75 L 124.08,-248.75
 L 122.58,-219 L 129.339,-219 L 127.84,-248.75 L 133.84,-248.75 L 132.34,-219 L 139.099,-219
 L 137.6,-248.75 L 143.6,-248.75 L 142.1,-219 L 148.859,-219 L 147.36,-248.75 L 153.36,-248.75
 L 151.86,-219 L 158.619,-219 L 157.12,-248.75 L 163.12,-248.75 L 161.62,-219 L 168.379,-219
 L 166.88,-248.75 L 172.88,-248.75 L 171.38,-219 L 178.139,-219 L 176.64,-248.75 L 182.64,-248.75
 L 181.141,-219 L 187.899,-219 L 186.4,-248.75 L 192.4,-248.75 L 190.9,-219 L 197.659,-219
 L 196.16,-248.75 L 202.16,-248.75 L 200.66,-219 L 207.419,-219 L 205.92,-248.75 L 211.92,-248.75
 L 210.421,-219 L 217.179,-219 L 215.68,-248.75 L 221.68,-248.75 L 220.18,-219 L 226.939,-219
 L 225.44,-248.75 L 231.44,-248.75 L 229.94,-219 L 236.699,-219 L 235.2,-248.75 L 241.2,-248.75
 L 239.701,-219 L 246.459,-219 L 244.96,-248.75 L 250.96,-248.75 L 249.46,-219 L 256.219,-219
 L 254.72,-248.75 L 260.72,-248.75 L 259.22,-219 L 265.979,-219 L 264.48,-248.75 L 270.48,-248.75
 L 268.98,-219 L 275.739,-219 L 274.24,-248.75 L 280.24,-248.75 L 278.74,-219 L 285.499,-219
 L 284,-248.75 L 290,-248.75 L 288.501,-219 L 321.995,-219 L 321.995,-219 L 322,-219
 L 322.836,-219.044 L 323.663,-219.175 L 324.472,-219.392 L 325.254,-219.692 L 326,-220.072 L 326.702,-220.528
 L 327.353,-221.055 L 327.945,-221.647 L 328.472,-222.298 L 328.928,-223 L 329.308,-223.746 L 329.608,-224.528
 L 329.825,-225.337 L 329.956,-226.164 L 330,-227 L 330,-227.005 L 330,-227.005 L 330,-280.995
 L 330,-280.995 L 330,-281 L 329.956,-281.836 L 329.825,-282.663 L 329.608,-283.472 L 329.308,-284.254
 L 328.928,-285 L 328.472,-285.702 L 327.945,-286.353 L 327.353,-286.945 L 326.702,-287.472 L 326,-287.928
 L 325.254,-288.308 L 324.472,-288.608 L 323.663,-288.825 L 322.836,-288.956 L 322,-289 L 321.995,-289
 L 321.995,-289 L 288.5,-289 L 290,-259.25 L 284,-259.25 L 285.5,-289 L 278.74,-289
 L 280.24,-259.25 L 274.24,-259.25 L 275.74,-289 L 268.98,-289 L 270.48,-259.25 L 264.48,-259.25
 L 265.98,-289 L 259.22,-289 L 260.72,-259.25 L 254.72,-259.25 L 256.22,-289 L 249.46,-289
 L 250.96,-259.25 L 244.96,-259.25 L 246.46,-289 L 239.7,-289 L 241.2,-259.25 L 235.2,-259.25
 L 236.7,-289 L 229.94,-289 L 231.44,-259.25 L 225.44,-259.25 L 226.94,-289 L 220.18,-289
 L 221.68,-259.25 L 215.68,-259.25 L 217.18,-289 L 210.42,-289 L 211.92,-259.25 L 205.92,-259.25
 L 207.42,-289 L 200.66,-289 L 202.16,-259.25 L 196.16,-259.25 L 197.66,-289 L 190.9,-289
 L 192.4,-259.25 L 186.4,-259.25 L 187.9,-289 L 181.14,-289 L 182.64,-259.25 L 176.64,-259.25
 L 178.14,-289 L 171.38,-289 L 172.88,-259.25 L 166.88,-259.25 L 168.38,-289 L 161.62,-289
 L 163.12,-259.25 L 157.12,-259.25 L 158.62,-289 L 151.86,-289 L 153.36,-259.25 L 147.36,-259.25
 L 148.86,-289 L 142.1,-289 L 143.6,-259.25 L 137.6,-259.25 L 138.024,-267.65 L 138.159,-267.785
 L 138.554,-268.273 L 138.896,-268.8 L 139.181,-269.36 L 139.406,-269.946 L 139.569,-270.553 L 139.667,-271.173
 L 139.7,-271.8 L 139.667,-272.427 L 139.569,-273.047 L 139.406,-273.654 L 139.181,-274.24 L 138.896,-274.8
 L 138.554,-275.327 L 138.419,-275.494 L 139.1,-289 L 132.34,-289 L 132.908,-277.741 L 132.453,-277.669
 L 131.846,-277.506 L 131.26,-277.281 L 130.7,-276.996 L 130.173,-276.654 L 129.685,-276.259 L 129.241,-275.815
 L 128.846,-275.327 L 128.634,-275.001 L 129.34,-289 L 122.58,-289 L 124.08,-259.25 L 118.08,-259.25
 L 119.58,-289 L 112.82,-289 L 114.32,-259.25 L 108.32,-259.25 L 109.82,-289 L 103.06,-289
 L 104.56,-259.25 L 98.56,-259.25 L 100.06,-289 L 93.3,-289 L 94.8,-259.25 L 88.8,-259.25
 L 90.3,-289 L 83.54,-289 L 85.04,-259.25 L 79.04,-259.25 L 80.54,-289 L 73.78,-289
 L 75.28,-259.25 L 69.28,-259.25 L 70.78,-289 L 64.02,-289 L 65.52,-259.25 L 59.52,-259.25
 L 61.02,-289 L 54.26,-289 L 55.76,-259.25 L 49.76,-259.25 L 51.26,-289 L 44.5,-289
 L 46,-259.25 L 40,-259.25 L 41.5,-289 L 8.00499,-289 L 8.00499,-289 L 8,-289
 L 7.16376,-288.956 L 6.3367,-288.825 L 5.52786,-288.608 L 4.74609,-288.308 L 4,-287.928 L 3.29773,-287.472
 L 2.64696,-286.945 L 2.05486,-286.353 L 1.52788,-285.702 L 1.07181,-285 L 0.69165,-284.254 L 0.391556,-283.472
 L 0.17482,-282.663 L 0.0438385,-281.836 L 0,-281 L 0.000259399,-280.995 L 0,-280.995 L 0,-227.005
 L 0.000259399,-227.005 L 0,-227 L 0.0438385,-226.164 L 0.17482,-225.337 L 0.391556,-224.528 L 0.69165,-223.746
 L 1.07181,-223 L 1.52788,-222.298 L 2.05486,-221.647 L 2.64696,-221.055 L 3.29773,-220.528 L 4,-220.072
 L 4.74609,-219.692 L 5.52786,-219.392 L 6.3367,-219.175 L 7.16376,-219.044 L 8,-219 L 8.00499,-219
 L 8.00499,-219 L 41.4995,-219 z
M 9.73868,-276.514 L 9.48021,-276.555 L 9.22745,-276.622 L 8.98315,-276.716 L 8.75,-276.835 L 8.53053,-276.977
 L 8.32716,-277.142 L 8.14214,-277.327 L 7.97745,-277.531 L 7.83493,-277.75 L 7.71613,-277.983 L 7.62234,-278.227
 L 7.55463,-278.48 L 7.51369,-278.739 L 7.5,-279 L 7.51369,-279.261 L 7.55463,-279.52 L 7.62234,-279.773
 L 7.71613,-280.017 L 7.83493,-280.25 L 7.97745,-280.469 L 8.14214,-280.673 L 8.32716,-280.858 L 8.53053,-281.023
 L 8.75,-281.165 L 8.98315,-281.284 L 9.22745,-281.378 L 9.48021,-281.445 L 9.73868,-281.486 L 10,-281.5
 L 10.2613,-281.486 L 10.5198,-281.445 L 10.7725,-281.378 L 11.0168,-281.284 L 11.25,-281.165 L 11.4695,-281.023
 L 11.6728,-280.858 L 11.8578,-280.673 L 12.0225,-280.469 L 12.1651,-280.25 L 12.2839,-280.017 L 12.3776,-279.773
 L 12.4454,-279.52 L 12.4863,-279.261 L 12.5,-279 L 12.4863,-278.739 L 12.4454,-278.48 L 12.3776,-278.227
 L 12.2839,-277.983 L 12.1651,-277.75 L 12.0225,-277.531 L 11.8578,-277.327 L 11.6728,-277.142 L 11.4695,-276.977
 L 11.25,-276.835 L 11.0168,-276.716 L 10.7725,-276.622 L 10.5198,-276.555 L 10.2613,-276.514 L 10,-276.5
 z
M 319.739,-276.514 L 319.48,-276.555 L 319.227,-276.622 L 318.983,-276.716 L 318.75,-276.835 L 318.531,-276.977
 L 318.327,-277.142 L 318.142,-277.327 L 317.977,-277.531 L 317.835,-277.75 L 317.716,-277.983 L 317.622,-278.227
 L 317.555,-278.48 L 317.514,-278.739 L 317.5,-279 L 317.514,-279.261 L 317.555,-279.52 L 317.622,-279.773
 L 317.716,-280.017 L 317.835,-280.25 L 317.977,-280.469 L 318.142,-280.673 L 318.327,-280.858 L 318.531,-281.023
 L 318.75,-281.165 L 318.983,-281.284 L 319.227,-281.378 L 319.48,-281.445 L 319.739,-281.486 L 320,-281.5
 L 320.261,-281.486 L 320.52,-281.445 L 320.773,-281.378 L 321.017,-281.284 L 321.25,-281.165 L 321.469,-281.023
 L 321.673,-280.858 L 321.858,-280.673 L 322.023,-280.469 L 322.165,-280.25 L 322.284,-280.017 L 322.378,-279.773
 L 322.445,-279.52 L 322.486,-279.261 L 322.5,-279 L 322.486,-278.739 L 322.445,-278.48 L 322.378,-278.227
 L 322.284,-277.983 L 322.165,-277.75 L 322.023,-277.531 L 321.858,-277.327 L 321.673,-277.142 L 321.469,-276.977
 L 321.25,-276.835 L 321.017,-276.716 L 320.773,-276.622 L 320.52,-276.555 L 320.261,-276.514 L 320,-276.5
 z
M 127.84,-259.25 L 128.338,-269.126 L 128.504,-268.8 L 128.846,-268.273 L 129.241,-267.785 L 129.685,-267.341
 L 130.173,-266.946 L 130.7,-266.604 L 131.26,-266.319 L 131.846,-266.094 L 132.453,-265.931 L 133.073,-265.833
 L 133.509,-265.81 L 133.84,-259.25 z
M 7,-235.6 L 7,-266.6 L 33,-266.6 L 33,-235.6 z
M 40,-248.75 L 46,-248.75 L 45.6689,-242.181 L 45.3,-242.2 L 44.6728,-242.167 L 44.0525,-242.069
 L 43.4459,-241.906 L 42.8596,-241.681 L 42.3,-241.396 L 41.7733,-241.054 L 41.2852,-240.659 L 40.8411,-240.215
 L 40.4543,-239.737 z
M 319.739,-226.514 L 319.48,-226.555 L 319.227,-226.622 L 318.983,-226.716 L 318.75,-226.835 L 318.531,-226.977
 L 318.327,-227.142 L 318.142,-227.327 L 317.977,-227.531 L 317.835,-227.75 L 317.716,-227.983 L 317.622,-228.227
 L 317.555,-228.48 L 317.514,-228.739 L 317.5,-229 L 317.514,-229.261 L 317.555,-229.52 L 317.622,-229.773
 L 317.716,-230.017 L 317.835,-230.25 L 317.977,-230.469 L 318.142,-230.673 L 318.327,-230.858 L 318.531,-231.023
 L 318.75,-231.165 L 318.983,-231.284 L 319.227,-231.378 L 319.48,-231.445 L 319.739,-231.486 L 320,-231.5
 L 320.261,-231.486 L 320.52,-231.445 L 320.773,-231.378 L 321.017,-231.284 L 321.25,-231.165 L 321.469,-231.023
 L 321.673,-230.858 L 321.858,-230.673 L 322.023,-230.469 L 322.165,-230.25 L 322.284,-230.017 L 322.378,-229.773
 L 322.445,-229.52 L 322.486,-229.261 L 322.5,-229 L 322.486,-228.739 L 322.445,-228.48 L 322.378,-228.227
 L 322.284,-227.983 L 322.165,-227.75 L 322.023,-227.531 L 321.858,-227.327 L 321.673,-227.142 L 321.469,-226.977
 L 321.25,-226.835 L 321.017,-226.716 L 320.773,-226.622 L 320.52,-226.555 L 320.261,-226.514 L 320,-226.5
 z
M 9.73868,-226.514 L 9.48021,-226.555 L 9.22745,-226.622 L 8.98315,-226.716 L 8.75,-226.835 L 8.53053,-226.977
 L 8.32716,-227.142 L 8.14214,-227.327 L 7.97745,-227.531 L 7.83493,-227.75 L 7.71613,-227.983 L 7.62234,-228.227
 L 7.55463,-228.48 L 7.51369,-228.739 L 7.5,-229 L 7.51369,-229.261 L 7.55463,-229.52 L 7.62234,-229.773
 L 7.71613,-230.017 L 7.83493,-230.25 L 7.97745,-230.469 L 8.14214,-230.673 L 8.32716,-230.858 L 8.53053,-231.023
 L 8.75,-231.165 L 8.98315,-231.284 L 9.22745,-231.378 L 9.48021,-231.445 L 9.73868,-231.486 L 10,-231.5
 L 10.2613,-231.486 L 10.5198,-231.445 L 10.7725,-231.378 L 11.0168,-231.284 L 11.25,-231.165 L 11.4695,-231.023
 L 11.6728,-230.858 L 11.8578,-230.673 L 12.0225,-230.469 L 12.1651,-230.25 L 12.2839,-230.017 L 12.3776,-229.773
 L 12.4454,-229.52 L 12.4863,-229.261 L 12.5,-229 L 12.4863,-228.739 L 12.4454,-228.48 L 12.3776,-228.227
 L 12.2839,-227.983 L 12.1651,-227.75 L 12.0225,-227.531 L 11.8578,-227.327 L 11.6728,-227.142 L 11.4695,-226.977
 L 11.25,-226.835 L 11.0168,-226.716 L 10.7725,-226.622 L 10.5198,-226.555 L 10.2613,-226.514 L 10,-226.5
 z
M 321.995,-146 L 322,-146 L 322.836,-146.044 L 323.663,-146.175 L 324.472,-146.392 L 325.254,-146.692
 L 326,-147.072 L 326.702,-147.528 L 327.353,-148.055 L 327.945,-148.647 L 328.472,-149.298 L 328.928,-150
 L 329.308,-150.746 L 329.608,-151.528 L 329.825,-152.337 L 329.956,-153.164 L 330,-154 L 330,-154.005
 L 330,-154.005 L 330,-207.995 L 330,-207.995 L 330,-208 L 329.956,-208.836 L 329.825,-209.663
 L 329.608,-210.472 L 329.308,-211.254 L 328.928,-212 L 328.472,-212.702 L 327.945,-213.353 L 327.353,-213.945
 L 326.702,-214.472 L 326,-214.928 L 325.254,-215.308 L 324.472,-215.608 L 323.663,-215.825 L 322.836,-215.956
 L 322,-216 L 321.995,-216 L 321.995,-216 L 8.00499,-216 L 8.00499,-216 L 8,-216
 L 7.16376,-215.956 L 6.3367,-215.825 L 5.52786,-215.608 L 4.74609,-215.308 L 4,-214.928 L 3.29773,-214.472
 L 2.64696,-213.945 L 2.05486,-213.353 L 1.52788,-212.702 L 1.07181,-212 L 0.69165,-211.254 L 0.391556,-210.472
 L 0.17482,-209.663 L 0.0438385,-208.836 L 0,-208 L 0.000259399,-207.995 L 0,-207.995 L 0,-154.005
 L 0.000259399,-154.005 L 0,-154 L 0.0438385,-153.164 L 0.17482,-152.337 L 0.391556,-151.528 L 0.69165,-150.746
 L 1.07181,-150 L 1.52788,-149.298 L 2.05486,-148.647 L 2.64696,-148.055 L 3.29773,-147.528 L 4,-147.072
 L 4.74609,-146.692 L 5.52786,-146.392 L 6.3367,-146.175 L 7.16376,-146.044 L 8,-146 L 8.00499,-146
 L 8.00499,-146 L 321.995,-146 z
M 319.843,-204.508 L 319.688,-204.533 L 319.536,-204.573 L 319.39,-204.63 L 319.25,-204.701 L 319.118,-204.786
 L 318.996,-204.885 L 318.885,-204.996 L 318.786,-205.118 L 318.701,-205.25 L 318.63,-205.39 L 318.573,-205.536
 L 318.533,-205.688 L 318.508,-205.843 L 318.5,-206 L 318.508,-206.157 L 318.533,-206.312 L 318.573,-206.464
 L 318.63,-206.61 L 318.701,-206.75 L 318.786,-206.882 L 318.885,-207.004 L 318.996,-207.115 L 319.118,-207.214
 L 319.25,-207.299 L 319.39,-207.37 L 319.536,-207.427 L 319.688,-207.467 L 319.843,-207.492 L 320,-207.5
 L 320.157,-207.492 L 320.312,-207.467 L 320.464,-207.427 L 320.61,-207.37 L 320.75,-207.299 L 320.882,-207.214
 L 321.004,-207.115 L 321.115,-207.004 L 321.214,-206.882 L 321.299,-206.75 L 321.37,-206.61 L 321.427,-206.464
 L 321.467,-206.312 L 321.492,-206.157 L 321.5,-206 L 321.492,-205.843 L 321.467,-205.688 L 321.427,-205.536
 L 321.37,-205.39 L 321.299,-205.25 L 321.214,-205.118 L 321.115,-204.996 L 321.004,-204.885 L 320.882,-204.786
 L 320.75,-204.701 L 320.61,-204.63 L 320.464,-204.573 L 320.312,-204.533 L 320.157,-204.508 L 320,-204.5
 z
M 9.8432,-204.508 L 9.68813,-204.533 L 9.53647,-204.573 L 9.38989,-204.63 L 9.25,-204.701 L 9.11832,-204.786
 L 8.99629,-204.885 L 8.88527,-204.996 L 8.78647,-205.118 L 8.70096,-205.25 L 8.62967,-205.39 L 8.57341,-205.536
 L 8.53278,-205.688 L 8.50821,-205.843 L 8.5,-206 L 8.50821,-206.157 L 8.53278,-206.312 L 8.57341,-206.464
 L 8.62967,-206.61 L 8.70096,-206.75 L 8.78647,-206.882 L 8.88527,-207.004 L 8.99629,-207.115 L 9.11832,-207.214
 L 9.25,-207.299 L 9.38989,-207.37 L 9.53647,-207.427 L 9.68813,-207.467 L 9.8432,-207.492 L 10,-207.5
 L 10.1568,-207.492 L 10.3119,-207.467 L 10.4635,-207.427 L 10.6101,-207.37 L 10.75,-207.299 L 10.8817,-207.214
 L 11.0037,-207.115 L 11.1147,-207.004 L 11.2135,-206.882 L 11.299,-206.75 L 11.3703,-206.61 L 11.4266,-206.464
 L 11.4672,-206.312 L 11.4918,-206.157 L 11.5,-206 L 11.4918,-205.843 L 11.4672,-205.688 L 11.4266,-205.536
 L 11.3703,-205.39 L 11.299,-205.25 L 11.2135,-205.118 L 11.1147,-204.996 L 11.0037,-204.885 L 10.8817,-204.786
 L 10.75,-204.701 L 10.6101,-204.63 L 10.4635,-204.573 L 10.3119,-204.533 L 10.1568,-204.508 L 10,-204.5
 z
M 52,-155.917 L 52,-176.925 L 33,-176.925 L 33,-162.6 L 7,-162.6 L 7,-193.6
 L 33,-193.6 L 33,-185.075 L 52,-185.075 L 52,-206.083 L 278,-206.083 L 278,-185.075
 L 290,-185.075 L 290,-176.925 L 278,-176.925 L 278,-155.917 z
M 76.1113,-169.762 L 76.214,-169.782 L 76.314,-169.813 L 76.4103,-169.854 L 76.5017,-169.905 L 76.5873,-169.965
 L 76.6661,-170.034 L 76.7373,-170.111 L 76.8001,-170.195 L 76.8538,-170.284 L 76.8978,-170.379 L 76.9316,-170.478
 L 76.9462,-170.536 L 76.9702,-170.645 L 77.0364,-170.844 L 77.1228,-171.034 L 77.2288,-171.215 L 77.353,-171.383
 L 77.4942,-171.537 L 77.6507,-171.676 L 77.8208,-171.798 L 78.0029,-171.901 L 78.1945,-171.985 L 78.394,-172.048
 L 78.599,-172.09 L 78.8071,-172.11 L 78.9186,-172.109 L 79.0232,-172.114 L 79.1267,-172.13 L 79.228,-172.156
 L 79.326,-172.193 L 79.4196,-172.24 L 79.5078,-172.296 L 79.5896,-172.361 L 79.6642,-172.435 L 79.7307,-172.516
 L 79.7883,-172.603 L 79.8365,-172.696 L 79.8748,-172.793 L 79.9026,-172.894 L 79.9198,-172.997 L 79.926,-173.102
 L 79.9213,-173.206 L 79.9057,-173.31 L 79.8794,-173.411 L 79.8426,-173.509 L 79.7958,-173.603 L 79.7394,-173.691
 L 79.7032,-173.739 L 79.633,-173.825 L 79.5191,-174.001 L 79.4242,-174.187 L 79.3492,-174.382 L 79.295,-174.584
 L 79.2623,-174.791 L 79.2514,-175 L 79.2623,-175.209 L 79.295,-175.416 L 79.3492,-175.618 L 79.4242,-175.813
 L 79.5191,-175.999 L 79.633,-176.175 L 79.7032,-176.261 L 79.7647,-176.346 L 79.817,-176.437 L 79.8596,-176.532
 L 79.892,-176.632 L 79.9137,-176.734 L 79.9247,-176.838 L 79.9247,-176.943 L 79.9137,-177.047 L 79.892,-177.149
 L 79.8596,-177.249 L 79.8171,-177.345 L 79.7647,-177.435 L 79.7032,-177.52 L 79.6332,-177.598 L 79.5554,-177.668
 L 79.4707,-177.729 L 79.3801,-177.782 L 79.2845,-177.824 L 79.1849,-177.857 L 79.0825,-177.878 L 78.9784,-177.889
 L 78.9186,-177.891 L 78.8071,-177.89 L 78.599,-177.91 L 78.394,-177.952 L 78.1945,-178.015 L 78.0029,-178.099
 L 77.8208,-178.202 L 77.6507,-178.324 L 77.4942,-178.463 L 77.353,-178.617 L 77.2288,-178.785 L 77.1228,-178.966
 L 77.0364,-179.156 L 76.9702,-179.355 L 76.9462,-179.464 L 76.9184,-179.564 L 76.8801,-179.662 L 76.8319,-179.755
 L 76.7742,-179.842 L 76.7078,-179.923 L 76.6332,-179.996 L 76.5514,-180.062 L 76.4632,-180.118 L 76.3695,-180.165
 L 76.2715,-180.202 L 76.1702,-180.228 L 76.0667,-180.244 L 75.9622,-180.248 L 75.8577,-180.242 L 75.7544,-180.225
 L 75.6535,-180.197 L 75.5561,-180.159 L 75.4632,-180.111 L 75.3758,-180.053 L 75.295,-179.986 L 75.2215,-179.912
 L 75.1832,-179.866 L 75.1143,-179.778 L 74.9687,-179.628 L 74.8081,-179.494 L 74.6342,-179.378 L 74.4494,-179.28
 L 74.2552,-179.202 L 74.054,-179.145 L 73.848,-179.109 L 73.6391,-179.095 L 73.4301,-179.103 L 73.223,-179.132
 L 73.0202,-179.183 L 72.8237,-179.256 L 72.7238,-179.305 L 72.6275,-179.346 L 72.5275,-179.377 L 72.4248,-179.397
 L 72.3206,-179.406 L 72.2159,-179.405 L 72.112,-179.392 L 72.0099,-179.369 L 71.9109,-179.335 L 71.8159,-179.291
 L 71.726,-179.237 L 71.6423,-179.175 L 71.5656,-179.103 L 71.4967,-179.025 L 71.4364,-178.939 L 71.3854,-178.848
 L 71.3443,-178.751 L 71.3134,-178.651 L 71.2932,-178.549 L 71.2838,-178.444 L 71.2854,-178.34 L 71.2979,-178.236
 L 71.3098,-178.177 L 71.3354,-178.069 L 71.362,-177.861 L 71.3667,-177.652 L 71.3495,-177.443 L 71.3106,-177.238
 L 71.2505,-177.038 L 71.1697,-176.845 L 71.069,-176.661 L 70.9501,-176.489 L 70.8135,-176.331 L 70.6613,-176.187
 L 70.4948,-176.06 L 70.3161,-175.952 L 70.2153,-175.904 L 70.1231,-175.855 L 70.0367,-175.796 L 69.9568,-175.728
 L 69.8845,-175.652 L 69.8204,-175.57 L 69.7654,-175.48 L 69.72,-175.386 L 69.6847,-175.288 L 69.6599,-175.186
 L 69.6458,-175.082 L 69.6427,-174.978 L 69.6505,-174.873 L 69.6692,-174.77 L 69.6985,-174.67 L 69.7382,-174.573
 L 69.7878,-174.481 L 69.8468,-174.394 L 69.9144,-174.314 L 69.9901,-174.242 L 70.0729,-174.178 L 70.1619,-174.123
 L 70.2153,-174.096 L 70.3161,-174.048 L 70.4948,-173.94 L 70.6613,-173.813 L 70.8135,-173.669 L 70.9501,-173.511
 L 71.069,-173.339 L 71.1697,-173.155 L 71.2505,-172.962 L 71.3106,-172.762 L 71.3495,-172.557 L 71.3667,-172.348
 L 71.362,-172.139 L 71.3354,-171.931 L 71.3098,-171.823 L 71.2912,-171.72 L 71.2833,-171.615 L 71.2865,-171.511
 L 71.3005,-171.407 L 71.3254,-171.305 L 71.3607,-171.207 L 71.4061,-171.113 L 71.4611,-171.024 L 71.5252,-170.941
 L 71.5975,-170.865 L 71.6774,-170.797 L 71.7639,-170.738 L 71.856,-170.689 L 71.9529,-170.649 L 72.0534,-170.62
 L 72.1563,-170.601 L 72.2607,-170.593 L 72.3654,-170.596 L 72.4691,-170.611 L 72.5708,-170.635 L 72.6693,-170.671
 L 72.7238,-170.695 L 72.8237,-170.744 L 73.0202,-170.817 L 73.223,-170.868 L 73.4301,-170.897 L 73.6391,-170.905
 L 73.848,-170.891 L 74.054,-170.855 L 74.2552,-170.798 L 74.4494,-170.72 L 74.6342,-170.622 L 74.8081,-170.506
 L 74.9687,-170.372 L 75.1143,-170.222 L 75.1832,-170.134 L 75.252,-170.055 L 75.3288,-169.984 L 75.4125,-169.921
 L 75.5024,-169.868 L 75.5974,-169.824 L 75.6964,-169.79 L 75.7985,-169.766 L 75.9024,-169.754 L 76.007,-169.752
 z
M 74.7387,-172.514 L 74.4802,-172.555 L 74.2275,-172.622 L 73.9832,-172.716 L 73.75,-172.835 L 73.5305,-172.977
 L 73.3272,-173.142 L 73.1422,-173.327 L 72.9775,-173.531 L 72.8349,-173.75 L 72.7161,-173.983 L 72.6224,-174.227
 L 72.5546,-174.48 L 72.5137,-174.739 L 72.5,-175 L 72.5137,-175.261 L 72.5546,-175.52 L 72.6224,-175.773
 L 72.7161,-176.017 L 72.8349,-176.25 L 72.9775,-176.469 L 73.1422,-176.673 L 73.3272,-176.858 L 73.5305,-177.023
 L 73.75,-177.165 L 73.9832,-177.284 L 74.2275,-177.378 L 74.4802,-177.445 L 74.7387,-177.486 L 75,-177.5
 L 75.2613,-177.486 L 75.5198,-177.445 L 75.7725,-177.378 L 76.0168,-177.284 L 76.25,-177.165 L 76.4695,-177.023
 L 76.6728,-176.858 L 76.8578,-176.673 L 77.0225,-176.469 L 77.1651,-176.25 L 77.2839,-176.017 L 77.3776,-175.773
 L 77.4454,-175.52 L 77.4863,-175.261 L 77.5,-175 L 77.4863,-174.739 L 77.4454,-174.48 L 77.3776,-174.227
 L 77.2839,-173.983 L 77.1651,-173.75 L 77.0225,-173.531 L 76.8578,-173.327 L 76.6728,-173.142 L 76.4695,-172.977
 L 76.25,-172.835 L 76.0168,-172.716 L 75.7725,-172.622 L 75.5198,-172.555 L 75.2613,-172.514 L 75,-172.5
 z
M 61.1113,-169.762 L 61.214,-169.782 L 61.314,-169.813 L 61.4103,-169.854 L 61.5017,-169.905 L 61.5873,-169.965
 L 61.6661,-170.034 L 61.7373,-170.111 L 61.8001,-170.195 L 61.8538,-170.284 L 61.8978,-170.379 L 61.9316,-170.478
 L 61.9462,-170.536 L 61.9702,-170.645 L 62.0364,-170.844 L 62.1228,-171.034 L 62.2288,-171.215 L 62.353,-171.383
 L 62.4942,-171.537 L 62.6507,-171.676 L 62.8208,-171.798 L 63.0029,-171.901 L 63.1945,-171.985 L 63.394,-172.048
 L 63.599,-172.09 L 63.8071,-172.11 L 63.9186,-172.109 L 64.0232,-172.114 L 64.1267,-172.13 L 64.228,-172.156
 L 64.326,-172.193 L 64.4196,-172.24 L 64.5078,-172.296 L 64.5896,-172.361 L 64.6642,-172.435 L 64.7307,-172.516
 L 64.7883,-172.603 L 64.8365,-172.696 L 64.8748,-172.793 L 64.9026,-172.894 L 64.9198,-172.997 L 64.926,-173.102
 L 64.9213,-173.206 L 64.9057,-173.31 L 64.8794,-173.411 L 64.8426,-173.509 L 64.7958,-173.603 L 64.7394,-173.691
 L 64.7032,-173.739 L 64.633,-173.825 L 64.5191,-174.001 L 64.4242,-174.187 L 64.3492,-174.382 L 64.295,-174.584
 L 64.2623,-174.791 L 64.2514,-175 L 64.2623,-175.209 L 64.295,-175.416 L 64.3492,-175.618 L 64.4242,-175.813
 L 64.5191,-175.999 L 64.633,-176.175 L 64.7032,-176.261 L 64.7647,-176.346 L 64.817,-176.437 L 64.8596,-176.532
 L 64.892,-176.632 L 64.9137,-176.734 L 64.9247,-176.838 L 64.9247,-176.943 L 64.9137,-177.047 L 64.892,-177.149
 L 64.8596,-177.249 L 64.8171,-177.345 L 64.7647,-177.435 L 64.7032,-177.52 L 64.6332,-177.598 L 64.5554,-177.668
 L 64.4707,-177.729 L 64.3801,-177.782 L 64.2845,-177.824 L 64.1849,-177.857 L 64.0825,-177.878 L 63.9784,-177.889
 L 63.9186,-177.891 L 63.8071,-177.89 L 63.599,-177.91 L 63.394,-177.952 L 63.1945,-178.015 L 63.0029,-178.099
 L 62.8208,-178.202 L 62.6507,-178.324 L 62.4942,-178.463 L 62.353,-178.617 L 62.2288,-178.785 L 62.1228,-178.966
 L 62.0364,-179.156 L 61.9702,-179.355 L 61.9462,-179.464 L 61.9184,-179.564 L 61.8801,-179.662 L 61.8319,-179.755
 L 61.7742,-179.842 L 61.7078,-179.923 L 61.6332,-179.996 L 61.5514,-180.062 L 61.4632,-180.118 L 61.3695,-180.165
 L 61.2715,-180.202 L 61.1702,-180.228 L 61.0667,-180.244 L 60.9622,-180.248 L 60.8577,-180.242 L 60.7544,-180.225
 L 60.6535,-180.197 L 60.5561,-180.159 L 60.4632,-180.111 L 60.3758,-180.053 L 60.295,-179.986 L 60.2215,-179.912
 L 60.1832,-179.866 L 60.1143,-179.778 L 59.9687,-179.628 L 59.8081,-179.494 L 59.6342,-179.378 L 59.4494,-179.28
 L 59.2552,-179.202 L 59.054,-179.145 L 58.848,-179.109 L 58.6391,-179.095 L 58.4301,-179.103 L 58.223,-179.132
 L 58.0202,-179.183 L 57.8237,-179.256 L 57.7238,-179.305 L 57.6275,-179.346 L 57.5275,-179.377 L 57.4248,-179.397
 L 57.3206,-179.406 L 57.2159,-179.405 L 57.112,-179.392 L 57.0099,-179.369 L 56.9109,-179.335 L 56.8159,-179.291
 L 56.726,-179.237 L 56.6423,-179.175 L 56.5656,-179.103 L 56.4967,-179.025 L 56.4364,-178.939 L 56.3854,-178.848
 L 56.3443,-178.751 L 56.3134,-178.651 L 56.2932,-178.549 L 56.2838,-178.444 L 56.2854,-178.34 L 56.2979,-178.236
 L 56.3098,-178.177 L 56.3354,-178.069 L 56.362,-177.861 L 56.3667,-177.652 L 56.3495,-177.443 L 56.3106,-177.238
 L 56.2505,-177.038 L 56.1697,-176.845 L 56.069,-176.661 L 55.9501,-176.489 L 55.8135,-176.331 L 55.6613,-176.187
 L 55.4948,-176.06 L 55.3161,-175.952 L 55.2153,-175.904 L 55.1231,-175.855 L 55.0367,-175.796 L 54.9568,-175.728
 L 54.8845,-175.652 L 54.8204,-175.57 L 54.7654,-175.48 L 54.72,-175.386 L 54.6847,-175.288 L 54.6599,-175.186
 L 54.6458,-175.082 L 54.6427,-174.978 L 54.6505,-174.873 L 54.6692,-174.77 L 54.6985,-174.67 L 54.7382,-174.573
 L 54.7878,-174.481 L 54.8468,-174.394 L 54.9144,-174.314 L 54.9901,-174.242 L 55.0729,-174.178 L 55.1619,-174.123
 L 55.2153,-174.096 L 55.3161,-174.048 L 55.4948,-173.94 L 55.6613,-173.813 L 55.8135,-173.669 L 55.9501,-173.511
 L 56.069,-173.339 L 56.1697,-173.155 L 56.2505,-172.962 L 56.3106,-172.762 L 56.3495,-172.557 L 56.3667,-172.348
 L 56.362,-172.139 L 56.3354,-171.931 L 56.3098,-171.823 L 56.2912,-171.72 L 56.2833,-171.615 L 56.2865,-171.511
 L 56.3005,-171.407 L 56.3254,-171.305 L 56.3607,-171.207 L 56.4061,-171.113 L 56.4611,-171.024 L 56.5252,-170.941
 L 56.5975,-170.865 L 56.6774,-170.797 L 56.7639,-170.738 L 56.856,-170.689 L 56.9529,-170.649 L 57.0534,-170.62
 L 57.1563,-170.601 L 57.2607,-170.593 L 57.3654,-170.596 L 57.4691,-170.611 L 57.5708,-170.635 L 57.6693,-170.671
 L 57.7238,-170.695 L 57.8237,-170.744 L 58.0202,-170.817 L 58.223,-170.868 L 58.4301,-170.897 L 58.6391,-170.905
 L 58.848,-170.891 L 59.054,-170.855 L 59.2552,-170.798 L 59.4494,-170.72 L 59.6342,-170.622 L 59.8081,-170.506
 L 59.9687,-170.372 L 60.1143,-170.222 L 60.1832,-170.134 L 60.252,-170.055 L 60.3288,-169.984 L 60.4125,-169.921
 L 60.5024,-169.868 L 60.5974,-169.824 L 60.6964,-169.79 L 60.7985,-169.766 L 60.9024,-169.754 L 61.007,-169.752
 z
M 59.7387,-172.514 L 59.4802,-172.555 L 59.2275,-172.622 L 58.9832,-172.716 L 58.75,-172.835 L 58.5305,-172.977
 L 58.3272,-173.142 L 58.1422,-173.327 L 57.9775,-173.531 L 57.8349,-173.75 L 57.7161,-173.983 L 57.6224,-174.227
 L 57.5546,-174.48 L 57.5137,-174.739 L 57.5,-175 L 57.5137,-175.261 L 57.5546,-175.52 L 57.6224,-175.773
 L 57.7161,-176.017 L 57.8349,-176.25 L 57.9775,-176.469 L 58.1422,-176.673 L 58.3272,-176.858 L 58.5305,-177.023
 L 58.75,-177.165 L 58.9832,-177.284 L 59.2275,-177.378 L 59.4802,-177.445 L 59.7387,-177.486 L 60,-177.5
 L 60.2613,-177.486 L 60.5198,-177.445 L 60.7725,-177.378 L 61.0168,-177.284 L 61.25,-177.165 L 61.4695,-177.023
 L 61.6728,-176.858 L 61.8578,-176.673 L 62.0225,-176.469 L 62.1651,-176.25 L 62.2839,-176.017 L 62.3776,-175.773
 L 62.4454,-175.52 L 62.4863,-175.261 L 62.5,-175 L 62.4863,-174.739 L 62.4454,-174.48 L 62.3776,-174.227
 L 62.2839,-173.983 L 62.1651,-173.75 L 62.0225,-173.531 L 61.8578,-173.327 L 61.6728,-173.142 L 61.4695,-172.977
 L 61.25,-172.835 L 61.0168,-172.716 L 60.7725,-172.622 L 60.5198,-172.555 L 60.2613,-172.514 L 60,-172.5
 z
M 91.1113,-169.762 L 91.214,-169.782 L 91.314,-169.813 L 91.4103,-169.854 L 91.5017,-169.905 L 91.5873,-169.965
 L 91.6661,-170.034 L 91.7373,-170.111 L 91.8001,-170.195 L 91.8538,-170.284 L 91.8978,-170.379 L 91.9316,-170.478
 L 91.9462,-170.536 L 91.9702,-170.645 L 92.0364,-170.844 L 92.1228,-171.034 L 92.2288,-171.215 L 92.353,-171.383
 L 92.4942,-171.537 L 92.6507,-171.676 L 92.8208,-171.798 L 93.0029,-171.901 L 93.1945,-171.985 L 93.394,-172.048
 L 93.599,-172.09 L 93.8071,-172.11 L 93.9186,-172.109 L 94.0232,-172.114 L 94.1267,-172.13 L 94.228,-172.156
 L 94.326,-172.193 L 94.4196,-172.24 L 94.5078,-172.296 L 94.5896,-172.361 L 94.6642,-172.435 L 94.7307,-172.516
 L 94.7883,-172.603 L 94.8365,-172.696 L 94.8748,-172.793 L 94.9026,-172.894 L 94.9198,-172.997 L 94.926,-173.102
 L 94.9213,-173.206 L 94.9057,-173.31 L 94.8794,-173.411 L 94.8426,-173.509 L 94.7958,-173.603 L 94.7394,-173.691
 L 94.7032,-173.739 L 94.633,-173.825 L 94.5191,-174.001 L 94.4242,-174.187 L 94.3492,-174.382 L 94.295,-174.584
 L 94.2623,-174.791 L 94.2514,-175 L 94.2623,-175.209 L 94.295,-175.416 L 94.3492,-175.618 L 94.4242,-175.813
 L 94.5191,-175.999 L 94.633,-176.175 L 94.7032,-176.261 L 94.7647,-176.346 L 94.817,-176.437 L 94.8596,-176.532
 L 94.892,-176.632 L 94.9137,-176.734 L 94.9247,-176.838 L 94.9247,-176.943 L 94.9137,-177.047 L 94.892,-177.149
 L 94.8596,-177.249 L 94.8171,-177.345 L 94.7647,-177.435 L 94.7032,-177.52 L 94.6332,-177.598 L 94.5554,-177.668
 L 94.4707,-177.729 L 94.3801,-177.782 L 94.2845,-177.824 L 94.1849,-177.857 L 94.0825,-177.878 L 93.9784,-177.889
 L 93.9186,-177.891 L 93.8071,-177.89 L 93.599,-177.91 L 93.394,-177.952 L 93.1945,-178.015 L 93.0029,-178.099
 L 92.8208,-178.202 L 92.6507,-178.324 L 92.4942,-178.463 L 92.353,-178.617 L 92.2288,-178.785 L 92.1228,-178.966
 L 92.0364,-179.156 L 91.9702,-179.355 L 91.9462,-179.464 L 91.9184,-179.564 L 91.8801,-179.662 L 91.8319,-179.755
 L 91.7742,-179.842 L 91.7078,-179.923 L 91.6332,-179.996 L 91.5514,-180.062 L 91.4632,-180.118 L 91.3695,-180.165
 L 91.2715,-180.202 L 91.1702,-180.228 L 91.0667,-180.244 L 90.9622,-180.248 L 90.8577,-180.242 L 90.7544,-180.225
 L 90.6535,-180.197 L 90.5561,-180.159 L 90.4632,-180.111 L 90.3758,-180.053 L 90.295,-179.986 L 90.2215,-179.912
 L 90.1832,-179.866 L 90.1143,-179.778 L 89.9687,-179.628 L 89.8081,-179.494 L 89.6342,-179.378 L 89.4494,-179.28
 L 89.2552,-179.202 L 89.054,-179.145 L 88.848,-179.109 L 88.6391,-179.095 L 88.4301,-179.103 L 88.223,-179.132
 L 88.0202,-179.183 L 87.8237,-179.256 L 87.7238,-179.305 L 87.6275,-179.346 L 87.5275,-179.377 L 87.4248,-179.397
 L 87.3206,-179.406 L 87.2159,-179.405 L 87.112,-179.392 L 87.0099,-179.369 L 86.9109,-179.335 L 86.8159,-179.291
 L 86.726,-179.237 L 86.6423,-179.175 L 86.5656,-179.103 L 86.4967,-179.025 L 86.4364,-178.939 L 86.3854,-178.848
 L 86.3443,-178.751 L 86.3134,-178.651 L 86.2932,-178.549 L 86.2838,-178.444 L 86.2854,-178.34 L 86.2979,-178.236
 L 86.3098,-178.177 L 86.3354,-178.069 L 86.362,-177.861 L 86.3667,-177.652 L 86.3495,-177.443 L 86.3106,-177.238
 L 86.2505,-177.038 L 86.1697,-176.845 L 86.069,-176.661 L 85.9501,-176.489 L 85.8135,-176.331 L 85.6613,-176.187
 L 85.4948,-176.06 L 85.3161,-175.952 L 85.2153,-175.904 L 85.1231,-175.855 L 85.0367,-175.796 L 84.9568,-175.728
 L 84.8845,-175.652 L 84.8204,-175.57 L 84.7654,-175.48 L 84.72,-175.386 L 84.6847,-175.288 L 84.6599,-175.186
 L 84.6458,-175.082 L 84.6427,-174.978 L 84.6505,-174.873 L 84.6692,-174.77 L 84.6985,-174.67 L 84.7382,-174.573
 L 84.7878,-174.481 L 84.8468,-174.394 L 84.9144,-174.314 L 84.9901,-174.242 L 85.0729,-174.178 L 85.1619,-174.123
 L 85.2153,-174.096 L 85.3161,-174.048 L 85.4948,-173.94 L 85.6613,-173.813 L 85.8135,-173.669 L 85.9501,-173.511
 L 86.069,-173.339 L 86.1697,-173.155 L 86.2505,-172.962 L 86.3106,-172.762 L 86.3495,-172.557 L 86.3667,-172.348
 L 86.362,-172.139 L 86.3354,-171.931 L 86.3098,-171.823 L 86.2912,-171.72 L 86.2833,-171.615 L 86.2865,-171.511
 L 86.3005,-171.407 L 86.3254,-171.305 L 86.3607,-171.207 L 86.4061,-171.113 L 86.4611,-171.024 L 86.5252,-170.941
 L 86.5975,-170.865 L 86.6774,-170.797 L 86.7639,-170.738 L 86.856,-170.689 L 86.9529,-170.649 L 87.0534,-170.62
 L 87.1563,-170.601 L 87.2607,-170.593 L 87.3654,-170.596 L 87.4691,-170.611 L 87.5708,-170.635 L 87.6693,-170.671
 L 87.7238,-170.695 L 87.8237,-170.744 L 88.0202,-170.817 L 88.223,-170.868 L 88.4301,-170.897 L 88.6391,-170.905
 L 88.848,-170.891 L 89.054,-170.855 L 89.2552,-170.798 L 89.4494,-170.72 L 89.6342,-170.622 L 89.8081,-170.506
 L 89.9687,-170.372 L 90.1143,-170.222 L 90.1832,-170.134 L 90.252,-170.055 L 90.3288,-169.984 L 90.4125,-169.921
 L 90.5024,-169.868 L 90.5974,-169.824 L 90.6964,-169.79 L 90.7985,-169.766 L 90.9024,-169.754 L 91.007,-169.752
 z
M 319.843,-154.508 L 319.688,-154.533 L 319.536,-154.573 L 319.39,-154.63 L 319.25,-154.701 L 319.118,-154.786
 L 318.996,-154.885 L 318.885,-154.996 L 318.786,-155.118 L 318.701,-155.25 L 318.63,-155.39 L 318.573,-155.536
 L 318.533,-155.688 L 318.508,-155.843 L 318.5,-156 L 318.508,-156.157 L 318.533,-156.312 L 318.573,-156.464
 L 318.63,-156.61 L 318.701,-156.75 L 318.786,-156.882 L 318.885,-157.004 L 318.996,-157.115 L 319.118,-157.214
 L 319.25,-157.299 L 319.39,-157.37 L 319.536,-157.427 L 319.688,-157.467 L 319.843,-157.492 L 320,-157.5
 L 320.157,-157.492 L 320.312,-157.467 L 320.464,-157.427 L 320.61,-157.37 L 320.75,-157.299 L 320.882,-157.214
 L 321.004,-157.115 L 321.115,-157.004 L 321.214,-156.882 L 321.299,-156.75 L 321.37,-156.61 L 321.427,-156.464
 L 321.467,-156.312 L 321.492,-156.157 L 321.5,-156 L 321.492,-155.843 L 321.467,-155.688 L 321.427,-155.536
 L 321.37,-155.39 L 321.299,-155.25 L 321.214,-155.118 L 321.115,-154.996 L 321.004,-154.885 L 320.882,-154.786
 L 320.75,-154.701 L 320.61,-154.63 L 320.464,-154.573 L 320.312,-154.533 L 320.157,-154.508 L 320,-154.5
 z
M 9.8432,-154.508 L 9.68813,-154.533 L 9.53647,-154.573 L 9.38989,-154.63 L 9.25,-154.701 L 9.11832,-154.786
 L 8.99629,-154.885 L 8.88527,-154.996 L 8.78647,-155.118 L 8.70096,-155.25 L 8.62967,-155.39 L 8.57341,-155.536
 L 8.53278,-155.688 L 8.50821,-155.843 L 8.5,-156 L 8.50821,-156.157 L 8.53278,-156.312 L 8.57341,-156.464
 L 8.62967,-156.61 L 8.70096,-156.75 L 8.78647,-156.882 L 8.88527,-157.004 L 8.99629,-157.115 L 9.11832,-157.214
 L 9.25,-157.299 L 9.38989,-157.37 L 9.53647,-157.427 L 9.68813,-157.467 L 9.8432,-157.492 L 10,-157.5
 L 10.1568,-157.492 L 10.3119,-157.467 L 10.4635,-157.427 L 10.6101,-157.37 L 10.75,-157.299 L 10.8817,-157.214
 L 11.0037,-157.115 L 11.1147,-157.004 L 11.2135,-156.882 L 11.299,-156.75 L 11.3703,-156.61 L 11.4266,-156.464
 L 11.4672,-156.312 L 11.4918,-156.157 L 11.5,-156 L 11.4918,-155.843 L 11.4672,-155.688 L 11.4266,-155.536
 L 11.3703,-155.39 L 11.299,-155.25 L 11.2135,-155.118 L 11.1147,-154.996 L 11.0037,-154.885 L 10.8817,-154.786
 L 10.75,-154.701 L 10.6101,-154.63 L 10.4635,-154.573 L 10.3119,-154.533 L 10.1568,-154.508 L 10,-154.5
 z
M 321.995,-73.0003 L 322,-73 L 322.836,-73.0438 L 323.663,-73.1748 L 324.472,-73.3916 L 325.254,-73.6917
 L 326,-74.0718 L 326.702,-74.5279 L 327.353,-75.0549 L 327.945,-75.647 L 328.472,-76.2977 L 328.928,-77
 L 329.308,-77.7461 L 329.608,-78.5279 L 329.825,-79.3367 L 329.956,-80.1638 L 330,-81 L 330,-81.005
 L 330,-81.005 L 330,-134.995 L 330,-134.995 L 330,-135 L 329.956,-135.836 L 329.825,-136.663
 L 329.608,-137.472 L 329.308,-138.254 L 328.928,-139 L 328.472,-139.702 L 327.945,-140.353 L 327.353,-140.945
 L 326.702,-141.472 L 326,-141.928 L 325.254,-142.308 L 324.472,-142.608 L 323.663,-142.825 L 322.836,-142.956
 L 322,-143 L 321.995,-143 L 321.995,-143 L 8.00499,-143 L 8.00499,-143 L 8,-143
 L 7.16376,-142.956 L 6.3367,-142.825 L 5.52786,-142.608 L 4.74609,-142.308 L 4,-141.928 L 3.29773,-141.472
 L 2.64696,-140.945 L 2.05486,-140.353 L 1.52788,-139.702 L 1.07181,-139 L 0.69165,-138.254 L 0.391556,-137.472
 L 0.17482,-136.663 L 0.0438385,-135.836 L 0,-135 L 0.000259399,-134.995 L 0,-134.995 L 0,-81.005
 L 0.000259399,-81.005 L 0,-81 L 0.0438385,-80.1638 L 0.17482,-79.3367 L 0.391556,-78.5279 L 0.69165,-77.7461
 L 1.07181,-77 L 1.52788,-76.2977 L 2.05486,-75.647 L 2.64696,-75.0549 L 3.29773,-74.5279 L 4,-74.0718
 L 4.74609,-73.6917 L 5.52786,-73.3916 L 6.3367,-73.1748 L 7.16376,-73.0438 L 8,-73 L 8.00499,-73.0003
 L 8.00499,-73 L 321.995,-73 z
M 9.8432,-131.508 L 9.68813,-131.533 L 9.53647,-131.573 L 9.38989,-131.63 L 9.25,-131.701 L 9.11832,-131.786
 L 8.99629,-131.885 L 8.88527,-131.996 L 8.78647,-132.118 L 8.70096,-132.25 L 8.62967,-132.39 L 8.57341,-132.536
 L 8.53278,-132.688 L 8.50821,-132.843 L 8.5,-133 L 8.50821,-133.157 L 8.53278,-133.312 L 8.57341,-133.464
 L 8.62967,-133.61 L 8.70096,-133.75 L 8.78647,-133.882 L 8.88527,-134.004 L 8.99629,-134.115 L 9.11832,-134.214
 L 9.25,-134.299 L 9.38989,-134.37 L 9.53647,-134.427 L 9.68813,-134.467 L 9.8432,-134.492 L 10,-134.5
 L 10.1568,-134.492 L 10.3119,-134.467 L 10.4635,-134.427 L 10.6101,-134.37 L 10.75,-134.299 L 10.8817,-134.214
 L 11.0037,-134.115 L 11.1147,-134.004 L 11.2135,-133.882 L 11.299,-133.75 L 11.3703,-133.61 L 11.4266,-133.464
 L 11.4672,-133.312 L 11.4918,-133.157 L 11.5,-133 L 11.4918,-132.843 L 11.4672,-132.688 L 11.4266,-132.536
 L 11.3703,-132.39 L 11.299,-132.25 L 11.2135,-132.118 L 11.1147,-131.996 L 11.0037,-131.885 L 10.8817,-131.786
 L 10.75,-131.701 L 10.6101,-131.63 L 10.4635,-131.573 L 10.3119,-131.533 L 10.1568,-131.508 L 10,-131.5
 z
M 319.843,-131.508 L 319.688,-131.533 L 319.536,-131.573 L 319.39,-131.63 L 319.25,-131.701 L 319.118,-131.786
 L 318.996,-131.885 L 318.885,-131.996 L 318.786,-132.118 L 318.701,-132.25 L 318.63,-132.39 L 318.573,-132.536
 L 318.533,-132.688 L 318.508,-132.843 L 318.5,-133 L 318.508,-133.157 L 318.533,-133.312 L 318.573,-133.464
 L 318.63,-133.61 L 318.701,-133.75 L 318.786,-133.882 L 318.885,-134.004 L 318.996,-134.115 L 319.118,-134.214
 L 319.25,-134.299 L 319.39,-134.37 L 319.536,-134.427 L 319.688,-134.467 L 319.843,-134.492 L 320,-134.5
 L 320.157,-134.492 L 320.312,-134.467 L 320.464,-134.427 L 320.61,-134.37 L 320.75,-134.299 L 320.882,-134.214
 L 321.004,-134.115 L 321.115,-134.004 L 321.214,-133.882 L 321.299,-133.75 L 321.37,-133.61 L 321.427,-133.464
 L 321.467,-133.312 L 321.492,-133.157 L 321.5,-133 L 321.492,-132.843 L 321.467,-132.688 L 321.427,-132.536
 L 321.37,-132.39 L 321.299,-132.25 L 321.214,-132.118 L 321.115,-131.996 L 321.004,-131.885 L 320.882,-131.786
 L 320.75,-131.701 L 320.61,-131.63 L 320.464,-131.573 L 320.312,-131.533 L 320.157,-131.508 L 320,-131.5
 z
M 52,-82.9167 L 52,-103.925 L 33,-103.925 L 33,-89.6 L 7,-89.6 L 7,-120.6
 L 33,-120.6 L 33,-112.075 L 52,-112.075 L 52,-133.083 L 278,-133.083 L 278,-112.075
 L 290,-112.075 L 290,-103.925 L 278,-103.925 L 278,-82.9167 z
M 143.523,-100.027 L 144.04,-100.109 L 144.545,-100.245 L 145.034,-100.432 L 145.5,-100.67 L 145.939,-100.955
 L 146.346,-101.284 L 146.716,-101.654 L 147.045,-102.061 L 147.33,-102.5 L 147.568,-102.966 L 147.755,-103.455
 L 147.891,-103.96 L 147.973,-104.477 L 148,-105 L 147.973,-105.523 L 147.891,-106.04 L 147.755,-106.545
 L 147.568,-107.034 L 147.33,-107.5 L 147.045,-107.939 L 146.716,-108.346 L 146.346,-108.716 L 145.939,-109.045
 L 145.5,-109.33 L 145.034,-109.568 L 144.545,-109.755 L 144.04,-109.891 L 143.523,-109.973 L 143,-110
 L 142.477,-109.973 L 141.96,-109.891 L 141.455,-109.755 L 140.966,-109.568 L 140.5,-109.33 L 140.061,-109.045
 L 139.654,-108.716 L 139.284,-108.346 L 138.955,-107.939 L 138.67,-107.5 L 138.432,-107.034 L 138.245,-106.545
 L 138.109,-106.04 L 138.027,-105.523 L 138,-105 L 138.027,-104.477 L 138.109,-103.96 L 138.245,-103.455
 L 138.432,-102.966 L 138.67,-102.5 L 138.955,-102.061 L 139.284,-101.654 L 139.654,-101.284 L 140.061,-100.955
 L 140.5,-100.67 L 140.966,-100.432 L 141.455,-100.245 L 141.96,-100.109 L 142.477,-100.027 L 143,-100
 z
M 169.523,-100.027 L 170.04,-100.109 L 170.545,-100.245 L 171.034,-100.432 L 171.5,-100.67 L 171.939,-100.955
 L 172.346,-101.284 L 172.716,-101.654 L 173.045,-102.061 L 173.33,-102.5 L 173.568,-102.966 L 173.755,-103.455
 L 173.891,-103.96 L 173.973,-104.477 L 174,-105 L 173.973,-105.523 L 173.891,-106.04 L 173.755,-106.545
 L 173.568,-107.034 L 173.33,-107.5 L 173.045,-107.939 L 172.716,-108.346 L 172.346,-108.716 L 171.939,-109.045
 L 171.5,-109.33 L 171.034,-109.568 L 170.545,-109.755 L 170.04,-109.891 L 169.523,-109.973 L 169,-110
 L 168.477,-109.973 L 167.96,-109.891 L 167.455,-109.755 L 166.966,-109.568 L 166.5,-109.33 L 166.061,-109.045
 L 165.654,-108.716 L 165.284,-108.346 L 164.955,-107.939 L 164.67,-107.5 L 164.432,-107.034 L 164.245,-106.545
 L 164.109,-106.04 L 164.027,-105.523 L 164,-105 L 164.027,-104.477 L 164.109,-103.96 L 164.245,-103.455
 L 164.432,-102.966 L 164.67,-102.5 L 164.955,-102.061 L 165.284,-101.654 L 165.654,-101.284 L 166.061,-100.955
 L 166.5,-100.67 L 166.966,-100.432 L 167.455,-100.245 L 167.96,-100.109 L 168.477,-100.027 L 169,-100
 z
M 130.523,-100.027 L 131.04,-100.109 L 131.545,-100.245 L 132.034,-100.432 L 132.5,-100.67 L 132.939,-100.955
 L 133.346,-101.284 L 133.716,-101.654 L 134.045,-102.061 L 134.33,-102.5 L 134.568,-102.966 L 134.755,-103.455
 L 134.891,-103.96 L 134.973,-104.477 L 135,-105 L 134.973,-105.523 L 134.891,-106.04 L 134.755,-106.545
 L 134.568,-107.034 L 134.33,-107.5 L 134.045,-107.939 L 133.716,-108.346 L 133.346,-108.716 L 132.939,-109.045
 L 132.5,-109.33 L 132.034,-109.568 L 131.545,-109.755 L 131.04,-109.891 L 130.523,-109.973 L 130,-110
 L 129.477,-109.973 L 128.96,-109.891 L 128.455,-109.755 L 127.966,-109.568 L 127.5,-109.33 L 127.061,-109.045
 L 126.654,-108.716 L 126.284,-108.346 L 125.955,-107.939 L 125.67,-107.5 L 125.432,-107.034 L 125.245,-106.545
 L 125.109,-106.04 L 125.027,-105.523 L 125,-105 L 125.027,-104.477 L 125.109,-103.96 L 125.245,-103.455
 L 125.432,-102.966 L 125.67,-102.5 L 125.955,-102.061 L 126.284,-101.654 L 126.654,-101.284 L 127.061,-100.955
 L 127.5,-100.67 L 127.966,-100.432 L 128.455,-100.245 L 128.96,-100.109 L 129.477,-100.027 L 130,-100
 z
M 117.523,-100.027 L 118.04,-100.109 L 118.545,-100.245 L 119.034,-100.432 L 119.5,-100.67 L 119.939,-100.955
 L 120.346,-101.284 L 120.716,-101.654 L 121.045,-102.061 L 121.33,-102.5 L 121.568,-102.966 L 121.755,-103.455
 L 121.891,-103.96 L 121.973,-104.477 L 122,-105 L 121.973,-105.523 L 121.891,-106.04 L 121.755,-106.545
 L 121.568,-107.034 L 121.33,-107.5 L 121.045,-107.939 L 120.716,-108.346 L 120.346,-108.716 L 119.939,-109.045
 L 119.5,-109.33 L 119.034,-109.568 L 118.545,-109.755 L 118.04,-109.891 L 117.523,-109.973 L 117,-110
 L 116.477,-109.973 L 115.96,-109.891 L 115.455,-109.755 L 114.966,-109.568 L 114.5,-109.33 L 114.061,-109.045
 L 113.654,-108.716 L 113.284,-108.346 L 112.955,-107.939 L 112.67,-107.5 L 112.432,-107.034 L 112.245,-106.545
 L 112.109,-106.04 L 112.027,-105.523 L 112,-105 L 112.027,-104.477 L 112.109,-103.96 L 112.245,-103.455
 L 112.432,-102.966 L 112.67,-102.5 L 112.955,-102.061 L 113.284,-101.654 L 113.654,-101.284 L 114.061,-100.955
 L 114.5,-100.67 L 114.966,-100.432 L 115.455,-100.245 L 115.96,-100.109 L 116.477,-100.027 L 117,-100
 z
M 104.523,-100.027 L 105.04,-100.109 L 105.545,-100.245 L 106.034,-100.432 L 106.5,-100.67 L 106.939,-100.955
 L 107.346,-101.284 L 107.716,-101.654 L 108.045,-102.061 L 108.33,-102.5 L 108.568,-102.966 L 108.755,-103.455
 L 108.891,-103.96 L 108.973,-104.477 L 109,-105 L 108.973,-105.523 L 108.891,-106.04 L 108.755,-106.545
 L 108.568,-107.034 L 108.33,-107.5 L 108.045,-107.939 L 107.716,-108.346 L 107.346,-108.716 L 106.939,-109.045
 L 106.5,-109.33 L 106.034,-109.568 L 105.545,-109.755 L 105.04,-109.891 L 104.523,-109.973 L 104,-110
 L 103.477,-109.973 L 102.96,-109.891 L 102.455,-109.755 L 101.966,-109.568 L 101.5,-109.33 L 101.061,-109.045
 L 100.654,-108.716 L 100.284,-108.346 L 99.9549,-107.939 L 99.6699,-107.5 L 99.4323,-107.034 L 99.2447,-106.545
 L 99.1093,-106.04 L 99.0274,-105.523 L 99,-105 L 99.0274,-104.477 L 99.1093,-103.96 L 99.2447,-103.455
 L 99.4323,-102.966 L 99.6699,-102.5 L 99.9549,-102.061 L 100.284,-101.654 L 100.654,-101.284 L 101.061,-100.955
 L 101.5,-100.67 L 101.966,-100.432 L 102.455,-100.245 L 102.96,-100.109 L 103.477,-100.027 L 104,-100
 z
M 156.523,-100.027 L 157.04,-100.109 L 157.545,-100.245 L 158.034,-100.432 L 158.5,-100.67 L 158.939,-100.955
 L 159.346,-101.284 L 159.716,-101.654 L 160.045,-102.061 L 160.33,-102.5 L 160.568,-102.966 L 160.755,-103.455
 L 160.891,-103.96 L 160.973,-104.477 L 161,-105 L 160.973,-105.523 L 160.891,-106.04 L 160.755,-106.545
 L 160.568,-107.034 L 160.33,-107.5 L 160.045,-107.939 L 159.716,-108.346 L 159.346,-108.716 L 158.939,-109.045
 L 158.5,-109.33 L 158.034,-109.568 L 157.545,-109.755 L 157.04,-109.891 L 156.523,-109.973 L 156,-110
 L 155.477,-109.973 L 154.96,-109.891 L 154.455,-109.755 L 153.966,-109.568 L 153.5,-109.33 L 153.061,-109.045
 L 152.654,-108.716 L 152.284,-108.346 L 151.955,-107.939 L 151.67,-107.5 L 151.432,-107.034 L 151.245,-106.545
 L 151.109,-106.04 L 151.027,-105.523 L 151,-105 L 151.027,-104.477 L 151.109,-103.96 L 151.245,-103.455
 L 151.432,-102.966 L 151.67,-102.5 L 151.955,-102.061 L 152.284,-101.654 L 152.654,-101.284 L 153.061,-100.955
 L 153.5,-100.67 L 153.966,-100.432 L 154.455,-100.245 L 154.96,-100.109 L 155.477,-100.027 L 156,-100
 z
M 91.5226,-100.027 L 92.0396,-100.109 L 92.5451,-100.245 L 93.0337,-100.432 L 93.5,-100.67 L 93.9389,-100.955
 L 94.3456,-101.284 L 94.7157,-101.654 L 95.0451,-102.061 L 95.3301,-102.5 L 95.5677,-102.966 L 95.7553,-103.455
 L 95.8907,-103.96 L 95.9726,-104.477 L 96,-105 L 95.9726,-105.523 L 95.8907,-106.04 L 95.7553,-106.545
 L 95.5677,-107.034 L 95.3301,-107.5 L 95.0451,-107.939 L 94.7157,-108.346 L 94.3456,-108.716 L 93.9389,-109.045
 L 93.5,-109.33 L 93.0337,-109.568 L 92.5451,-109.755 L 92.0396,-109.891 L 91.5226,-109.973 L 91,-110
 L 90.4774,-109.973 L 89.9604,-109.891 L 89.4549,-109.755 L 88.9663,-109.568 L 88.5,-109.33 L 88.0611,-109.045
 L 87.6543,-108.716 L 87.2843,-108.346 L 86.9549,-107.939 L 86.6699,-107.5 L 86.4323,-107.034 L 86.2447,-106.545
 L 86.1093,-106.04 L 86.0274,-105.523 L 86,-105 L 86.0274,-104.477 L 86.1093,-103.96 L 86.2447,-103.455
 L 86.4323,-102.966 L 86.6699,-102.5 L 86.9549,-102.061 L 87.2843,-101.654 L 87.6543,-101.284 L 88.0611,-100.955
 L 88.5,-100.67 L 88.9663,-100.432 L 89.4549,-100.245 L 89.9604,-100.109 L 90.4774,-100.027 L 91,-100
 z
M 78.5226,-100.027 L 79.0396,-100.109 L 79.5451,-100.245 L 80.0337,-100.432 L 80.5,-100.67 L 80.9389,-100.955
 L 81.3456,-101.284 L 81.7157,-101.654 L 82.0451,-102.061 L 82.3301,-102.5 L 82.5677,-102.966 L 82.7553,-103.455
 L 82.8907,-103.96 L 82.9726,-104.477 L 83,-105 L 82.9726,-105.523 L 82.8907,-106.04 L 82.7553,-106.545
 L 82.5677,-107.034 L 82.3301,-107.5 L 82.0451,-107.939 L 81.7157,-108.346 L 81.3456,-108.716 L 80.9389,-109.045
 L 80.5,-109.33 L 80.0337,-109.568 L 79.5451,-109.755 L 79.0396,-109.891 L 78.5226,-109.973 L 78,-110
 L 77.4774,-109.973 L 76.9604,-109.891 L 76.4549,-109.755 L 75.9663,-109.568 L 75.5,-109.33 L 75.0611,-109.045
 L 74.6543,-108.716 L 74.2843,-108.346 L 73.9549,-107.939 L 73.6699,-107.5 L 73.4323,-107.034 L 73.2447,-106.545
 L 73.1093,-106.04 L 73.0274,-105.523 L 73,-105 L 73.0274,-104.477 L 73.1093,-103.96 L 73.2447,-103.455
 L 73.4323,-102.966 L 73.6699,-102.5 L 73.9549,-102.061 L 74.2843,-101.654 L 74.6543,-101.284 L 75.0611,-100.955
 L 75.5,-100.67 L 75.9663,-100.432 L 76.4549,-100.245 L 76.9604,-100.109 L 77.4774,-100.027 L 78,-100
 z
M 65.5226,-100.027 L 66.0396,-100.109 L 66.5451,-100.245 L 67.0337,-100.432 L 67.5,-100.67 L 67.9389,-100.955
 L 68.3456,-101.284 L 68.7157,-101.654 L 69.0451,-102.061 L 69.3301,-102.5 L 69.5677,-102.966 L 69.7553,-103.455
 L 69.8907,-103.96 L 69.9726,-104.477 L 70,-105 L 69.9726,-105.523 L 69.8907,-106.04 L 69.7553,-106.545
 L 69.5677,-107.034 L 69.3301,-107.5 L 69.0451,-107.939 L 68.7157,-108.346 L 68.3456,-108.716 L 67.9389,-109.045
 L 67.5,-109.33 L 67.0337,-109.568 L 66.5451,-109.755 L 66.0396,-109.891 L 65.5226,-109.973 L 65,-110
 L 64.4774,-109.973 L 63.9604,-109.891 L 63.4549,-109.755 L 62.9663,-109.568 L 62.5,-109.33 L 62.0611,-109.045
 L 61.6543,-108.716 L 61.2843,-108.346 L 60.9549,-107.939 L 60.6699,-107.5 L 60.4323,-107.034 L 60.2447,-106.545
 L 60.1093,-106.04 L 60.0274,-105.523 L 60,-105 L 60.0274,-104.477 L 60.1093,-103.96 L 60.2447,-103.455
 L 60.4323,-102.966 L 60.6699,-102.5 L 60.9549,-102.061 L 61.2843,-101.654 L 61.6543,-101.284 L 62.0611,-100.955
 L 62.5,-100.67 L 62.9663,-100.432 L 63.4549,-100.245 L 63.9604,-100.109 L 64.4774,-100.027 L 65,-100
 z
M 319.843,-81.5082 L 319.688,-81.5328 L 319.536,-81.5734 L 319.39,-81.6297 L 319.25,-81.701 L 319.118,-81.7865
 L 318.996,-81.8853 L 318.885,-81.9963 L 318.786,-82.1183 L 318.701,-82.25 L 318.63,-82.3899 L 318.573,-82.5365
 L 318.533,-82.6881 L 318.508,-82.8432 L 318.5,-83 L 318.508,-83.1568 L 318.533,-83.3119 L 318.573,-83.4635
 L 318.63,-83.6101 L 318.701,-83.75 L 318.786,-83.8817 L 318.885,-84.0037 L 318.996,-84.1147 L 319.118,-84.2135
 L 319.25,-84.299 L 319.39,-84.3703 L 319.536,-84.4266 L 319.688,-84.4672 L 319.843,-84.4918 L 320,-84.5
 L 320.157,-84.4918 L 320.312,-84.4672 L 320.464,-84.4266 L 320.61,-84.3703 L 320.75,-84.299 L 320.882,-84.2135
 L 321.004,-84.1147 L 321.115,-84.0037 L 321.214,-83.8817 L 321.299,-83.75 L 321.37,-83.6101 L 321.427,-83.4635
 L 321.467,-83.3119 L 321.492,-83.1568 L 321.5,-83 L 321.492,-82.8432 L 321.467,-82.6881 L 321.427,-82.5365
 L 321.37,-82.3899 L 321.299,-82.25 L 321.214,-82.1183 L 321.115,-81.9963 L 321.004,-81.8853 L 320.882,-81.7865
 L 320.75,-81.701 L 320.61,-81.6297 L 320.464,-81.5734 L 320.312,-81.5328 L 320.157,-81.5082 L 320,-81.5
 z
M 9.8432,-81.5082 L 9.68813,-81.5328 L 9.53647,-81.5734 L 9.38989,-81.6297 L 9.25,-81.701 L 9.11832,-81.7865
 L 8.99629,-81.8853 L 8.88527,-81.9963 L 8.78647,-82.1183 L 8.70096,-82.25 L 8.62967,-82.3899 L 8.57341,-82.5365
 L 8.53278,-82.6881 L 8.50821,-82.8432 L 8.5,-83 L 8.50821,-83.1568 L 8.53278,-83.3119 L 8.57341,-83.4635
 L 8.62967,-83.6101 L 8.70096,-83.75 L 8.78647,-83.8817 L 8.88527,-84.0037 L 8.99629,-84.1147 L 9.11832,-84.2135
 L 9.25,-84.299 L 9.38989,-84.3703 L 9.53647,-84.4266 L 9.68813,-84.4672 L 9.8432,-84.4918 L 10,-84.5
 L 10.1568,-84.4918 L 10.3119,-84.4672 L 10.4635,-84.4266 L 10.6101,-84.3703 L 10.75,-84.299 L 10.8817,-84.2135
 L 11.0037,-84.1147 L 11.1147,-84.0037 L 11.2135,-83.8817 L 11.299,-83.75 L 11.3703,-83.6101 L 11.4266,-83.4635
 L 11.4672,-83.3119 L 11.4918,-83.1568 L 11.5,-83 L 11.4918,-82.8432 L 11.4672,-82.6881 L 11.4266,-82.5365
 L 11.3703,-82.3899 L 11.299,-82.25 L 11.2135,-82.1183 L 11.1147,-81.9963 L 11.0037,-81.8853 L 10.8817,-81.7865
 L 10.75,-81.701 L 10.6101,-81.6297 L 10.4635,-81.5734 L 10.3119,-81.5328 L 10.1568,-81.5082 L 10,-81.5
 z
M 321.995,-0.000259399 L 322,-0 L 322.836,-0.0438385 L 323.663,-0.17482 L 324.472,-0.391556 L 325.254,-0.69165
 L 326,-1.07181 L 326.702,-1.52788 L 327.353,-2.05486 L 327.945,-2.64696 L 328.472,-3.29773 L 328.928,-4
 L 329.308,-4.74609 L 329.608,-5.52786 L 329.825,-6.3367 L 329.956,-7.16376 L 330,-8 L 330,-8.00499
 L 330,-8.00499 L 330,-61.995 L 330,-61.995 L 330,-62 L 329.956,-62.8362 L 329.825,-63.6633
 L 329.608,-64.4721 L 329.308,-65.2539 L 328.928,-66 L 328.472,-66.7023 L 327.945,-67.353 L 327.353,-67.9451
 L 326.702,-68.4721 L 326,-68.9282 L 325.254,-69.3083 L 324.472,-69.6084 L 323.663,-69.8252 L 322.836,-69.9562
 L 322,-70 L 321.995,-69.9997 L 321.995,-70 L 8.00499,-70 L 8.00499,-69.9997 L 8,-70
 L 7.16376,-69.9562 L 6.3367,-69.8252 L 5.52786,-69.6084 L 4.74609,-69.3083 L 4,-68.9282 L 3.29773,-68.4721
 L 2.64696,-67.9451 L 2.05486,-67.353 L 1.52788,-66.7023 L 1.07181,-66 L 0.69165,-65.2539 L 0.391556,-64.4721
 L 0.17482,-63.6633 L 0.0438385,-62.8362 L 0,-62 L 0.000259399,-61.995 L 0,-61.995 L 0,-8.00499
 L 0.000259399,-8.00499 L 0,-8 L 0.0438385,-7.16376 L 0.17482,-6.3367 L 0.391556,-5.52786 L 0.69165,-4.74609
 L 1.07181,-4 L 1.52788,-3.29773 L 2.05486,-2.64696 L 2.64696,-2.05486 L 3.29773,-1.52788 L 4,-1.07181
 L 4.74609,-0.69165 L 5.52786,-0.391556 L 6.3367,-0.17482 L 7.16376,-0.0438385 L 8,-0 L 8.00499,-0.000259399
 L 8.00499,-0 L 321.995,-0 z
M 40,-30.925 L 40,-39.075 L 290,-39.075 L 290,-30.925 z
M 23.6603,-31.7678 L 23.3243,-31.821 L 22.9957,-31.9091 L 22.6781,-32.031 L 22.375,-32.1854 L 22.0897,-32.3707
 L 21.8253,-32.5848 L 21.5848,-32.8253 L 21.3707,-33.0897 L 21.1854,-33.375 L 21.031,-33.6781 L 20.9091,-33.9957
 L 20.821,-34.3243 L 20.7678,-34.6603 L 20.75,-35 L 20.7678,-35.3397 L 20.821,-35.6757 L 20.9091,-36.0043
 L 21.031,-36.3219 L 21.1854,-36.625 L 21.3707,-36.9103 L 21.5848,-37.1747 L 21.8253,-37.4152 L 22.0897,-37.6293
 L 22.375,-37.8146 L 22.6781,-37.969 L 22.9957,-38.0909 L 23.3243,-38.179 L 23.6603,-38.2322 L 24,-38.25
 L 24.3397,-38.2322 L 24.6757,-38.179 L 25.0043,-38.0909 L 25.3219,-37.969 L 25.625,-37.8146 L 25.9103,-37.6293
 L 26.1747,-37.4152 L 26.4152,-37.1747 L 26.6293,-36.9103 L 26.8146,-36.625 L 26.969,-36.3219 L 27.0909,-36.0043
 L 27.179,-35.6757 L 27.2322,-35.3397 L 27.25,-35 L 27.2322,-34.6603 L 27.179,-34.3243 L 27.0909,-33.9957
 L 26.969,-33.6781 L 26.8146,-33.375 L 26.6293,-33.0897 L 26.4152,-32.8253 L 26.1747,-32.5848 L 25.9103,-32.3707
 L 25.625,-32.1854 L 25.3219,-32.031 L 25.0043,-31.9091 L 24.6757,-31.821 L 24.3397,-31.7678 L 24,-31.75
 z
" stroke="black" fill="lightgray" stroke-width="0.5"/>
</svg>
