<?xml version="1.0" standalone="no"?>
<!DOCTYPE svg PUBLIC "-//W3C//DTD SVG 1.1//EN" "http://www.w3.org/Graphics/SVG/1.1/DTD/svg11.dtd">
<svg width="330mm" height="362mm" viewBox="0 -362 330 362" xmlns="http://www.w3.org/2000/svg" version="1.1">
<title>OpenSCAD Model</title>
<path d="
M 321.995,-292 L 322,-292 L 322.836,-292.044 L 323.663,-292.175 L 324.472,-292.392 L 325.254,-292.692
 L 326,-293.072 L 326.702,-293.528 L 327.353,-294.055 L 327.945,-294.647 L 328.472,-295.298 L 328.928,-296
 L 329.308,-296.746 L 329.608,-297.528 L 329.825,-298.337 L 329.956,-299.164 L 330,-300 L 330,-300.005
 L 330,-300.005 L 330,-353.995 L 330,-353.995 L 330,-354 L 329.956,-354.836 L 329.825,-355.663
 L 329.608,-356.472 L 329.308,-357.254 L 328.928,-358 L 328.472,-358.702 L 327.945,-359.353 L 327.353,-359.945
 L 326.702,-360.472 L 326,-360.928 L 325.254,-361.308 L 324.472,-361.608 L 323.663,-361.825 L 322.836,-361.956
 L 322,-362 L 321.995,-362 L 321.995,-362 L 8.00499,-362 L 8.00499,-362 L 8,-362
 L 7.16376,-361.956 L 6.3367,-361.825 L 5.52786,-361.608 L 4.74609,-361.308 L 4,-360.928 L 3.29773,-360.472
 L 2.64696,-359.945 L 2.05486,-359.353 L 1.52788,-358.702 L 1.07181,-358 L 0.69165,-357.254 L 0.391556,-356.472
 L 0.17482,-355.663 L 0.0438385,-354.836 L 0,-354 L 0.000259399,-353.995 L 0,-353.995 L 0,-300.005
 L 0.000259399,-300.005 L 0,-300 L 0.0438385,-299.164 L 0.17482,-298.337 L 0.391556,-297.528 L 0.69165,-296.746
 L 1.07181,-296 L 1.52788,-295.298 L 2.05486,-294.647 L 2.64696,-294.055 L 3.29773,-293.528 L 4,-293.072
 L 4.74609,-292.692 L 5.52786,-292.392 L 6.3367,-292.175 L 7.16376,-292.044 L 8,-292 L 8.00499,-292
 L 8.00499,-292 L 321.995,-292 z
M 317.739,-352.514 L 317.48,-352.555 L 317.227,-352.622 L 316.983,-352.716 L 316.75,-352.835 L 316.531,-352.977
 L 316.327,-353.142 L 316.142,-353.327 L 315.977,-353.531 L 315.835,-353.75 L 315.716,-353.983 L 315.622,-354.227
 L 315.555,-354.48 L 315.514,-354.739 L 315.5,-355 L 315.514,-355.261 L 315.555,-355.52 L 315.622,-355.773
 L 315.716,-356.017 L 315.835,-356.25 L 315.977,-356.469 L 316.142,-356.673 L 316.327,-356.858 L 316.531,-357.023
 L 316.75,-357.165 L 316.983,-357.284 L 317.227,-357.378 L 317.48,-357.445 L 317.739,-357.486 L 318,-357.5
 L 318.261,-357.486 L 318.52,-357.445 L 318.773,-357.378 L 319.017,-357.284 L 319.25,-357.165 L 319.469,-357.023
 L 319.673,-356.858 L 319.858,-356.673 L 320.023,-356.469 L 320.165,-356.25 L 320.284,-356.017 L 320.378,-355.773
 L 320.445,-355.52 L 320.486,-355.261 L 320.5,-355 L 320.486,-354.739 L 320.445,-354.48 L 320.378,-354.227
 L 320.284,-353.983 L 320.165,-353.75 L 320.023,-353.531 L 319.858,-353.327 L 319.673,-353.142 L 319.469,-352.977
 L 319.25,-352.835 L 319.017,-352.716 L 318.773,-352.622 L 318.52,-352.555 L 318.261,-352.514 L 318,-352.5
 z
M 11.7387,-352.514 L 11.4802,-352.555 L 11.2274,-352.622 L 10.9832,-352.716 L 10.75,-352.835 L 10.5305,-352.977
 L 10.3272,-353.142 L 10.1421,-353.327 L 9.97745,-353.531 L 9.83493,-353.75 L 9.71613,-353.983 L 9.62234,-354.227
 L 9.55463,-354.48 L 9.51369,-354.739 L 9.5,-355 L 9.51369,-355.261 L 9.55463,-355.52 L 9.62234,-355.773
 L 9.71613,-356.017 L 9.83493,-356.25 L 9.97745,-356.469 L 10.1421,-356.673 L 10.3272,-356.858 L 10.5305,-357.023
 L 10.75,-357.165 L 10.9832,-357.284 L 11.2274,-357.378 L 11.4802,-357.445 L 11.7387,-357.486 L 12,-357.5
 L 12.2613,-357.486 L 12.5198,-357.445 L 12.7725,-357.378 L 13.0168,-357.284 L 13.25,-357.165 L 13.4695,-357.023
 L 13.6728,-356.858 L 13.8578,-356.673 L 14.0225,-356.469 L 14.1651,-356.25 L 14.2839,-356.017 L 14.3776,-355.773
 L 14.4454,-355.52 L 14.4863,-355.261 L 14.5,-355 L 14.4863,-354.739 L 14.4454,-354.48 L 14.3776,-354.227
 L 14.2839,-353.983 L 14.1651,-353.75 L 14.0225,-353.531 L 13.8578,-353.327 L 13.6728,-353.142 L 13.4695,-352.977
 L 13.25,-352.835 L 13.0168,-352.716 L 12.7725,-352.622 L 12.5198,-352.555 L 12.2613,-352.514 L 12,-352.5
 z
M 244.96,-332.25 L 246.46,-354 L 249.46,-354 L 250.96,-332.25 z
M 166.88,-332.25 L 168.38,-354 L 171.38,-354 L 172.88,-332.25 z
M 157.12,-332.25 L 158.62,-354 L 161.62,-354 L 163.12,-332.25 z
M 176.64,-332.25 L 178.14,-354 L 181.14,-354 L 182.64,-332.25 z
M 274.24,-332.25 L 275.74,-354 L 278.74,-354 L 280.24,-332.25 z
M 264.48,-332.25 L 265.98,-354 L 268.98,-354 L 270.48,-332.25 z
M 254.72,-332.25 L 256.22,-354 L 259.22,-354 L 260.72,-332.25 z
M 235.2,-332.25 L 236.7,-354 L 239.7,-354 L 241.2,-332.25 z
M 225.44,-332.25 L 226.94,-354 L 229.94,-354 L 231.44,-332.25 z
M 215.68,-332.25 L 217.18,-354 L 220.18,-354 L 221.68,-332.25 z
M 205.92,-332.25 L 207.42,-354 L 210.42,-354 L 211.92,-332.25 z
M 196.16,-332.25 L 197.66,-354 L 200.66,-354 L 202.16,-332.25 z
M 186.4,-332.25 L 187.9,-354 L 190.9,-354 L 192.4,-332.25 z
M 284,-332.25 L 285.5,-354 L 288.5,-354 L 290,-332.25 z
M 41.5,-299.99 L 41.2236,-304 L 40,-304 L 40,-319.5 L 26,-319.5 L 26,-334.5
 L 40,-334.5 L 40,-350 L 41.2241,-350 L 41.5,-354 L 44.5,-354 L 44.7759,-350
 L 50.9841,-350 L 51.26,-354 L 54.26,-354 L 54.5359,-350 L 60.7441,-350 L 61.02,-354
 L 64.02,-354 L 64.2959,-350 L 70.5041,-350 L 70.78,-354 L 73.78,-354 L 74.0559,-350
 L 80.2641,-350 L 80.54,-354 L 83.54,-354 L 83.8159,-350 L 90.0241,-350 L 90.3,-354
 L 93.3,-354 L 93.5759,-350 L 99.7841,-350 L 100.06,-354 L 103.06,-354 L 103.336,-350
 L 109.544,-350 L 109.82,-354 L 112.82,-354 L 113.096,-350 L 119.304,-350 L 119.58,-354
 L 122.58,-354 L 122.856,-350 L 129.064,-350 L 129.34,-354 L 132.34,-354 L 132.616,-350
 L 138.824,-350 L 139.1,-354 L 142.1,-354 L 143.445,-334.5 L 147.515,-334.5 L 148.86,-354
 L 151.86,-354 L 153.36,-332.25 L 153,-332.25 L 153,-321.75 L 153.36,-321.75 L 151.86,-299.99
 L 148.86,-299.99 L 147.515,-319.5 L 143.445,-319.5 L 142.1,-299.99 L 139.1,-299.99 L 138.824,-304
 L 132.616,-304 L 132.34,-299.99 L 129.34,-299.99 L 129.064,-304 L 122.856,-304 L 122.58,-299.99
 L 119.58,-299.99 L 119.304,-304 L 113.096,-304 L 112.82,-299.99 L 109.82,-299.99 L 109.544,-304
 L 103.336,-304 L 103.06,-299.99 L 100.06,-299.99 L 99.7836,-304 L 93.5764,-304 L 93.3,-299.99
 L 90.3,-299.99 L 90.0236,-304 L 83.8164,-304 L 83.54,-299.99 L 80.54,-299.99 L 80.2636,-304
 L 74.0564,-304 L 73.78,-299.99 L 70.78,-299.99 L 70.5036,-304 L 64.2964,-304 L 64.02,-299.99
 L 61.02,-299.99 L 60.7436,-304 L 54.5364,-304 L 54.26,-299.99 L 51.26,-299.99 L 50.9836,-304
 L 44.7764,-304 L 44.5,-299.99 z
M 207.42,-299.99 L 205.92,-321.75 L 211.92,-321.75 L 210.42,-299.99 z
M 187.9,-299.99 L 186.4,-321.75 L 192.4,-321.75 L 190.9,-299.99 z
M 197.66,-299.99 L 196.16,-321.75 L 202.16,-321.75 L 200.66,-299.99 z
M 285.5,-299.99 L 284,-321.75 L 290,-321.75 L 288.5,-299.99 z
M 275.74,-299.99 L 274.24,-321.75 L 280.24,-321.75 L 278.74,-299.99 z
M 265.98,-299.99 L 264.48,-321.75 L 270.48,-321.75 L 268.98,-299.99 z
M 256.22,-299.99 L 254.72,-321.75 L 260.72,-321.75 L 259.22,-299.99 z
M 246.46,-299.99 L 244.96,-321.75 L 250.96,-321.75 L 249.46,-299.99 z
M 236.7,-299.99 L 235.2,-321.75 L 241.2,-321.75 L 239.7,-299.99 z
M 226.94,-299.99 L 225.44,-321.75 L 231.44,-321.75 L 229.94,-299.99 z
M 217.18,-299.99 L 215.68,-321.75 L 221.68,-321.75 L 220.18,-299.99 z
M 168.38,-299.99 L 166.88,-321.75 L 172.88,-321.75 L 171.38,-299.99 z
M 178.14,-299.99 L 176.64,-321.75 L 182.64,-321.75 L 181.14,-299.99 z
M 158.62,-299.99 L 157.12,-321.75 L 163.12,-321.75 L 161.62,-299.99 z
M 317.739,-296.514 L 317.48,-296.555 L 317.227,-296.622 L 316.983,-296.716 L 316.75,-296.835 L 316.531,-296.977
 L 316.327,-297.142 L 316.142,-297.327 L 315.977,-297.531 L 315.835,-297.75 L 315.716,-297.983 L 315.622,-298.227
 L 315.555,-298.48 L 315.514,-298.739 L 315.5,-299 L 315.514,-299.261 L 315.555,-299.52 L 315.622,-299.773
 L 315.716,-300.017 L 315.835,-300.25 L 315.977,-300.469 L 316.142,-300.673 L 316.327,-300.858 L 316.531,-301.023
 L 316.75,-301.165 L 316.983,-301.284 L 317.227,-301.378 L 317.48,-301.445 L 317.739,-301.486 L 318,-301.5
 L 318.261,-301.486 L 318.52,-301.445 L 318.773,-301.378 L 319.017,-301.284 L 319.25,-301.165 L 319.469,-301.023
 L 319.673,-300.858 L 319.858,-300.673 L 320.023,-300.469 L 320.165,-300.25 L 320.284,-300.017 L 320.378,-299.773
 L 320.445,-299.52 L 320.486,-299.261 L 320.5,-299 L 320.486,-298.739 L 320.445,-298.48 L 320.378,-298.227
 L 320.284,-297.983 L 320.165,-297.75 L 320.023,-297.531 L 319.858,-297.327 L 319.673,-297.142 L 319.469,-296.977
 L 319.25,-296.835 L 319.017,-296.716 L 318.773,-296.622 L 318.52,-296.555 L 318.261,-296.514 L 318,-296.5
 z
M 11.7387,-296.514 L 11.4802,-296.555 L 11.2274,-296.622 L 10.9832,-296.716 L 10.75,-296.835 L 10.5305,-296.977
 L 10.3272,-297.142 L 10.1421,-297.327 L 9.97745,-297.531 L 9.83493,-297.75 L 9.71613,-297.983 L 9.62234,-298.227
 L 9.55463,-298.48 L 9.51369,-298.739 L 9.5,-299 L 9.51369,-299.261 L 9.55463,-299.52 L 9.62234,-299.773
 L 9.71613,-300.017 L 9.83493,-300.25 L 9.97745,-300.469 L 10.1421,-300.673 L 10.3272,-300.858 L 10.5305,-301.023
 L 10.75,-301.165 L 10.9832,-301.284 L 11.2274,-301.378 L 11.4802,-301.445 L 11.7387,-301.486 L 12,-301.5
 L 12.2613,-301.486 L 12.5198,-301.445 L 12.7725,-301.378 L 13.0168,-301.284 L 13.25,-301.165 L 13.4695,-301.023
 L 13.6728,-300.858 L 13.8578,-300.673 L 14.0225,-300.469 L 14.1651,-300.25 L 14.2839,-300.017 L 14.3776,-299.773
 L 14.4454,-299.52 L 14.4863,-299.261 L 14.5,-299 L 14.4863,-298.739 L 14.4454,-298.48 L 14.3776,-298.227
 L 14.2839,-297.983 L 14.1651,-297.75 L 14.0225,-297.531 L 13.8578,-297.327 L 13.6728,-297.142 L 13.4695,-296.977
 L 13.25,-296.835 L 13.0168,-296.716 L 12.7725,-296.622 L 12.5198,-296.555 L 12.2613,-296.514 L 12,-296.5
 z
M 321.995,-219 L 322,-219 L 322.836,-219.044 L 323.663,-219.175 L 324.472,-219.392 L 325.254,-219.692
 L 326,-220.072 L 326.702,-220.528 L 327.353,-221.055 L 327.945,-221.647 L 328.472,-222.298 L 328.928,-223
 L 329.308,-223.746 L 329.608,-224.528 L 329.825,-225.337 L 329.956,-226.164 L 330,-227 L 330,-227.005
 L 330,-227.005 L 330,-280.995 L 330,-280.995 L 330,-281 L 329.956,-281.836 L 329.825,-282.663
 L 329.608,-283.472 L 329.308,-284.254 L 328.928,-285 L 328.472,-285.702 L 327.945,-286.353 L 327.353,-286.945
 L 326.702,-287.472 L 326,-287.928 L 325.254,-288.308 L 324.472,-288.608 L 323.663,-288.825 L 322.836,-288.956
 L 322,-289 L 321.995,-289 L 321.995,-289 L 8.00499,-289 L 8.00499,-289 L 8,-289
 L 7.16376,-288.956 L 6.3367,-288.825 L 5.52786,-288.608 L 4.74609,-288.308 L 4,-287.928 L 3.29773,-287.472
 L 2.64696,-286.945 L 2.05486,-286.353 L 1.52788,-285.702 L 1.07181,-285 L 0.69165,-284.254 L 0.391556,-283.472
 L 0.17482,-282.663 L 0.0438385,-281.836 L 0,-281 L 0.000259399,-280.995 L 0,-280.995 L 0,-227.005
 L 0.000259399,-227.005 L 0,-227 L 0.0438385,-226.164 L 0.17482,-225.337 L 0.391556,-224.528 L 0.69165,-223.746
 L 1.07181,-223 L 1.52788,-222.298 L 2.05486,-221.647 L 2.64696,-221.055 L 3.29773,-220.528 L 4,-220.072
 L 4.74609,-219.692 L 5.52786,-219.392 L 6.3367,-219.175 L 7.16376,-219.044 L 8,-219 L 8.00499,-219
 L 8.00499,-219 L 321.995,-219 z
M 11.7387,-279.514 L 11.4802,-279.555 L 11.2274,-279.622 L 10.9832,-279.716 L 10.75,-279.835 L 10.5305,-279.977
 L 10.3272,-280.142 L 10.1421,-280.327 L 9.97745,-280.531 L 9.83493,-280.75 L 9.71613,-280.983 L 9.62234,-281.227
 L 9.55463,-281.48 L 9.51369,-281.739 L 9.5,-282 L 9.51369,-282.261 L 9.55463,-282.52 L 9.62234,-282.773
 L 9.71613,-283.017 L 9.83493,-283.25 L 9.97745,-283.469 L 10.1421,-283.673 L 10.3272,-283.858 L 10.5305,-284.023
 L 10.75,-284.165 L 10.9832,-284.284 L 11.2274,-284.378 L 11.4802,-284.445 L 11.7387,-284.486 L 12,-284.5
 L 12.2613,-284.486 L 12.5198,-284.445 L 12.7725,-284.378 L 13.0168,-284.284 L 13.25,-284.165 L 13.4695,-284.023
 L 13.6728,-283.858 L 13.8578,-283.673 L 14.0225,-283.469 L 14.1651,-283.25 L 14.2839,-283.017 L 14.3776,-282.773
 L 14.4454,-282.52 L 14.4863,-282.261 L 14.5,-282 L 14.4863,-281.739 L 14.4454,-281.48 L 14.3776,-281.227
 L 14.2839,-280.983 L 14.1651,-280.75 L 14.0225,-280.531 L 13.8578,-280.327 L 13.6728,-280.142 L 13.4695,-279.977
 L 13.25,-279.835 L 13.0168,-279.716 L 12.7725,-279.622 L 12.5198,-279.555 L 12.2613,-279.514 L 12,-279.5
 z
M 317.739,-279.514 L 317.48,-279.555 L 317.227,-279.622 L 316.983,-279.716 L 316.75,-279.835 L 316.531,-279.977
 L 316.327,-280.142 L 316.142,-280.327 L 315.977,-280.531 L 315.835,-280.75 L 315.716,-280.983 L 315.622,-281.227
 L 315.555,-281.48 L 315.514,-281.739 L 315.5,-282 L 315.514,-282.261 L 315.555,-282.52 L 315.622,-282.773
 L 315.716,-283.017 L 315.835,-283.25 L 315.977,-283.469 L 316.142,-283.673 L 316.327,-283.858 L 316.531,-284.023
 L 316.75,-284.165 L 316.983,-284.284 L 317.227,-284.378 L 317.48,-284.445 L 317.739,-284.486 L 318,-284.5
 L 318.261,-284.486 L 318.52,-284.445 L 318.773,-284.378 L 319.017,-284.284 L 319.25,-284.165 L 319.469,-284.023
 L 319.673,-283.858 L 319.858,-283.673 L 320.023,-283.469 L 320.165,-283.25 L 320.284,-283.017 L 320.378,-282.773
 L 320.445,-282.52 L 320.486,-282.261 L 320.5,-282 L 320.486,-281.739 L 320.445,-281.48 L 320.378,-281.227
 L 320.284,-280.983 L 320.165,-280.75 L 320.023,-280.531 L 319.858,-280.327 L 319.673,-280.142 L 319.469,-279.977
 L 319.25,-279.835 L 319.017,-279.716 L 318.773,-279.622 L 318.52,-279.555 L 318.261,-279.514 L 318,-279.5
 z
M 41.5,-226.99 L 41.2236,-231 L 40,-231 L 40,-246.5 L 33.5,-246.5 L 33.5,-235.6
 L 21.5,-235.6 L 21.5,-230.6 L 6.5,-230.6 L 6.5,-274.6 L 21.5,-274.6 L 21.5,-267.6
 L 33.5,-267.6 L 33.5,-261.5 L 40,-261.5 L 40,-277 L 41.2241,-277 L 41.5,-281
 L 44.5,-281 L 44.7759,-277 L 50.9841,-277 L 51.26,-281 L 54.26,-281 L 54.5359,-277
 L 60.7441,-277 L 61.02,-281 L 64.02,-281 L 64.2959,-277 L 70.5041,-277 L 70.78,-281
 L 73.78,-281 L 74.0559,-277 L 80.2641,-277 L 80.54,-281 L 83.54,-281 L 83.8159,-277
 L 90.0241,-277 L 90.3,-281 L 93.3,-281 L 93.5759,-277 L 99.7841,-277 L 100.06,-281
 L 103.06,-281 L 103.336,-277 L 109.544,-277 L 109.82,-281 L 112.82,-281 L 113.096,-277
 L 119.304,-277 L 119.58,-281 L 122.58,-281 L 122.856,-277 L 129.064,-277 L 129.34,-281
 L 132.34,-281 L 132.616,-277 L 138.824,-277 L 139.1,-281 L 142.1,-281 L 143.445,-261.5
 L 147.515,-261.5 L 148.86,-281 L 151.86,-281 L 153.36,-259.25 L 153,-259.25 L 153,-248.75
 L 153.36,-248.75 L 151.86,-226.99 L 148.86,-226.99 L 147.515,-246.5 L 143.445,-246.5 L 142.1,-226.99
 L 139.1,-226.99 L 138.824,-231 L 132.616,-231 L 132.34,-226.99 L 129.34,-226.99 L 129.064,-231
 L 122.856,-231 L 122.58,-226.99 L 119.58,-226.99 L 119.304,-231 L 113.096,-231 L 112.82,-226.99
 L 109.82,-226.99 L 109.544,-231 L 103.336,-231 L 103.06,-226.99 L 100.06,-226.99 L 99.7836,-231
 L 93.5764,-231 L 93.3,-226.99 L 90.3,-226.99 L 90.0236,-231 L 83.8164,-231 L 83.54,-226.99
 L 80.54,-226.99 L 80.2636,-231 L 74.0564,-231 L 73.78,-226.99 L 70.78,-226.99 L 70.5036,-231
 L 64.2964,-231 L 64.02,-226.99 L 61.02,-226.99 L 60.7436,-231 L 54.5364,-231 L 54.26,-226.99
 L 51.26,-226.99 L 50.9836,-231 L 44.7764,-231 L 44.5,-226.99 z
M 215.68,-259.25 L 217.18,-281 L 220.18,-281 L 221.68,-259.25 z
M 225.44,-259.25 L 226.94,-281 L 229.94,-281 L 231.44,-259.25 z
M 284,-259.25 L 285.5,-281 L 288.5,-281 L 290,-259.25 z
M 166.88,-259.25 L 168.38,-281 L 171.38,-281 L 172.88,-259.25 z
M 186.4,-259.25 L 187.9,-281 L 190.9,-281 L 192.4,-259.25 z
M 196.16,-259.25 L 197.66,-281 L 200.66,-281 L 202.16,-259.25 z
M 205.92,-259.25 L 207.42,-281 L 210.42,-281 L 211.92,-259.25 z
M 244.96,-259.25 L 246.46,-281 L 249.46,-281 L 250.96,-259.25 z
M 157.12,-259.25 L 158.62,-281 L 161.62,-281 L 163.12,-259.25 z
M 176.64,-259.25 L 178.14,-281 L 181.14,-281 L 182.64,-259.25 z
M 274.24,-259.25 L 275.74,-281 L 278.74,-281 L 280.24,-259.25 z
M 264.48,-259.25 L 265.98,-281 L 268.98,-281 L 270.48,-259.25 z
M 254.72,-259.25 L 256.22,-281 L 259.22,-281 L 260.72,-259.25 z
M 235.2,-259.25 L 236.7,-281 L 239.7,-281 L 241.2,-259.25 z
M 246.46,-226.99 L 244.96,-248.75 L 250.96,-248.75 L 249.46,-226.99 z
M 158.62,-226.99 L 157.12,-248.75 L 163.12,-248.75 L 161.62,-226.99 z
M 168.38,-226.99 L 166.88,-248.75 L 172.88,-248.75 L 171.38,-226.99 z
M 285.5,-226.99 L 284,-248.75 L 290,-248.75 L 288.5,-226.99 z
M 236.7,-226.99 L 235.2,-248.75 L 241.2,-248.75 L 239.7,-226.99 z
M 226.94,-226.99 L 225.44,-248.75 L 231.44,-248.75 L 229.94,-226.99 z
M 217.18,-226.99 L 215.68,-248.75 L 221.68,-248.75 L 220.18,-226.99 z
M 207.42,-226.99 L 205.92,-248.75 L 211.92,-248.75 L 210.42,-226.99 z
M 197.66,-226.99 L 196.16,-248.75 L 202.16,-248.75 L 200.66,-226.99 z
M 187.9,-226.99 L 186.4,-248.75 L 192.4,-248.75 L 190.9,-226.99 z
M 178.14,-226.99 L 176.64,-248.75 L 182.64,-248.75 L 181.14,-226.99 z
M 256.22,-226.99 L 254.72,-248.75 L 260.72,-248.75 L 259.22,-226.99 z
M 265.98,-226.99 L 264.48,-248.75 L 270.48,-248.75 L 268.98,-226.99 z
M 275.74,-226.99 L 274.24,-248.75 L 280.24,-248.75 L 278.74,-226.99 z
M 317.739,-223.514 L 317.48,-223.555 L 317.227,-223.622 L 316.983,-223.716 L 316.75,-223.835 L 316.531,-223.977
 L 316.327,-224.142 L 316.142,-224.327 L 315.977,-224.531 L 315.835,-224.75 L 315.716,-224.983 L 315.622,-225.227
 L 315.555,-225.48 L 315.514,-225.739 L 315.5,-226 L 315.514,-226.261 L 315.555,-226.52 L 315.622,-226.773
 L 315.716,-227.017 L 315.835,-227.25 L 315.977,-227.469 L 316.142,-227.673 L 316.327,-227.858 L 316.531,-228.023
 L 316.75,-228.165 L 316.983,-228.284 L 317.227,-228.378 L 317.48,-228.445 L 317.739,-228.486 L 318,-228.5
 L 318.261,-228.486 L 318.52,-228.445 L 318.773,-228.378 L 319.017,-228.284 L 319.25,-228.165 L 319.469,-228.023
 L 319.673,-227.858 L 319.858,-227.673 L 320.023,-227.469 L 320.165,-227.25 L 320.284,-227.017 L 320.378,-226.773
 L 320.445,-226.52 L 320.486,-226.261 L 320.5,-226 L 320.486,-225.739 L 320.445,-225.48 L 320.378,-225.227
 L 320.284,-224.983 L 320.165,-224.75 L 320.023,-224.531 L 319.858,-224.327 L 319.673,-224.142 L 319.469,-223.977
 L 319.25,-223.835 L 319.017,-223.716 L 318.773,-223.622 L 318.52,-223.555 L 318.261,-223.514 L 318,-223.5
 z
M 11.7387,-223.514 L 11.4802,-223.555 L 11.2274,-223.622 L 10.9832,-223.716 L 10.75,-223.835 L 10.5305,-223.977
 L 10.3272,-224.142 L 10.1421,-224.327 L 9.97745,-224.531 L 9.83493,-224.75 L 9.71613,-224.983 L 9.62234,-225.227
 L 9.55463,-225.48 L 9.51369,-225.739 L 9.5,-226 L 9.51369,-226.261 L 9.55463,-226.52 L 9.62234,-226.773
 L 9.71613,-227.017 L 9.83493,-227.25 L 9.97745,-227.469 L 10.1421,-227.673 L 10.3272,-227.858 L 10.5305,-228.023
 L 10.75,-228.165 L 10.9832,-228.284 L 11.2274,-228.378 L 11.4802,-228.445 L 11.7387,-228.486 L 12,-228.5
 L 12.2613,-228.486 L 12.5198,-228.445 L 12.7725,-228.378 L 13.0168,-228.284 L 13.25,-228.165 L 13.4695,-228.023
 L 13.6728,-227.858 L 13.8578,-227.673 L 14.0225,-227.469 L 14.1651,-227.25 L 14.2839,-227.017 L 14.3776,-226.773
 L 14.4454,-226.52 L 14.4863,-226.261 L 14.5,-226 L 14.4863,-225.739 L 14.4454,-225.48 L 14.3776,-225.227
 L 14.2839,-224.983 L 14.1651,-224.75 L 14.0225,-224.531 L 13.8578,-224.327 L 13.6728,-224.142 L 13.4695,-223.977
 L 13.25,-223.835 L 13.0168,-223.716 L 12.7725,-223.622 L 12.5198,-223.555 L 12.2613,-223.514 L 12,-223.5
 z
M 40.8345,-159.193 L 40.8411,-159.185 L 41.2852,-158.741 L 41.7733,-158.346 L 42.3,-158.004 L 42.8596,-157.719
 L 43.4459,-157.494 L 44.0525,-157.331 L 44.6728,-157.233 L 45.0656,-157.212 L 44.5005,-146 L 51.2595,-146
 L 50.5395,-160.285 L 50.7813,-160.76 L 51.0063,-161.346 L 51.1689,-161.953 L 51.2671,-162.573 L 51.3,-163.2
 L 51.2671,-163.827 L 51.1689,-164.447 L 51.0063,-165.054 L 50.7813,-165.64 L 50.4961,-166.2 L 50.2199,-166.625
 L 49.76,-175.75 L 55.76,-175.75 L 54.2605,-146 L 61.0195,-146 L 59.52,-175.75 L 65.52,-175.75
 L 64.0205,-146 L 70.7795,-146 L 69.28,-175.75 L 75.28,-175.75 L 73.7805,-146 L 80.5395,-146
 L 79.04,-175.75 L 85.04,-175.75 L 83.5405,-146 L 90.2995,-146 L 88.8,-175.75 L 94.8,-175.75
 L 93.3005,-146 L 100.059,-146 L 98.56,-175.75 L 104.56,-175.75 L 103.061,-146 L 109.819,-146
 L 108.32,-175.75 L 114.32,-175.75 L 112.82,-146 L 119.579,-146 L 118.08,-175.75 L 124.08,-175.75
 L 122.58,-146 L 129.339,-146 L 127.84,-175.75 L 133.84,-175.75 L 132.34,-146 L 139.099,-146
 L 137.6,-175.75 L 143.6,-175.75 L 142.1,-146 L 148.859,-146 L 147.36,-175.75 L 153.36,-175.75
 L 151.86,-146 L 158.619,-146 L 157.12,-175.75 L 163.12,-175.75 L 161.62,-146 L 168.379,-146
 L 166.88,-175.75 L 172.88,-175.75 L 171.38,-146 L 178.139,-146 L 176.64,-175.75 L 182.64,-175.75
 L 181.141,-146 L 187.899,-146 L 186.4,-175.75 L 192.4,-175.75 L 190.9,-146 L 197.659,-146
 L 196.16,-175.75 L 202.16,-175.75 L 200.66,-146 L 207.419,-146 L 205.92,-175.75 L 211.92,-175.75
 L 210.421,-146 L 217.179,-146 L 215.68,-175.75 L 221.68,-175.75 L 220.18,-146 L 226.939,-146
 L 225.44,-175.75 L 231.44,-175.75 L 229.94,-146 L 236.699,-146 L 235.2,-175.75 L 241.2,-175.75
 L 239.701,-146 L 246.459,-146 L 244.96,-175.75 L 250.96,-175.75 L 249.46,-146 L 256.219,-146
 L 254.72,-175.75 L 260.72,-175.75 L 259.22,-146 L 265.979,-146 L 264.48,-175.75 L 270.48,-175.75
 L 268.98,-146 L 275.739,-146 L 274.24,-175.75 L 280.24,-175.75 L 278.74,-146 L 285.499,-146
 L 284,-175.75 L 290,-175.75 L 288.501,-146 L 321.995,-146 L 321.995,-146 L 322,-146
 L 322.836,-146.044 L 323.663,-146.175 L 324.472,-146.392 L 325.254,-146.692 L 326,-147.072 L 326.702,-147.528
 L 327.353,-148.055 L 327.945,-148.647 L 328.472,-149.298 L 328.928,-150 L 329.308,-150.746 L 329.608,-151.528
 L 329.825,-152.337 L 329.956,-153.164 L 330,-154 L 330,-154.005 L 330,-154.005 L 330,-207.995
 L 330,-207.995 L 330,-208 L 329.956,-208.836 L 329.825,-209.663 L 329.608,-210.472 L 329.308,-211.254
 L 328.928,-212 L 328.472,-212.702 L 327.945,-213.353 L 327.353,-213.945 L 326.702,-214.472 L 326,-214.928
 L 325.254,-215.308 L 324.472,-215.608 L 323.663,-215.825 L 322.836,-215.956 L 322,-216 L 321.995,-216
 L 321.995,-216 L 288.5,-216 L 290,-186.25 L 284,-186.25 L 285.5,-216 L 278.74,-216
 L 280.24,-186.25 L 274.24,-186.25 L 275.74,-216 L 268.98,-216 L 270.48,-186.25 L 264.48,-186.25
 L 265.98,-216 L 259.22,-216 L 260.72,-186.25 L 254.72,-186.25 L 256.22,-216 L 249.46,-216
 L 250.96,-186.25 L 244.96,-186.25 L 246.46,-216 L 239.7,-216 L 241.2,-186.25 L 235.2,-186.25
 L 236.7,-216 L 229.94,-216 L 231.44,-186.25 L 225.44,-186.25 L 226.94,-216 L 220.18,-216
 L 221.68,-186.25 L 215.68,-186.25 L 217.18,-216 L 210.42,-216 L 211.92,-186.25 L 205.92,-186.25
 L 207.42,-216 L 200.66,-216 L 202.16,-186.25 L 196.16,-186.25 L 197.66,-216 L 190.9,-216
 L 192.4,-186.25 L 186.4,-186.25 L 187.9,-216 L 181.14,-216 L 182.64,-186.25 L 176.64,-186.25
 L 178.14,-216 L 171.38,-216 L 172.88,-186.25 L 166.88,-186.25 L 168.38,-216 L 161.62,-216
 L 163.12,-186.25 L 157.12,-186.25 L 158.62,-216 L 151.86,-216 L 153.36,-186.25 L 147.36,-186.25
 L 148.86,-216 L 142.1,-216 L 143.6,-186.25 L 137.6,-186.25 L 138.024,-194.65 L 138.159,-194.785
 L 138.554,-195.273 L 138.896,-195.8 L 139.181,-196.36 L 139.406,-196.946 L 139.569,-197.553 L 139.667,-198.173
 L 139.7,-198.8 L 139.667,-199.427 L 139.569,-200.047 L 139.406,-200.654 L 139.181,-201.24 L 138.896,-201.8
 L 138.554,-202.327 L 138.419,-202.494 L 139.1,-216 L 132.34,-216 L 132.908,-204.741 L 132.453,-204.669
 L 131.846,-204.506 L 131.26,-204.281 L 130.7,-203.996 L 130.173,-203.654 L 129.685,-203.259 L 129.241,-202.815
 L 128.846,-202.327 L 128.634,-202.001 L 129.34,-216 L 122.58,-216 L 124.08,-186.25 L 118.08,-186.25
 L 119.58,-216 L 112.82,-216 L 114.32,-186.25 L 108.32,-186.25 L 109.82,-216 L 103.06,-216
 L 104.56,-186.25 L 98.56,-186.25 L 100.06,-216 L 93.3,-216 L 94.8,-186.25 L 88.8,-186.25
 L 90.3,-216 L 83.54,-216 L 85.04,-186.25 L 79.04,-186.25 L 80.54,-216 L 73.78,-216
 L 75.28,-186.25 L 69.28,-186.25 L 70.78,-216 L 64.02,-216 L 65.52,-186.25 L 59.52,-186.25
 L 61.02,-216 L 54.26,-216 L 55.76,-186.25 L 49.76,-186.25 L 51.26,-216 L 44.5,-216
 L 46,-186.25 L 40,-186.25 L 41.5,-216 L 8.00499,-216 L 8.00499,-216 L 8,-216
 L 7.16376,-215.956 L 6.3367,-215.825 L 5.52786,-215.608 L 4.74609,-215.308 L 4,-214.928 L 3.29773,-214.472
 L 2.64696,-213.945 L 2.05486,-213.353 L 1.52788,-212.702 L 1.07181,-212 L 0.69165,-211.254 L 0.391556,-210.472
 L 0.17482,-209.663 L 0.0438385,-208.836 L 0,-208 L 0.000259399,-207.995 L 0,-207.995 L 0,-154.005
 L 0.000259399,-154.005 L 0,-154 L 0.0438385,-153.164 L 0.17482,-152.337 L 0.391556,-151.528 L 0.69165,-150.746
 L 1.07181,-150 L 1.52788,-149.298 L 2.05486,-148.647 L 2.64696,-148.055 L 3.29773,-147.528 L 4,-147.072
 L 4.74609,-146.692 L 5.52786,-146.392 L 6.3367,-146.175 L 7.16376,-146.044 L 8,-146 L 8.00499,-146
 L 8.00499,-146 L 41.4995,-146 z
M 11.8432,-207.508 L 11.6881,-207.533 L 11.5365,-207.573 L 11.3899,-207.63 L 11.25,-207.701 L 11.1183,-207.786
 L 10.9963,-207.885 L 10.8853,-207.996 L 10.7865,-208.118 L 10.701,-208.25 L 10.6297,-208.39 L 10.5734,-208.536
 L 10.5328,-208.688 L 10.5082,-208.843 L 10.5,-209 L 10.5082,-209.157 L 10.5328,-209.312 L 10.5734,-209.464
 L 10.6297,-209.61 L 10.701,-209.75 L 10.7865,-209.882 L 10.8853,-210.004 L 10.9963,-210.115 L 11.1183,-210.214
 L 11.25,-210.299 L 11.3899,-210.37 L 11.5365,-210.427 L 11.6881,-210.467 L 11.8432,-210.492 L 12,-210.5
 L 12.1568,-210.492 L 12.3119,-210.467 L 12.4635,-210.427 L 12.6101,-210.37 L 12.75,-210.299 L 12.8817,-210.214
 L 13.0037,-210.115 L 13.1147,-210.004 L 13.2135,-209.882 L 13.299,-209.75 L 13.3703,-209.61 L 13.4266,-209.464
 L 13.4672,-209.312 L 13.4918,-209.157 L 13.5,-209 L 13.4918,-208.843 L 13.4672,-208.688 L 13.4266,-208.536
 L 13.3703,-208.39 L 13.299,-208.25 L 13.2135,-208.118 L 13.1147,-207.996 L 13.0037,-207.885 L 12.8817,-207.786
 L 12.75,-207.701 L 12.6101,-207.63 L 12.4635,-207.573 L 12.3119,-207.533 L 12.1568,-207.508 L 12,-207.5
 z
M 317.843,-207.508 L 317.688,-207.533 L 317.536,-207.573 L 317.39,-207.63 L 317.25,-207.701 L 317.118,-207.786
 L 316.996,-207.885 L 316.885,-207.996 L 316.786,-208.118 L 316.701,-208.25 L 316.63,-208.39 L 316.573,-208.536
 L 316.533,-208.688 L 316.508,-208.843 L 316.5,-209 L 316.508,-209.157 L 316.533,-209.312 L 316.573,-209.464
 L 316.63,-209.61 L 316.701,-209.75 L 316.786,-209.882 L 316.885,-210.004 L 316.996,-210.115 L 317.118,-210.214
 L 317.25,-210.299 L 317.39,-210.37 L 317.536,-210.427 L 317.688,-210.467 L 317.843,-210.492 L 318,-210.5
 L 318.157,-210.492 L 318.312,-210.467 L 318.464,-210.427 L 318.61,-210.37 L 318.75,-210.299 L 318.882,-210.214
 L 319.004,-210.115 L 319.115,-210.004 L 319.214,-209.882 L 319.299,-209.75 L 319.37,-209.61 L 319.427,-209.464
 L 319.467,-209.312 L 319.492,-209.157 L 319.5,-209 L 319.492,-208.843 L 319.467,-208.688 L 319.427,-208.536
 L 319.37,-208.39 L 319.299,-208.25 L 319.214,-208.118 L 319.115,-207.996 L 319.004,-207.885 L 318.882,-207.786
 L 318.75,-207.701 L 318.61,-207.63 L 318.464,-207.573 L 318.312,-207.533 L 318.157,-207.508 L 318,-207.5
 z
M 6.5,-157.6 L 6.5,-201.6 L 21.5,-201.6 L 21.5,-194.6 L 33.5,-194.6 L 33.5,-162.6
 L 21.5,-162.6 L 21.5,-157.6 z
M 127.84,-186.25 L 128.338,-196.126 L 128.504,-195.8 L 128.846,-195.273 L 129.241,-194.785 L 129.685,-194.341
 L 130.173,-193.946 L 130.7,-193.604 L 131.26,-193.319 L 131.846,-193.094 L 132.453,-192.931 L 133.073,-192.833
 L 133.509,-192.81 L 133.84,-186.25 z
M 40,-175.75 L 46,-175.75 L 45.6689,-169.181 L 45.3,-169.2 L 44.6728,-169.167 L 44.0525,-169.069
 L 43.4459,-168.906 L 42.8596,-168.681 L 42.3,-168.396 L 41.7733,-168.054 L 41.2852,-167.659 L 40.8411,-167.215
 L 40.4543,-166.737 z
M 11.8432,-151.508 L 11.6881,-151.533 L 11.5365,-151.573 L 11.3899,-151.63 L 11.25,-151.701 L 11.1183,-151.786
 L 10.9963,-151.885 L 10.8853,-151.996 L 10.7865,-152.118 L 10.701,-152.25 L 10.6297,-152.39 L 10.5734,-152.536
 L 10.5328,-152.688 L 10.5082,-152.843 L 10.5,-153 L 10.5082,-153.157 L 10.5328,-153.312 L 10.5734,-153.464
 L 10.6297,-153.61 L 10.701,-153.75 L 10.7865,-153.882 L 10.8853,-154.004 L 10.9963,-154.115 L 11.1183,-154.214
 L 11.25,-154.299 L 11.3899,-154.37 L 11.5365,-154.427 L 11.6881,-154.467 L 11.8432,-154.492 L 12,-154.5
 L 12.1568,-154.492 L 12.3119,-154.467 L 12.4635,-154.427 L 12.6101,-154.37 L 12.75,-154.299 L 12.8817,-154.214
 L 13.0037,-154.115 L 13.1147,-154.004 L 13.2135,-153.882 L 13.299,-153.75 L 13.3703,-153.61 L 13.4266,-153.464
 L 13.4672,-153.312 L 13.4918,-153.157 L 13.5,-153 L 13.4918,-152.843 L 13.4672,-152.688 L 13.4266,-152.536
 L 13.3703,-152.39 L 13.299,-152.25 L 13.2135,-152.118 L 13.1147,-151.996 L 13.0037,-151.885 L 12.8817,-151.786
 L 12.75,-151.701 L 12.6101,-151.63 L 12.4635,-151.573 L 12.3119,-151.533 L 12.1568,-151.508 L 12,-151.5
 z
M 317.843,-151.508 L 317.688,-151.533 L 317.536,-151.573 L 317.39,-151.63 L 317.25,-151.701 L 317.118,-151.786
 L 316.996,-151.885 L 316.885,-151.996 L 316.786,-152.118 L 316.701,-152.25 L 316.63,-152.39 L 316.573,-152.536
 L 316.533,-152.688 L 316.508,-152.843 L 316.5,-153 L 316.508,-153.157 L 316.533,-153.312 L 316.573,-153.464
 L 316.63,-153.61 L 316.701,-153.75 L 316.786,-153.882 L 316.885,-154.004 L 316.996,-154.115 L 317.118,-154.214
 L 317.25,-154.299 L 317.39,-154.37 L 317.536,-154.427 L 317.688,-154.467 L 317.843,-154.492 L 318,-154.5
 L 318.157,-154.492 L 318.312,-154.467 L 318.464,-154.427 L 318.61,-154.37 L 318.75,-154.299 L 318.882,-154.214
 L 319.004,-154.115 L 319.115,-154.004 L 319.214,-153.882 L 319.299,-153.75 L 319.37,-153.61 L 319.427,-153.464
 L 319.467,-153.312 L 319.492,-153.157 L 319.5,-153 L 319.492,-152.843 L 319.467,-152.688 L 319.427,-152.536
 L 319.37,-152.39 L 319.299,-152.25 L 319.214,-152.118 L 319.115,-151.996 L 319.004,-151.885 L 318.882,-151.786
 L 318.75,-151.701 L 318.61,-151.63 L 318.464,-151.573 L 318.312,-151.533 L 318.157,-151.508 L 318,-151.5
 z
M 321.995,-73.0003 L 322,-73 L 322.836,-73.0438 L 323.663,-73.1748 L 324.472,-73.3916 L 325.254,-73.6917
 L 326,-74.0718 L 326.702,-74.5279 L 327.353,-75.0549 L 327.945,-75.647 L 328.472,-76.2977 L 328.928,-77
 L 329.308,-77.7461 L 329.608,-78.5279 L 329.825,-79.3367 L 329.956,-80.1638 L 330,-81 L 330,-81.005
 L 330,-81.005 L 330,-134.995 L 330,-134.995 L 330,-135 L 329.956,-135.836 L 329.825,-136.663
 L 329.608,-137.472 L 329.308,-138.254 L 328.928,-139 L 328.472,-139.702 L 327.945,-140.353 L 327.353,-140.945
 L 326.702,-141.472 L 326,-141.928 L 325.254,-142.308 L 324.472,-142.608 L 323.663,-142.825 L 322.836,-142.956
 L 322,-143 L 321.995,-143 L 321.995,-143 L 8.00499,-143 L 8.00499,-143 L 8,-143
 L 7.16376,-142.956 L 6.3367,-142.825 L 5.52786,-142.608 L 4.74609,-142.308 L 4,-141.928 L 3.29773,-141.472
 L 2.64696,-140.945 L 2.05486,-140.353 L 1.52788,-139.702 L 1.07181,-139 L 0.69165,-138.254 L 0.391556,-137.472
 L 0.17482,-136.663 L 0.0438385,-135.836 L 0,-135 L 0.000259399,-134.995 L 0,-134.995 L 0,-81.005
 L 0.000259399,-81.005 L 0,-81 L 0.0438385,-80.1638 L 0.17482,-79.3367 L 0.391556,-78.5279 L 0.69165,-77.7461
 L 1.07181,-77 L 1.52788,-76.2977 L 2.05486,-75.647 L 2.64696,-75.0549 L 3.29773,-74.5279 L 4,-74.0718
 L 4.74609,-73.6917 L 5.52786,-73.3916 L 6.3367,-73.1748 L 7.16376,-73.0438 L 8,-73 L 8.00499,-73.0003
 L 8.00499,-73 L 321.995,-73 z
M 11.9059,-135.105 L 11.8129,-135.12 L 11.7219,-135.144 L 11.6339,-135.178 L 11.55,-135.221 L 11.471,-135.272
 L 11.3978,-135.331 L 11.3312,-135.398 L 11.2719,-135.471 L 11.2206,-135.55 L 11.1778,-135.634 L 11.144,-135.722
 L 11.1197,-135.813 L 11.1049,-135.906 L 11.1,-136 L 11.1049,-136.094 L 11.1197,-136.187 L 11.144,-136.278
 L 11.1778,-136.366 L 11.2206,-136.45 L 11.2719,-136.529 L 11.3312,-136.602 L 11.3978,-136.669 L 11.471,-136.728
 L 11.55,-136.779 L 11.6339,-136.822 L 11.7219,-136.856 L 11.8129,-136.88 L 11.9059,-136.895 L 12,-136.9
 L 12.0941,-136.895 L 12.1871,-136.88 L 12.2781,-136.856 L 12.3661,-136.822 L 12.45,-136.779 L 12.529,-136.728
 L 12.6022,-136.669 L 12.6688,-136.602 L 12.7281,-136.529 L 12.7794,-136.45 L 12.8222,-136.366 L 12.8559,-136.278
 L 12.8803,-136.187 L 12.8951,-136.094 L 12.9,-136 L 12.8951,-135.906 L 12.8803,-135.813 L 12.8559,-135.722
 L 12.8222,-135.634 L 12.7794,-135.55 L 12.7281,-135.471 L 12.6688,-135.398 L 12.6022,-135.331 L 12.529,-135.272
 L 12.45,-135.221 L 12.3661,-135.178 L 12.2781,-135.144 L 12.1871,-135.12 L 12.0941,-135.105 L 12,-135.1
 z
M 317.906,-135.105 L 317.813,-135.12 L 317.722,-135.144 L 317.634,-135.178 L 317.55,-135.221 L 317.471,-135.272
 L 317.398,-135.331 L 317.331,-135.398 L 317.272,-135.471 L 317.221,-135.55 L 317.178,-135.634 L 317.144,-135.722
 L 317.12,-135.813 L 317.105,-135.906 L 317.1,-136 L 317.105,-136.094 L 317.12,-136.187 L 317.144,-136.278
 L 317.178,-136.366 L 317.221,-136.45 L 317.272,-136.529 L 317.331,-136.602 L 317.398,-136.669 L 317.471,-136.728
 L 317.55,-136.779 L 317.634,-136.822 L 317.722,-136.856 L 317.813,-136.88 L 317.906,-136.895 L 318,-136.9
 L 318.094,-136.895 L 318.187,-136.88 L 318.278,-136.856 L 318.366,-136.822 L 318.45,-136.779 L 318.529,-136.728
 L 318.602,-136.669 L 318.669,-136.602 L 318.728,-136.529 L 318.779,-136.45 L 318.822,-136.366 L 318.856,-136.278
 L 318.88,-136.187 L 318.895,-136.094 L 318.9,-136 L 318.895,-135.906 L 318.88,-135.813 L 318.856,-135.722
 L 318.822,-135.634 L 318.779,-135.55 L 318.728,-135.471 L 318.669,-135.398 L 318.602,-135.331 L 318.529,-135.272
 L 318.45,-135.221 L 318.366,-135.178 L 318.278,-135.144 L 318.187,-135.12 L 318.094,-135.105 L 318,-135.1
 z
M 52,-82.9167 L 52,-103.95 L 33.5,-103.95 L 33.5,-89.6 L 21.5,-89.6 L 21.5,-84.6
 L 6.5,-84.6 L 6.5,-128.6 L 21.5,-128.6 L 21.5,-121.6 L 33.5,-121.6 L 33.5,-112.05
 L 52,-112.05 L 52,-133.083 L 278,-133.083 L 278,-112.05 L 290,-112.05 L 290,-103.95
 L 278,-103.95 L 278,-82.9167 z
M 87.98,-116.377 L 88.0834,-116.393 L 88.1845,-116.42 L 88.2822,-116.458 L 88.3755,-116.505 L 88.3936,-116.516
 L 88.6991,-116.672 L 89.0116,-116.792 L 89.335,-116.879 L 89.6657,-116.931 L 90,-116.949 L 90.3343,-116.931
 L 90.665,-116.879 L 90.9884,-116.792 L 91.3009,-116.672 L 91.6202,-116.509 L 91.6702,-116.481 L 91.7659,-116.438
 L 91.8654,-116.406 L 91.9678,-116.384 L 92.0719,-116.373 L 92.1766,-116.373 L 92.2807,-116.384 L 92.383,-116.406
 L 92.4826,-116.438 L 92.5782,-116.48 L 92.6689,-116.533 L 92.7536,-116.594 L 92.8313,-116.664 L 92.9014,-116.742
 L 92.9629,-116.827 L 93.0153,-116.917 L 93.0578,-117.013 L 93.0902,-117.113 L 93.0951,-117.133 L 93.201,-117.459
 L 93.3372,-117.765 L 93.5045,-118.055 L 93.7014,-118.326 L 93.9254,-118.575 L 94.1742,-118.799 L 94.4451,-118.995
 L 94.735,-119.163 L 95.0408,-119.299 L 95.3816,-119.41 L 95.4372,-119.425 L 95.535,-119.462 L 95.6282,-119.51
 L 95.716,-119.567 L 95.7974,-119.632 L 95.8714,-119.706 L 95.9373,-119.788 L 95.9944,-119.875 L 96.0419,-119.969
 L 96.0794,-120.066 L 96.1066,-120.168 L 96.123,-120.271 L 96.1285,-120.375 L 96.123,-120.48 L 96.1067,-120.583
 L 96.0796,-120.684 L 96.0421,-120.782 L 95.9946,-120.875 L 95.9835,-120.894 L 95.8279,-121.199 L 95.7079,-121.512
 L 95.6212,-121.835 L 95.5689,-122.166 L 95.5514,-122.5 L 95.5689,-122.834 L 95.6212,-123.165 L 95.7079,-123.488
 L 95.8279,-123.801 L 95.9906,-124.12 L 96.0194,-124.17 L 96.062,-124.266 L 96.0944,-124.365 L 96.1161,-124.468
 L 96.1271,-124.572 L 96.1271,-124.677 L 96.1162,-124.781 L 96.0944,-124.883 L 96.0621,-124.983 L 96.0195,-125.078
 L 95.9672,-125.169 L 95.9057,-125.254 L 95.8356,-125.331 L 95.7578,-125.401 L 95.6732,-125.463 L 95.5825,-125.515
 L 95.4869,-125.558 L 95.3873,-125.59 L 95.3668,-125.595 L 95.0408,-125.701 L 94.735,-125.837 L 94.4451,-126.005
 L 94.1742,-126.201 L 93.9254,-126.425 L 93.7014,-126.674 L 93.5045,-126.945 L 93.3372,-127.235 L 93.201,-127.541
 L 93.0903,-127.882 L 93.0754,-127.937 L 93.0379,-128.035 L 92.9904,-128.128 L 92.9335,-128.216 L 92.8676,-128.297
 L 92.7936,-128.371 L 92.7123,-128.437 L 92.6245,-128.494 L 92.5312,-128.542 L 92.4335,-128.579 L 92.3324,-128.607
 L 92.2291,-128.623 L 92.1245,-128.628 L 92.02,-128.623 L 91.9166,-128.607 L 91.8155,-128.58 L 91.7178,-128.542
 L 91.6245,-128.495 L 91.6064,-128.484 L 91.3009,-128.328 L 90.9884,-128.208 L 90.665,-128.121 L 90.3343,-128.069
 L 90,-128.051 L 89.6657,-128.069 L 89.335,-128.121 L 89.0116,-128.208 L 88.6991,-128.328 L 88.3798,-128.491
 L 88.3298,-128.519 L 88.2341,-128.562 L 88.1346,-128.594 L 88.0322,-128.616 L 87.9281,-128.627 L 87.8234,-128.627
 L 87.7193,-128.616 L 87.617,-128.594 L 87.5174,-128.562 L 87.4218,-128.52 L 87.3311,-128.467 L 87.2464,-128.406
 L 87.1687,-128.336 L 87.0986,-128.258 L 87.0371,-128.173 L 86.9847,-128.083 L 86.9422,-127.987 L 86.9098,-127.887
 L 86.9049,-127.867 L 86.799,-127.541 L 86.6628,-127.235 L 86.4955,-126.945 L 86.2986,-126.674 L 86.0746,-126.425
 L 85.8258,-126.201 L 85.5549,-126.005 L 85.265,-125.837 L 84.9592,-125.701 L 84.6184,-125.59 L 84.5628,-125.575
 L 84.465,-125.538 L 84.3718,-125.49 L 84.284,-125.433 L 84.2026,-125.368 L 84.1286,-125.294 L 84.0627,-125.212
 L 84.0056,-125.125 L 83.9581,-125.031 L 83.9206,-124.934 L 83.8934,-124.832 L 83.877,-124.729 L 83.8715,-124.625
 L 83.877,-124.52 L 83.8933,-124.417 L 83.9204,-124.316 L 83.9579,-124.218 L 84.0054,-124.125 L 84.0165,-124.106
 L 84.1721,-123.801 L 84.2921,-123.488 L 84.3788,-123.165 L 84.4311,-122.834 L 84.4486,-122.5 L 84.4311,-122.166
 L 84.3788,-121.835 L 84.2921,-121.512 L 84.1721,-121.199 L 84.0094,-120.88 L 83.9806,-120.83 L 83.938,-120.734
 L 83.9056,-120.635 L 83.8839,-120.532 L 83.8729,-120.428 L 83.8729,-120.323 L 83.8838,-120.219 L 83.9056,-120.117
 L 83.9379,-120.017 L 83.9805,-119.922 L 84.0328,-119.831 L 84.0943,-119.746 L 84.1644,-119.669 L 84.2422,-119.599
 L 84.3268,-119.537 L 84.4175,-119.485 L 84.5131,-119.442 L 84.6127,-119.41 L 84.6332,-119.405 L 84.9592,-119.299
 L 85.265,-119.163 L 85.5549,-118.995 L 85.8258,-118.799 L 86.0746,-118.575 L 86.2986,-118.326 L 86.4955,-118.055
 L 86.6628,-117.765 L 86.799,-117.459 L 86.9097,-117.118 L 86.9246,-117.063 L 86.9621,-116.965 L 87.0096,-116.872
 L 87.0665,-116.784 L 87.1324,-116.703 L 87.2064,-116.629 L 87.2877,-116.563 L 87.3755,-116.506 L 87.4688,-116.458
 L 87.5665,-116.421 L 87.6676,-116.393 L 87.7709,-116.377 L 87.8755,-116.372 z
M 57.98,-116.377 L 58.0834,-116.393 L 58.1845,-116.42 L 58.2822,-116.458 L 58.3755,-116.505 L 58.3936,-116.516
 L 58.6991,-116.672 L 59.0116,-116.792 L 59.335,-116.879 L 59.6657,-116.931 L 60,-116.949 L 60.3343,-116.931
 L 60.665,-116.879 L 60.9884,-116.792 L 61.3009,-116.672 L 61.6202,-116.509 L 61.6702,-116.481 L 61.7659,-116.438
 L 61.8654,-116.406 L 61.9678,-116.384 L 62.0719,-116.373 L 62.1766,-116.373 L 62.2807,-116.384 L 62.383,-116.406
 L 62.4826,-116.438 L 62.5782,-116.48 L 62.6689,-116.533 L 62.7536,-116.594 L 62.8313,-116.664 L 62.9014,-116.742
 L 62.9629,-116.827 L 63.0153,-116.917 L 63.0578,-117.013 L 63.0902,-117.113 L 63.0951,-117.133 L 63.201,-117.459
 L 63.3372,-117.765 L 63.5045,-118.055 L 63.7014,-118.326 L 63.9254,-118.575 L 64.1742,-118.799 L 64.4451,-118.995
 L 64.735,-119.163 L 65.0408,-119.299 L 65.3816,-119.41 L 65.4372,-119.425 L 65.535,-119.462 L 65.6282,-119.51
 L 65.716,-119.567 L 65.7974,-119.632 L 65.8714,-119.706 L 65.9373,-119.788 L 65.9944,-119.875 L 66.0419,-119.969
 L 66.0794,-120.066 L 66.1066,-120.168 L 66.123,-120.271 L 66.1285,-120.375 L 66.123,-120.48 L 66.1067,-120.583
 L 66.0796,-120.684 L 66.0421,-120.782 L 65.9946,-120.875 L 65.9835,-120.894 L 65.8279,-121.199 L 65.7079,-121.512
 L 65.6212,-121.835 L 65.5689,-122.166 L 65.5514,-122.5 L 65.5689,-122.834 L 65.6212,-123.165 L 65.7079,-123.488
 L 65.8279,-123.801 L 65.9906,-124.12 L 66.0194,-124.17 L 66.062,-124.266 L 66.0944,-124.365 L 66.1161,-124.468
 L 66.1271,-124.572 L 66.1271,-124.677 L 66.1162,-124.781 L 66.0944,-124.883 L 66.0621,-124.983 L 66.0195,-125.078
 L 65.9672,-125.169 L 65.9057,-125.254 L 65.8356,-125.331 L 65.7578,-125.401 L 65.6732,-125.463 L 65.5825,-125.515
 L 65.4869,-125.558 L 65.3873,-125.59 L 65.3668,-125.595 L 65.0408,-125.701 L 64.735,-125.837 L 64.4451,-126.005
 L 64.1742,-126.201 L 63.9254,-126.425 L 63.7014,-126.674 L 63.5045,-126.945 L 63.3372,-127.235 L 63.201,-127.541
 L 63.0903,-127.882 L 63.0754,-127.937 L 63.0379,-128.035 L 62.9904,-128.128 L 62.9335,-128.216 L 62.8676,-128.297
 L 62.7936,-128.371 L 62.7123,-128.437 L 62.6245,-128.494 L 62.5312,-128.542 L 62.4335,-128.579 L 62.3324,-128.607
 L 62.2291,-128.623 L 62.1245,-128.628 L 62.02,-128.623 L 61.9166,-128.607 L 61.8155,-128.58 L 61.7178,-128.542
 L 61.6245,-128.495 L 61.6064,-128.484 L 61.3009,-128.328 L 60.9884,-128.208 L 60.665,-128.121 L 60.3343,-128.069
 L 60,-128.051 L 59.6657,-128.069 L 59.335,-128.121 L 59.0116,-128.208 L 58.6991,-128.328 L 58.3798,-128.491
 L 58.3298,-128.519 L 58.2341,-128.562 L 58.1346,-128.594 L 58.0322,-128.616 L 57.9281,-128.627 L 57.8234,-128.627
 L 57.7193,-128.616 L 57.617,-128.594 L 57.5174,-128.562 L 57.4218,-128.52 L 57.3311,-128.467 L 57.2464,-128.406
 L 57.1687,-128.336 L 57.0986,-128.258 L 57.0371,-128.173 L 56.9847,-128.083 L 56.9422,-127.987 L 56.9098,-127.887
 L 56.9049,-127.867 L 56.799,-127.541 L 56.6628,-127.235 L 56.4955,-126.945 L 56.2986,-126.674 L 56.0746,-126.425
 L 55.8258,-126.201 L 55.5549,-126.005 L 55.265,-125.837 L 54.9592,-125.701 L 54.6184,-125.59 L 54.5628,-125.575
 L 54.465,-125.538 L 54.3718,-125.49 L 54.284,-125.433 L 54.2026,-125.368 L 54.1286,-125.294 L 54.0627,-125.212
 L 54.0056,-125.125 L 53.9581,-125.031 L 53.9206,-124.934 L 53.8934,-124.832 L 53.877,-124.729 L 53.8715,-124.625
 L 53.877,-124.52 L 53.8933,-124.417 L 53.9204,-124.316 L 53.9579,-124.218 L 54.0054,-124.125 L 54.0165,-124.106
 L 54.1721,-123.801 L 54.2921,-123.488 L 54.3788,-123.165 L 54.4311,-122.834 L 54.4486,-122.5 L 54.4311,-122.166
 L 54.3788,-121.835 L 54.2921,-121.512 L 54.1721,-121.199 L 54.0094,-120.88 L 53.9806,-120.83 L 53.938,-120.734
 L 53.9056,-120.635 L 53.8839,-120.532 L 53.8729,-120.428 L 53.8729,-120.323 L 53.8838,-120.219 L 53.9056,-120.117
 L 53.9379,-120.017 L 53.9805,-119.922 L 54.0328,-119.831 L 54.0943,-119.746 L 54.1644,-119.669 L 54.2422,-119.599
 L 54.3268,-119.537 L 54.4175,-119.485 L 54.5131,-119.442 L 54.6127,-119.41 L 54.6332,-119.405 L 54.9592,-119.299
 L 55.265,-119.163 L 55.5549,-118.995 L 55.8258,-118.799 L 56.0746,-118.575 L 56.2986,-118.326 L 56.4955,-118.055
 L 56.6628,-117.765 L 56.799,-117.459 L 56.9097,-117.118 L 56.9246,-117.063 L 56.9621,-116.965 L 57.0096,-116.872
 L 57.0665,-116.784 L 57.1324,-116.703 L 57.2064,-116.629 L 57.2877,-116.563 L 57.3755,-116.506 L 57.4688,-116.458
 L 57.5665,-116.421 L 57.6676,-116.393 L 57.7709,-116.377 L 57.8755,-116.372 z
M 59.7073,-119.715 L 59.4179,-119.761 L 59.1348,-119.837 L 58.8611,-119.942 L 58.6,-120.075 L 58.3542,-120.235
 L 58.1264,-120.419 L 57.9192,-120.626 L 57.7348,-120.854 L 57.5751,-121.1 L 57.4421,-121.361 L 57.3371,-121.635
 L 57.2612,-121.918 L 57.2153,-122.207 L 57.2,-122.5 L 57.2153,-122.793 L 57.2612,-123.082 L 57.3371,-123.365
 L 57.4421,-123.639 L 57.5751,-123.9 L 57.7348,-124.146 L 57.9192,-124.374 L 58.1264,-124.581 L 58.3542,-124.765
 L 58.6,-124.925 L 58.8611,-125.058 L 59.1348,-125.163 L 59.4179,-125.239 L 59.7073,-125.285 L 60,-125.3
 L 60.2927,-125.285 L 60.5821,-125.239 L 60.8652,-125.163 L 61.1389,-125.058 L 61.4,-124.925 L 61.6458,-124.765
 L 61.8736,-124.581 L 62.0808,-124.374 L 62.2652,-124.146 L 62.4249,-123.9 L 62.5579,-123.639 L 62.6629,-123.365
 L 62.7388,-123.082 L 62.7847,-122.793 L 62.8,-122.5 L 62.7847,-122.207 L 62.7388,-121.918 L 62.6629,-121.635
 L 62.5579,-121.361 L 62.4249,-121.1 L 62.2652,-120.854 L 62.0808,-120.626 L 61.8736,-120.419 L 61.6458,-120.235
 L 61.4,-120.075 L 61.1389,-119.942 L 60.8652,-119.837 L 60.5821,-119.761 L 60.2927,-119.715 L 60,-119.7
 z
M 72.98,-116.377 L 73.0834,-116.393 L 73.1845,-116.42 L 73.2822,-116.458 L 73.3755,-116.505 L 73.3936,-116.516
 L 73.6991,-116.672 L 74.0116,-116.792 L 74.335,-116.879 L 74.6657,-116.931 L 75,-116.949 L 75.3343,-116.931
 L 75.665,-116.879 L 75.9884,-116.792 L 76.3009,-116.672 L 76.6202,-116.509 L 76.6702,-116.481 L 76.7659,-116.438
 L 76.8654,-116.406 L 76.9678,-116.384 L 77.0719,-116.373 L 77.1766,-116.373 L 77.2807,-116.384 L 77.383,-116.406
 L 77.4826,-116.438 L 77.5782,-116.48 L 77.6689,-116.533 L 77.7536,-116.594 L 77.8313,-116.664 L 77.9014,-116.742
 L 77.9629,-116.827 L 78.0153,-116.917 L 78.0578,-117.013 L 78.0902,-117.113 L 78.0951,-117.133 L 78.201,-117.459
 L 78.3372,-117.765 L 78.5045,-118.055 L 78.7014,-118.326 L 78.9254,-118.575 L 79.1742,-118.799 L 79.4451,-118.995
 L 79.735,-119.163 L 80.0408,-119.299 L 80.3816,-119.41 L 80.4372,-119.425 L 80.535,-119.462 L 80.6282,-119.51
 L 80.716,-119.567 L 80.7974,-119.632 L 80.8714,-119.706 L 80.9373,-119.788 L 80.9944,-119.875 L 81.0419,-119.969
 L 81.0794,-120.066 L 81.1066,-120.168 L 81.123,-120.271 L 81.1285,-120.375 L 81.123,-120.48 L 81.1067,-120.583
 L 81.0796,-120.684 L 81.0421,-120.782 L 80.9946,-120.875 L 80.9835,-120.894 L 80.8279,-121.199 L 80.7079,-121.512
 L 80.6212,-121.835 L 80.5689,-122.166 L 80.5514,-122.5 L 80.5689,-122.834 L 80.6212,-123.165 L 80.7079,-123.488
 L 80.8279,-123.801 L 80.9906,-124.12 L 81.0194,-124.17 L 81.062,-124.266 L 81.0944,-124.365 L 81.1161,-124.468
 L 81.1271,-124.572 L 81.1271,-124.677 L 81.1162,-124.781 L 81.0944,-124.883 L 81.0621,-124.983 L 81.0195,-125.078
 L 80.9672,-125.169 L 80.9057,-125.254 L 80.8356,-125.331 L 80.7578,-125.401 L 80.6732,-125.463 L 80.5825,-125.515
 L 80.4869,-125.558 L 80.3873,-125.59 L 80.3668,-125.595 L 80.0408,-125.701 L 79.735,-125.837 L 79.4451,-126.005
 L 79.1742,-126.201 L 78.9254,-126.425 L 78.7014,-126.674 L 78.5045,-126.945 L 78.3372,-127.235 L 78.201,-127.541
 L 78.0903,-127.882 L 78.0754,-127.937 L 78.0379,-128.035 L 77.9904,-128.128 L 77.9335,-128.216 L 77.8676,-128.297
 L 77.7936,-128.371 L 77.7123,-128.437 L 77.6245,-128.494 L 77.5312,-128.542 L 77.4335,-128.579 L 77.3324,-128.607
 L 77.2291,-128.623 L 77.1245,-128.628 L 77.02,-128.623 L 76.9166,-128.607 L 76.8155,-128.58 L 76.7178,-128.542
 L 76.6245,-128.495 L 76.6064,-128.484 L 76.3009,-128.328 L 75.9884,-128.208 L 75.665,-128.121 L 75.3343,-128.069
 L 75,-128.051 L 74.6657,-128.069 L 74.335,-128.121 L 74.0116,-128.208 L 73.6991,-128.328 L 73.3798,-128.491
 L 73.3298,-128.519 L 73.2341,-128.562 L 73.1346,-128.594 L 73.0322,-128.616 L 72.9281,-128.627 L 72.8234,-128.627
 L 72.7193,-128.616 L 72.617,-128.594 L 72.5174,-128.562 L 72.4218,-128.52 L 72.3311,-128.467 L 72.2464,-128.406
 L 72.1687,-128.336 L 72.0986,-128.258 L 72.0371,-128.173 L 71.9847,-128.083 L 71.9422,-127.987 L 71.9098,-127.887
 L 71.9049,-127.867 L 71.799,-127.541 L 71.6628,-127.235 L 71.4955,-126.945 L 71.2986,-126.674 L 71.0746,-126.425
 L 70.8258,-126.201 L 70.5549,-126.005 L 70.265,-125.837 L 69.9592,-125.701 L 69.6184,-125.59 L 69.5628,-125.575
 L 69.465,-125.538 L 69.3718,-125.49 L 69.284,-125.433 L 69.2026,-125.368 L 69.1286,-125.294 L 69.0627,-125.212
 L 69.0056,-125.125 L 68.9581,-125.031 L 68.9206,-124.934 L 68.8934,-124.832 L 68.877,-124.729 L 68.8715,-124.625
 L 68.877,-124.52 L 68.8933,-124.417 L 68.9204,-124.316 L 68.9579,-124.218 L 69.0054,-124.125 L 69.0165,-124.106
 L 69.1721,-123.801 L 69.2921,-123.488 L 69.3788,-123.165 L 69.4311,-122.834 L 69.4486,-122.5 L 69.4311,-122.166
 L 69.3788,-121.835 L 69.2921,-121.512 L 69.1721,-121.199 L 69.0094,-120.88 L 68.9806,-120.83 L 68.938,-120.734
 L 68.9056,-120.635 L 68.8839,-120.532 L 68.8729,-120.428 L 68.8729,-120.323 L 68.8838,-120.219 L 68.9056,-120.117
 L 68.9379,-120.017 L 68.9805,-119.922 L 69.0328,-119.831 L 69.0943,-119.746 L 69.1644,-119.669 L 69.2422,-119.599
 L 69.3268,-119.537 L 69.4175,-119.485 L 69.5131,-119.442 L 69.6127,-119.41 L 69.6332,-119.405 L 69.9592,-119.299
 L 70.265,-119.163 L 70.5549,-118.995 L 70.8258,-118.799 L 71.0746,-118.575 L 71.2986,-118.326 L 71.4955,-118.055
 L 71.6628,-117.765 L 71.799,-117.459 L 71.9097,-117.118 L 71.9246,-117.063 L 71.9621,-116.965 L 72.0096,-116.872
 L 72.0665,-116.784 L 72.1324,-116.703 L 72.2064,-116.629 L 72.2877,-116.563 L 72.3755,-116.506 L 72.4688,-116.458
 L 72.5665,-116.421 L 72.6676,-116.393 L 72.7709,-116.377 L 72.8755,-116.372 z
M 74.7073,-119.715 L 74.4179,-119.761 L 74.1348,-119.837 L 73.8611,-119.942 L 73.6,-120.075 L 73.3542,-120.235
 L 73.1264,-120.419 L 72.9192,-120.626 L 72.7348,-120.854 L 72.5751,-121.1 L 72.4421,-121.361 L 72.3371,-121.635
 L 72.2612,-121.918 L 72.2153,-122.207 L 72.2,-122.5 L 72.2153,-122.793 L 72.2612,-123.082 L 72.3371,-123.365
 L 72.4421,-123.639 L 72.5751,-123.9 L 72.7348,-124.146 L 72.9192,-124.374 L 73.1264,-124.581 L 73.3542,-124.765
 L 73.6,-124.925 L 73.8611,-125.058 L 74.1348,-125.163 L 74.4179,-125.239 L 74.7073,-125.285 L 75,-125.3
 L 75.2927,-125.285 L 75.5821,-125.239 L 75.8652,-125.163 L 76.1389,-125.058 L 76.4,-124.925 L 76.6458,-124.765
 L 76.8736,-124.581 L 77.0808,-124.374 L 77.2652,-124.146 L 77.4249,-123.9 L 77.5579,-123.639 L 77.6629,-123.365
 L 77.7388,-123.082 L 77.7847,-122.793 L 77.8,-122.5 L 77.7847,-122.207 L 77.7388,-121.918 L 77.6629,-121.635
 L 77.5579,-121.361 L 77.4249,-121.1 L 77.2652,-120.854 L 77.0808,-120.626 L 76.8736,-120.419 L 76.6458,-120.235
 L 76.4,-120.075 L 76.1389,-119.942 L 75.8652,-119.837 L 75.5821,-119.761 L 75.2927,-119.715 L 75,-119.7
 z
M 169.523,-100.027 L 170.04,-100.109 L 170.545,-100.245 L 171.034,-100.432 L 171.5,-100.67 L 171.939,-100.955
 L 172.346,-101.284 L 172.716,-101.654 L 173.045,-102.061 L 173.33,-102.5 L 173.568,-102.966 L 173.755,-103.455
 L 173.891,-103.96 L 173.973,-104.477 L 174,-105 L 173.973,-105.523 L 173.891,-106.04 L 173.755,-106.545
 L 173.568,-107.034 L 173.33,-107.5 L 173.045,-107.939 L 172.716,-108.346 L 172.346,-108.716 L 171.939,-109.045
 L 171.5,-109.33 L 171.034,-109.568 L 170.545,-109.755 L 170.04,-109.891 L 169.523,-109.973 L 169,-110
 L 168.477,-109.973 L 167.96,-109.891 L 167.455,-109.755 L 166.966,-109.568 L 166.5,-109.33 L 166.061,-109.045
 L 165.654,-108.716 L 165.284,-108.346 L 164.955,-107.939 L 164.67,-107.5 L 164.432,-107.034 L 164.245,-106.545
 L 164.109,-106.04 L 164.027,-105.523 L 164,-105 L 164.027,-104.477 L 164.109,-103.96 L 164.245,-103.455
 L 164.432,-102.966 L 164.67,-102.5 L 164.955,-102.061 L 165.284,-101.654 L 165.654,-101.284 L 166.061,-100.955
 L 166.5,-100.67 L 166.966,-100.432 L 167.455,-100.245 L 167.96,-100.109 L 168.477,-100.027 L 169,-100
 z
M 156.523,-100.027 L 157.04,-100.109 L 157.545,-100.245 L 158.034,-100.432 L 158.5,-100.67 L 158.939,-100.955
 L 159.346,-101.284 L 159.716,-101.654 L 160.045,-102.061 L 160.33,-102.5 L 160.568,-102.966 L 160.755,-103.455
 L 160.891,-103.96 L 160.973,-104.477 L 161,-105 L 160.973,-105.523 L 160.891,-106.04 L 160.755,-106.545
 L 160.568,-107.034 L 160.33,-107.5 L 160.045,-107.939 L 159.716,-108.346 L 159.346,-108.716 L 158.939,-109.045
 L 158.5,-109.33 L 158.034,-109.568 L 157.545,-109.755 L 157.04,-109.891 L 156.523,-109.973 L 156,-110
 L 155.477,-109.973 L 154.96,-109.891 L 154.455,-109.755 L 153.966,-109.568 L 153.5,-109.33 L 153.061,-109.045
 L 152.654,-108.716 L 152.284,-108.346 L 151.955,-107.939 L 151.67,-107.5 L 151.432,-107.034 L 151.245,-106.545
 L 151.109,-106.04 L 151.027,-105.523 L 151,-105 L 151.027,-104.477 L 151.109,-103.96 L 151.245,-103.455
 L 151.432,-102.966 L 151.67,-102.5 L 151.955,-102.061 L 152.284,-101.654 L 152.654,-101.284 L 153.061,-100.955
 L 153.5,-100.67 L 153.966,-100.432 L 154.455,-100.245 L 154.96,-100.109 L 155.477,-100.027 L 156,-100
 z
M 78.5226,-100.027 L 79.0396,-100.109 L 79.5451,-100.245 L 80.0337,-100.432 L 80.5,-100.67 L 80.9389,-100.955
 L 81.3456,-101.284 L 81.7157,-101.654 L 82.0451,-102.061 L 82.3301,-102.5 L 82.5677,-102.966 L 82.7553,-103.455
 L 82.8907,-103.96 L 82.9726,-104.477 L 83,-105 L 82.9726,-105.523 L 82.8907,-106.04 L 82.7553,-106.545
 L 82.5677,-107.034 L 82.3301,-107.5 L 82.0451,-107.939 L 81.7157,-108.346 L 81.3456,-108.716 L 80.9389,-109.045
 L 80.5,-109.33 L 80.0337,-109.568 L 79.5451,-109.755 L 79.0396,-109.891 L 78.5226,-109.973 L 78,-110
 L 77.4774,-109.973 L 76.9604,-109.891 L 76.4549,-109.755 L 75.9663,-109.568 L 75.5,-109.33 L 75.0611,-109.045
 L 74.6543,-108.716 L 74.2843,-108.346 L 73.9549,-107.939 L 73.6699,-107.5 L 73.4323,-107.034 L 73.2447,-106.545
 L 73.1093,-106.04 L 73.0274,-105.523 L 73,-105 L 73.0274,-104.477 L 73.1093,-103.96 L 73.2447,-103.455
 L 73.4323,-102.966 L 73.6699,-102.5 L 73.9549,-102.061 L 74.2843,-101.654 L 74.6543,-101.284 L 75.0611,-100.955
 L 75.5,-100.67 L 75.9663,-100.432 L 76.4549,-100.245 L 76.9604,-100.109 L 77.4774,-100.027 L 78,-100
 z
M 143.523,-100.027 L 144.04,-100.109 L 144.545,-100.245 L 145.034,-100.432 L 145.5,-100.67 L 145.939,-100.955
 L 146.346,-101.284 L 146.716,-101.654 L 147.045,-102.061 L 147.33,-102.5 L 147.568,-102.966 L 147.755,-103.455
 L 147.891,-103.96 L 147.973,-104.477 L 148,-105 L 147.973,-105.523 L 147.891,-106.04 L 147.755,-106.545
 L 147.568,-107.034 L 147.33,-107.5 L 147.045,-107.939 L 146.716,-108.346 L 146.346,-108.716 L 145.939,-109.045
 L 145.5,-109.33 L 145.034,-109.568 L 144.545,-109.755 L 144.04,-109.891 L 143.523,-109.973 L 143,-110
 L 142.477,-109.973 L 141.96,-109.891 L 141.455,-109.755 L 140.966,-109.568 L 140.5,-109.33 L 140.061,-109.045
 L 139.654,-108.716 L 139.284,-108.346 L 138.955,-107.939 L 138.67,-107.5 L 138.432,-107.034 L 138.245,-106.545
 L 138.109,-106.04 L 138.027,-105.523 L 138,-105 L 138.027,-104.477 L 138.109,-103.96 L 138.245,-103.455
 L 138.432,-102.966 L 138.67,-102.5 L 138.955,-102.061 L 139.284,-101.654 L 139.654,-101.284 L 140.061,-100.955
 L 140.5,-100.67 L 140.966,-100.432 L 141.455,-100.245 L 141.96,-100.109 L 142.477,-100.027 L 143,-100
 z
M 130.523,-100.027 L 131.04,-100.109 L 131.545,-100.245 L 132.034,-100.432 L 132.5,-100.67 L 132.939,-100.955
 L 133.346,-101.284 L 133.716,-101.654 L 134.045,-102.061 L 134.33,-102.5 L 134.568,-102.966 L 134.755,-103.455
 L 134.891,-103.96 L 134.973,-104.477 L 135,-105 L 134.973,-105.523 L 134.891,-106.04 L 134.755,-106.545
 L 134.568,-107.034 L 134.33,-107.5 L 134.045,-107.939 L 133.716,-108.346 L 133.346,-108.716 L 132.939,-109.045
 L 132.5,-109.33 L 132.034,-109.568 L 131.545,-109.755 L 131.04,-109.891 L 130.523,-109.973 L 130,-110
 L 129.477,-109.973 L 128.96,-109.891 L 128.455,-109.755 L 127.966,-109.568 L 127.5,-109.33 L 127.061,-109.045
 L 126.654,-108.716 L 126.284,-108.346 L 125.955,-107.939 L 125.67,-107.5 L 125.432,-107.034 L 125.245,-106.545
 L 125.109,-106.04 L 125.027,-105.523 L 125,-105 L 125.027,-104.477 L 125.109,-103.96 L 125.245,-103.455
 L 125.432,-102.966 L 125.67,-102.5 L 125.955,-102.061 L 126.284,-101.654 L 126.654,-101.284 L 127.061,-100.955
 L 127.5,-100.67 L 127.966,-100.432 L 128.455,-100.245 L 128.96,-100.109 L 129.477,-100.027 L 130,-100
 z
M 117.523,-100.027 L 118.04,-100.109 L 118.545,-100.245 L 119.034,-100.432 L 119.5,-100.67 L 119.939,-100.955
 L 120.346,-101.284 L 120.716,-101.654 L 121.045,-102.061 L 121.33,-102.5 L 121.568,-102.966 L 121.755,-103.455
 L 121.891,-103.96 L 121.973,-104.477 L 122,-105 L 121.973,-105.523 L 121.891,-106.04 L 121.755,-106.545
 L 121.568,-107.034 L 121.33,-107.5 L 121.045,-107.939 L 120.716,-108.346 L 120.346,-108.716 L 119.939,-109.045
 L 119.5,-109.33 L 119.034,-109.568 L 118.545,-109.755 L 118.04,-109.891 L 117.523,-109.973 L 117,-110
 L 116.477,-109.973 L 115.96,-109.891 L 115.455,-109.755 L 114.966,-109.568 L 114.5,-109.33 L 114.061,-109.045
 L 113.654,-108.716 L 113.284,-108.346 L 112.955,-107.939 L 112.67,-107.5 L 112.432,-107.034 L 112.245,-106.545
 L 112.109,-106.04 L 112.027,-105.523 L 112,-105 L 112.027,-104.477 L 112.109,-103.96 L 112.245,-103.455
 L 112.432,-102.966 L 112.67,-102.5 L 112.955,-102.061 L 113.284,-101.654 L 113.654,-101.284 L 114.061,-100.955
 L 114.5,-100.67 L 114.966,-100.432 L 115.455,-100.245 L 115.96,-100.109 L 116.477,-100.027 L 117,-100
 z
M 104.523,-100.027 L 105.04,-100.109 L 105.545,-100.245 L 106.034,-100.432 L 106.5,-100.67 L 106.939,-100.955
 L 107.346,-101.284 L 107.716,-101.654 L 108.045,-102.061 L 108.33,-102.5 L 108.568,-102.966 L 108.755,-103.455
 L 108.891,-103.96 L 108.973,-104.477 L 109,-105 L 108.973,-105.523 L 108.891,-106.04 L 108.755,-106.545
 L 108.568,-107.034 L 108.33,-107.5 L 108.045,-107.939 L 107.716,-108.346 L 107.346,-108.716 L 106.939,-109.045
 L 106.5,-109.33 L 106.034,-109.568 L 105.545,-109.755 L 105.04,-109.891 L 104.523,-109.973 L 104,-110
 L 103.477,-109.973 L 102.96,-109.891 L 102.455,-109.755 L 101.966,-109.568 L 101.5,-109.33 L 101.061,-109.045
 L 100.654,-108.716 L 100.284,-108.346 L 99.9549,-107.939 L 99.6699,-107.5 L 99.4323,-107.034 L 99.2447,-106.545
 L 99.1093,-106.04 L 99.0274,-105.523 L 99,-105 L 99.0274,-104.477 L 99.1093,-103.96 L 99.2447,-103.455
 L 99.4323,-102.966 L 99.6699,-102.5 L 99.9549,-102.061 L 100.284,-101.654 L 100.654,-101.284 L 101.061,-100.955
 L 101.5,-100.67 L 101.966,-100.432 L 102.455,-100.245 L 102.96,-100.109 L 103.477,-100.027 L 104,-100
 z
M 91.5226,-100.027 L 92.0396,-100.109 L 92.5451,-100.245 L 93.0337,-100.432 L 93.5,-100.67 L 93.9389,-100.955
 L 94.3456,-101.284 L 94.7157,-101.654 L 95.0451,-102.061 L 95.3301,-102.5 L 95.5677,-102.966 L 95.7553,-103.455
 L 95.8907,-103.96 L 95.9726,-104.477 L 96,-105 L 95.9726,-105.523 L 95.8907,-106.04 L 95.7553,-106.545
 L 95.5677,-107.034 L 95.3301,-107.5 L 95.0451,-107.939 L 94.7157,-108.346 L 94.3456,-108.716 L 93.9389,-109.045
 L 93.5,-109.33 L 93.0337,-109.568 L 92.5451,-109.755 L 92.0396,-109.891 L 91.5226,-109.973 L 91,-110
 L 90.4774,-109.973 L 89.9604,-109.891 L 89.4549,-109.755 L 88.9663,-109.568 L 88.5,-109.33 L 88.0611,-109.045
 L 87.6543,-108.716 L 87.2843,-108.346 L 86.9549,-107.939 L 86.6699,-107.5 L 86.4323,-107.034 L 86.2447,-106.545
 L 86.1093,-106.04 L 86.0274,-105.523 L 86,-105 L 86.0274,-104.477 L 86.1093,-103.96 L 86.2447,-103.455
 L 86.4323,-102.966 L 86.6699,-102.5 L 86.9549,-102.061 L 87.2843,-101.654 L 87.6543,-101.284 L 88.0611,-100.955
 L 88.5,-100.67 L 88.9663,-100.432 L 89.4549,-100.245 L 89.9604,-100.109 L 90.4774,-100.027 L 91,-100
 z
M 65.5226,-100.027 L 66.0396,-100.109 L 66.5451,-100.245 L 67.0337,-100.432 L 67.5,-100.67 L 67.9389,-100.955
 L 68.3456,-101.284 L 68.7157,-101.654 L 69.0451,-102.061 L 69.3301,-102.5 L 69.5677,-102.966 L 69.7553,-103.455
 L 69.8907,-103.96 L 69.9726,-104.477 L 70,-105 L 69.9726,-105.523 L 69.8907,-106.04 L 69.7553,-106.545
 L 69.5677,-107.034 L 69.3301,-107.5 L 69.0451,-107.939 L 68.7157,-108.346 L 68.3456,-108.716 L 67.9389,-109.045
 L 67.5,-109.33 L 67.0337,-109.568 L 66.5451,-109.755 L 66.0396,-109.891 L 65.5226,-109.973 L 65,-110
 L 64.4774,-109.973 L 63.9604,-109.891 L 63.4549,-109.755 L 62.9663,-109.568 L 62.5,-109.33 L 62.0611,-109.045
 L 61.6543,-108.716 L 61.2843,-108.346 L 60.9549,-107.939 L 60.6699,-107.5 L 60.4323,-107.034 L 60.2447,-106.545
 L 60.1093,-106.04 L 60.0274,-105.523 L 60,-105 L 60.0274,-104.477 L 60.1093,-103.96 L 60.2447,-103.455
 L 60.4323,-102.966 L 60.6699,-102.5 L 60.9549,-102.061 L 61.2843,-101.654 L 61.6543,-101.284 L 62.0611,-100.955
 L 62.5,-100.67 L 62.9663,-100.432 L 63.4549,-100.245 L 63.9604,-100.109 L 64.4774,-100.027 L 65,-100
 z
M 11.9059,-79.1049 L 11.8129,-79.1197 L 11.7219,-79.144 L 11.6339,-79.1778 L 11.55,-79.2206 L 11.471,-79.2719
 L 11.3978,-79.3312 L 11.3312,-79.3978 L 11.2719,-79.471 L 11.2206,-79.55 L 11.1778,-79.6339 L 11.144,-79.7219
 L 11.1197,-79.8129 L 11.1049,-79.9059 L 11.1,-80 L 11.1049,-80.0941 L 11.1197,-80.1871 L 11.144,-80.2781
 L 11.1778,-80.3661 L 11.2206,-80.45 L 11.2719,-80.529 L 11.3312,-80.6022 L 11.3978,-80.6688 L 11.471,-80.7281
 L 11.55,-80.7794 L 11.6339,-80.8222 L 11.7219,-80.8559 L 11.8129,-80.8803 L 11.9059,-80.8951 L 12,-80.9
 L 12.0941,-80.8951 L 12.1871,-80.8803 L 12.2781,-80.8559 L 12.3661,-80.8222 L 12.45,-80.7794 L 12.529,-80.7281
 L 12.6022,-80.6688 L 12.6688,-80.6022 L 12.7281,-80.529 L 12.7794,-80.45 L 12.8222,-80.3661 L 12.8559,-80.2781
 L 12.8803,-80.1871 L 12.8951,-80.0941 L 12.9,-80 L 12.8951,-79.9059 L 12.8803,-79.8129 L 12.8559,-79.7219
 L 12.8222,-79.6339 L 12.7794,-79.55 L 12.7281,-79.471 L 12.6688,-79.3978 L 12.6022,-79.3312 L 12.529,-79.2719
 L 12.45,-79.2206 L 12.3661,-79.1778 L 12.2781,-79.144 L 12.1871,-79.1197 L 12.0941,-79.1049 L 12,-79.1
 z
M 317.906,-79.1049 L 317.813,-79.1197 L 317.722,-79.144 L 317.634,-79.1778 L 317.55,-79.2206 L 317.471,-79.2719
 L 317.398,-79.3312 L 317.331,-79.3978 L 317.272,-79.471 L 317.221,-79.55 L 317.178,-79.6339 L 317.144,-79.7219
 L 317.12,-79.8129 L 317.105,-79.9059 L 317.1,-80 L 317.105,-80.0941 L 317.12,-80.1871 L 317.144,-80.2781
 L 317.178,-80.3661 L 317.221,-80.45 L 317.272,-80.529 L 317.331,-80.6022 L 317.398,-80.6688 L 317.471,-80.7281
 L 317.55,-80.7794 L 317.634,-80.8222 L 317.722,-80.8559 L 317.813,-80.8803 L 317.906,-80.8951 L 318,-80.9
 L 318.094,-80.8951 L 318.187,-80.8803 L 318.278,-80.8559 L 318.366,-80.8222 L 318.45,-80.7794 L 318.529,-80.7281
 L 318.602,-80.6688 L 318.669,-80.6022 L 318.728,-80.529 L 318.779,-80.45 L 318.822,-80.3661 L 318.856,-80.2781
 L 318.88,-80.1871 L 318.895,-80.0941 L 318.9,-80 L 318.895,-79.9059 L 318.88,-79.8129 L 318.856,-79.7219
 L 318.822,-79.6339 L 318.779,-79.55 L 318.728,-79.471 L 318.669,-79.3978 L 318.602,-79.3312 L 318.529,-79.2719
 L 318.45,-79.2206 L 318.366,-79.1778 L 318.278,-79.144 L 318.187,-79.1197 L 318.094,-79.1049 L 318,-79.1
 z
M 321.995,-0.000259399 L 322,-0 L 322.836,-0.0438385 L 323.663,-0.17482 L 324.472,-0.391556 L 325.254,-0.69165
 L 326,-1.07181 L 326.702,-1.52788 L 327.353,-2.05486 L 327.945,-2.64696 L 328.472,-3.29773 L 328.928,-4
 L 329.308,-4.74609 L 329.608,-5.52786 L 329.825,-6.3367 L 329.956,-7.16376 L 330,-8 L 330,-8.00499
 L 330,-8.00499 L 330,-61.995 L 330,-61.995 L 330,-62 L 329.956,-62.8362 L 329.825,-63.6633
 L 329.608,-64.4721 L 329.308,-65.2539 L 328.928,-66 L 328.472,-66.7023 L 327.945,-67.353 L 327.353,-67.9451
 L 326.702,-68.4721 L 326,-68.9282 L 325.254,-69.3083 L 324.472,-69.6084 L 323.663,-69.8252 L 322.836,-69.9562
 L 322,-70 L 321.995,-69.9997 L 321.995,-70 L 8.00499,-70 L 8.00499,-69.9997 L 8,-70
 L 7.16376,-69.9562 L 6.3367,-69.8252 L 5.52786,-69.6084 L 4.74609,-69.3083 L 4,-68.9282 L 3.29773,-68.4721
 L 2.64696,-67.9451 L 2.05486,-67.353 L 1.52788,-66.7023 L 1.07181,-66 L 0.69165,-65.2539 L 0.391556,-64.4721
 L 0.17482,-63.6633 L 0.0438385,-62.8362 L 0,-62 L 0.000259399,-61.995 L 0,-61.995 L 0,-8.00499
 L 0.000259399,-8.00499 L 0,-8 L 0.0438385,-7.16376 L 0.17482,-6.3367 L 0.391556,-5.52786 L 0.69165,-4.74609
 L 1.07181,-4 L 1.52788,-3.29773 L 2.05486,-2.64696 L 2.64696,-2.05486 L 3.29773,-1.52788 L 4,-1.07181
 L 4.74609,-0.69165 L 5.52786,-0.391556 L 6.3367,-0.17482 L 7.16376,-0.0438385 L 8,-0 L 8.00499,-0.000259399
 L 8.00499,-0 L 321.995,-0 z
M 40,-30.95 L 40,-39.05 L 290,-39.05 L 290,-30.95 z
M 23.1341,-31.5192 L 22.7723,-31.5765 L 22.4184,-31.6713 L 22.0764,-31.8026 L 21.75,-31.9689 L 21.4427,-32.1684
 L 21.158,-32.399 L 20.899,-32.658 L 20.6684,-32.9427 L 20.4689,-33.25 L 20.3026,-33.5764 L 20.1713,-33.9184
 L 20.0765,-34.2723 L 20.0192,-34.6341 L 20,-35 L 20.0192,-35.3658 L 20.0765,-35.7277 L 20.1713,-36.0816
 L 20.3026,-36.4236 L 20.4689,-36.75 L 20.6684,-37.0572 L 20.899,-37.3419 L 21.158,-37.601 L 21.4427,-37.8316
 L 21.75,-38.0311 L 22.0764,-38.1974 L 22.4184,-38.3287 L 22.7723,-38.4235 L 23.1341,-38.4808 L 23.5,-38.5
 L 23.8658,-38.4808 L 24.2277,-38.4235 L 24.5816,-38.3287 L 24.9236,-38.1974 L 25.25,-38.0311 L 25.5572,-37.8316
 L 25.8419,-37.601 L 26.101,-37.3419 L 26.3316,-37.0572 L 26.5311,-36.75 L 26.6974,-36.4236 L 26.8287,-36.0816
 L 26.9235,-35.7277 L 26.9808,-35.3658 L 27,-35 L 26.9808,-34.6341 L 26.9235,-34.2723 L 26.8287,-33.9184
 L 26.6974,-33.5764 L 26.5311,-33.25 L 26.3316,-32.9427 L 26.101,-32.658 L 25.8419,-32.399 L 25.5572,-32.1684
 L 25.25,-31.9689 L 24.9236,-31.8026 L 24.5816,-31.6713 L 24.2277,-31.5765 L 23.8658,-31.5192 L 23.5,-31.5
 z
" stroke="black" fill="lightgray" stroke-width="0.5"/>
</svg>
