<?xml version="1.0" standalone="no"?>
<!DOCTYPE svg PUBLIC "-//W3C//DTD SVG 1.1//EN" "http://www.w3.org/Graphics/SVG/1.1/DTD/svg11.dtd">
<svg width="330mm" height="435mm" viewBox="0 -435 330 435" xmlns="http://www.w3.org/2000/svg" version="1.1">
<title>OpenSCAD Model</title>
<path d="
M 321.995,-365 L 322,-365 L 322.836,-365.044 L 323.663,-365.175 L 324.472,-365.392 L 325.254,-365.692
 L 326,-366.072 L 326.702,-366.528 L 327.353,-367.055 L 327.945,-367.647 L 328.472,-368.298 L 328.928,-369
 L 329.308,-369.746 L 329.608,-370.528 L 329.825,-371.337 L 329.956,-372.164 L 330,-373 L 330,-373.005
 L 330,-373.005 L 330,-426.995 L 330,-426.995 L 330,-427 L 329.956,-427.836 L 329.825,-428.663
 L 329.608,-429.472 L 329.308,-430.254 L 328.928,-431 L 328.472,-431.702 L 327.945,-432.353 L 327.353,-432.945
 L 326.702,-433.472 L 326,-433.928 L 325.254,-434.308 L 324.472,-434.608 L 323.663,-434.825 L 322.836,-434.956
 L 322,-435 L 321.995,-435 L 321.995,-435 L 8.00499,-435 L 8.00499,-435 L 8,-435
 L 7.16376,-434.956 L 6.3367,-434.825 L 5.52786,-434.608 L 4.74609,-434.308 L 4,-433.928 L 3.29773,-433.472
 L 2.64696,-432.945 L 2.05486,-432.353 L 1.52788,-431.702 L 1.07181,-431 L 0.69165,-430.254 L 0.391556,-429.472
 L 0.17482,-428.663 L 0.0438385,-427.836 L 0,-427 L 0.000259399,-426.995 L 0,-426.995 L 0,-373.005
 L 0.000259399,-373.005 L 0,-373 L 0.0438385,-372.164 L 0.17482,-371.337 L 0.391556,-370.528 L 0.69165,-369.746
 L 1.07181,-369 L 1.52788,-368.298 L 2.05486,-367.647 L 2.64696,-367.055 L 3.29773,-366.528 L 4,-366.072
 L 4.74609,-365.692 L 5.52786,-365.392 L 6.3367,-365.175 L 7.16376,-365.044 L 8,-365 L 8.00499,-365
 L 8.00499,-365 L 321.995,-365 z
M 323.843,-427.508 L 323.688,-427.533 L 323.536,-427.573 L 323.39,-427.63 L 323.25,-427.701 L 323.118,-427.786
 L 322.996,-427.885 L 322.885,-427.996 L 322.786,-428.118 L 322.701,-428.25 L 322.63,-428.39 L 322.573,-428.536
 L 322.533,-428.688 L 322.508,-428.843 L 322.5,-429 L 322.508,-429.157 L 322.533,-429.312 L 322.573,-429.464
 L 322.63,-429.61 L 322.701,-429.75 L 322.786,-429.882 L 322.885,-430.004 L 322.996,-430.115 L 323.118,-430.214
 L 323.25,-430.299 L 323.39,-430.37 L 323.536,-430.427 L 323.688,-430.467 L 323.843,-430.492 L 324,-430.5
 L 324.157,-430.492 L 324.312,-430.467 L 324.464,-430.427 L 324.61,-430.37 L 324.75,-430.299 L 324.882,-430.214
 L 325.004,-430.115 L 325.115,-430.004 L 325.214,-429.882 L 325.299,-429.75 L 325.37,-429.61 L 325.427,-429.464
 L 325.467,-429.312 L 325.492,-429.157 L 325.5,-429 L 325.492,-428.843 L 325.467,-428.688 L 325.427,-428.536
 L 325.37,-428.39 L 325.299,-428.25 L 325.214,-428.118 L 325.115,-427.996 L 325.004,-427.885 L 324.882,-427.786
 L 324.75,-427.701 L 324.61,-427.63 L 324.464,-427.573 L 324.312,-427.533 L 324.157,-427.508 L 324,-427.5
 z
M 5.8432,-427.508 L 5.68813,-427.533 L 5.53647,-427.573 L 5.38989,-427.63 L 5.25,-427.701 L 5.11832,-427.786
 L 4.99629,-427.885 L 4.88527,-427.996 L 4.78647,-428.118 L 4.70096,-428.25 L 4.62967,-428.39 L 4.57341,-428.536
 L 4.53278,-428.688 L 4.50821,-428.843 L 4.5,-429 L 4.50821,-429.157 L 4.53278,-429.312 L 4.57341,-429.464
 L 4.62967,-429.61 L 4.70096,-429.75 L 4.78647,-429.882 L 4.88527,-430.004 L 4.99629,-430.115 L 5.11832,-430.214
 L 5.25,-430.299 L 5.38989,-430.37 L 5.53647,-430.427 L 5.68813,-430.467 L 5.8432,-430.492 L 6,-430.5
 L 6.15678,-430.492 L 6.31186,-430.467 L 6.46352,-430.427 L 6.61009,-430.37 L 6.75,-430.299 L 6.88167,-430.214
 L 7.00369,-430.115 L 7.11472,-430.004 L 7.21352,-429.882 L 7.29903,-429.75 L 7.37032,-429.61 L 7.42657,-429.464
 L 7.46721,-429.312 L 7.49178,-429.157 L 7.5,-429 L 7.49178,-428.843 L 7.46721,-428.688 L 7.42657,-428.536
 L 7.37032,-428.39 L 7.29903,-428.25 L 7.21352,-428.118 L 7.11472,-427.996 L 7.00369,-427.885 L 6.88167,-427.786
 L 6.75,-427.701 L 6.61009,-427.63 L 6.46352,-427.573 L 6.31186,-427.533 L 6.15678,-427.508 L 6,-427.5
 z
M 244.96,-405.25 L 246.46,-427 L 249.46,-427 L 250.96,-405.25 z
M 166.88,-405.25 L 168.38,-427 L 171.38,-427 L 172.88,-405.25 z
M 157.12,-405.25 L 158.62,-427 L 161.62,-427 L 163.12,-405.25 z
M 176.64,-405.25 L 178.14,-427 L 181.14,-427 L 182.64,-405.25 z
M 274.24,-405.25 L 275.74,-427 L 278.74,-427 L 280.24,-405.25 z
M 264.48,-405.25 L 265.98,-427 L 268.98,-427 L 270.48,-405.25 z
M 254.72,-405.25 L 256.22,-427 L 259.22,-427 L 260.72,-405.25 z
M 235.2,-405.25 L 236.7,-427 L 239.7,-427 L 241.2,-405.25 z
M 225.44,-405.25 L 226.94,-427 L 229.94,-427 L 231.44,-405.25 z
M 215.68,-405.25 L 217.18,-427 L 220.18,-427 L 221.68,-405.25 z
M 205.92,-405.25 L 207.42,-427 L 210.42,-427 L 211.92,-405.25 z
M 196.16,-405.25 L 197.66,-427 L 200.66,-427 L 202.16,-405.25 z
M 186.4,-405.25 L 187.9,-427 L 190.9,-427 L 192.4,-405.25 z
M 284,-405.25 L 285.5,-427 L 288.5,-427 L 290,-405.25 z
M 41.5,-372.99 L 41.2236,-377 L 40,-377 L 40,-392.5 L 26,-392.5 L 26,-407.5
 L 40,-407.5 L 40,-423 L 41.2241,-423 L 41.5,-427 L 44.5,-427 L 44.7759,-423
 L 50.9841,-423 L 51.26,-427 L 54.26,-427 L 54.5359,-423 L 60.7441,-423 L 61.02,-427
 L 64.02,-427 L 64.2959,-423 L 70.5041,-423 L 70.78,-427 L 73.78,-427 L 74.0559,-423
 L 80.2641,-423 L 80.54,-427 L 83.54,-427 L 83.8159,-423 L 90.0241,-423 L 90.3,-427
 L 93.3,-427 L 93.5759,-423 L 99.7841,-423 L 100.06,-427 L 103.06,-427 L 103.336,-423
 L 109.544,-423 L 109.82,-427 L 112.82,-427 L 113.096,-423 L 119.304,-423 L 119.58,-427
 L 122.58,-427 L 122.856,-423 L 129.064,-423 L 129.34,-427 L 132.34,-427 L 132.616,-423
 L 138.824,-423 L 139.1,-427 L 142.1,-427 L 143.445,-407.5 L 147.515,-407.5 L 148.86,-427
 L 151.86,-427 L 153.36,-405.25 L 153,-405.25 L 153,-394.75 L 153.36,-394.75 L 151.86,-372.99
 L 148.86,-372.99 L 147.515,-392.5 L 143.445,-392.5 L 142.1,-372.99 L 139.1,-372.99 L 138.824,-377
 L 132.616,-377 L 132.34,-372.99 L 129.34,-372.99 L 129.064,-377 L 122.856,-377 L 122.58,-372.99
 L 119.58,-372.99 L 119.304,-377 L 113.096,-377 L 112.82,-372.99 L 109.82,-372.99 L 109.544,-377
 L 103.336,-377 L 103.06,-372.99 L 100.06,-372.99 L 99.7836,-377 L 93.5764,-377 L 93.3,-372.99
 L 90.3,-372.99 L 90.0236,-377 L 83.8164,-377 L 83.54,-372.99 L 80.54,-372.99 L 80.2636,-377
 L 74.0564,-377 L 73.78,-372.99 L 70.78,-372.99 L 70.5036,-377 L 64.2964,-377 L 64.02,-372.99
 L 61.02,-372.99 L 60.7436,-377 L 54.5364,-377 L 54.26,-372.99 L 51.26,-372.99 L 50.9836,-377
 L 44.7764,-377 L 44.5,-372.99 z
M 207.42,-372.99 L 205.92,-394.75 L 211.92,-394.75 L 210.42,-372.99 z
M 187.9,-372.99 L 186.4,-394.75 L 192.4,-394.75 L 190.9,-372.99 z
M 197.66,-372.99 L 196.16,-394.75 L 202.16,-394.75 L 200.66,-372.99 z
M 285.5,-372.99 L 284,-394.75 L 290,-394.75 L 288.5,-372.99 z
M 275.74,-372.99 L 274.24,-394.75 L 280.24,-394.75 L 278.74,-372.99 z
M 265.98,-372.99 L 264.48,-394.75 L 270.48,-394.75 L 268.98,-372.99 z
M 256.22,-372.99 L 254.72,-394.75 L 260.72,-394.75 L 259.22,-372.99 z
M 246.46,-372.99 L 244.96,-394.75 L 250.96,-394.75 L 249.46,-372.99 z
M 236.7,-372.99 L 235.2,-394.75 L 241.2,-394.75 L 239.7,-372.99 z
M 226.94,-372.99 L 225.44,-394.75 L 231.44,-394.75 L 229.94,-372.99 z
M 217.18,-372.99 L 215.68,-394.75 L 221.68,-394.75 L 220.18,-372.99 z
M 168.38,-372.99 L 166.88,-394.75 L 172.88,-394.75 L 171.38,-372.99 z
M 178.14,-372.99 L 176.64,-394.75 L 182.64,-394.75 L 181.14,-372.99 z
M 158.62,-372.99 L 157.12,-394.75 L 163.12,-394.75 L 161.62,-372.99 z
M 323.843,-369.508 L 323.688,-369.533 L 323.536,-369.573 L 323.39,-369.63 L 323.25,-369.701 L 323.118,-369.786
 L 322.996,-369.885 L 322.885,-369.996 L 322.786,-370.118 L 322.701,-370.25 L 322.63,-370.39 L 322.573,-370.536
 L 322.533,-370.688 L 322.508,-370.843 L 322.5,-371 L 322.508,-371.157 L 322.533,-371.312 L 322.573,-371.464
 L 322.63,-371.61 L 322.701,-371.75 L 322.786,-371.882 L 322.885,-372.004 L 322.996,-372.115 L 323.118,-372.214
 L 323.25,-372.299 L 323.39,-372.37 L 323.536,-372.427 L 323.688,-372.467 L 323.843,-372.492 L 324,-372.5
 L 324.157,-372.492 L 324.312,-372.467 L 324.464,-372.427 L 324.61,-372.37 L 324.75,-372.299 L 324.882,-372.214
 L 325.004,-372.115 L 325.115,-372.004 L 325.214,-371.882 L 325.299,-371.75 L 325.37,-371.61 L 325.427,-371.464
 L 325.467,-371.312 L 325.492,-371.157 L 325.5,-371 L 325.492,-370.843 L 325.467,-370.688 L 325.427,-370.536
 L 325.37,-370.39 L 325.299,-370.25 L 325.214,-370.118 L 325.115,-369.996 L 325.004,-369.885 L 324.882,-369.786
 L 324.75,-369.701 L 324.61,-369.63 L 324.464,-369.573 L 324.312,-369.533 L 324.157,-369.508 L 324,-369.5
 z
M 5.8432,-369.508 L 5.68813,-369.533 L 5.53647,-369.573 L 5.38989,-369.63 L 5.25,-369.701 L 5.11832,-369.786
 L 4.99629,-369.885 L 4.88527,-369.996 L 4.78647,-370.118 L 4.70096,-370.25 L 4.62967,-370.39 L 4.57341,-370.536
 L 4.53278,-370.688 L 4.50821,-370.843 L 4.5,-371 L 4.50821,-371.157 L 4.53278,-371.312 L 4.57341,-371.464
 L 4.62967,-371.61 L 4.70096,-371.75 L 4.78647,-371.882 L 4.88527,-372.004 L 4.99629,-372.115 L 5.11832,-372.214
 L 5.25,-372.299 L 5.38989,-372.37 L 5.53647,-372.427 L 5.68813,-372.467 L 5.8432,-372.492 L 6,-372.5
 L 6.15678,-372.492 L 6.31186,-372.467 L 6.46352,-372.427 L 6.61009,-372.37 L 6.75,-372.299 L 6.88167,-372.214
 L 7.00369,-372.115 L 7.11472,-372.004 L 7.21352,-371.882 L 7.29903,-371.75 L 7.37032,-371.61 L 7.42657,-371.464
 L 7.46721,-371.312 L 7.49178,-371.157 L 7.5,-371 L 7.49178,-370.843 L 7.46721,-370.688 L 7.42657,-370.536
 L 7.37032,-370.39 L 7.29903,-370.25 L 7.21352,-370.118 L 7.11472,-369.996 L 7.00369,-369.885 L 6.88167,-369.786
 L 6.75,-369.701 L 6.61009,-369.63 L 6.46352,-369.573 L 6.31186,-369.533 L 6.15678,-369.508 L 6,-369.5
 z
M 321.995,-292 L 322,-292 L 322.836,-292.044 L 323.663,-292.175 L 324.472,-292.392 L 325.254,-292.692
 L 326,-293.072 L 326.702,-293.528 L 327.353,-294.055 L 327.945,-294.647 L 328.472,-295.298 L 328.928,-296
 L 329.308,-296.746 L 329.608,-297.528 L 329.825,-298.337 L 329.956,-299.164 L 330,-300 L 330,-300.005
 L 330,-300.005 L 330,-353.995 L 330,-353.995 L 330,-354 L 329.956,-354.836 L 329.825,-355.663
 L 329.608,-356.472 L 329.308,-357.254 L 328.928,-358 L 328.472,-358.702 L 327.945,-359.353 L 327.353,-359.945
 L 326.702,-360.472 L 326,-360.928 L 325.254,-361.308 L 324.472,-361.608 L 323.663,-361.825 L 322.836,-361.956
 L 322,-362 L 321.995,-362 L 321.995,-362 L 8.00499,-362 L 8.00499,-362 L 8,-362
 L 7.16376,-361.956 L 6.3367,-361.825 L 5.52786,-361.608 L 4.74609,-361.308 L 4,-360.928 L 3.29773,-360.472
 L 2.64696,-359.945 L 2.05486,-359.353 L 1.52788,-358.702 L 1.07181,-358 L 0.69165,-357.254 L 0.391556,-356.472
 L 0.17482,-355.663 L 0.0438385,-354.836 L 0,-354 L 0.000259399,-353.995 L 0,-353.995 L 0,-300.005
 L 0.000259399,-300.005 L 0,-300 L 0.0438385,-299.164 L 0.17482,-298.337 L 0.391556,-297.528 L 0.69165,-296.746
 L 1.07181,-296 L 1.52788,-295.298 L 2.05486,-294.647 L 2.64696,-294.055 L 3.29773,-293.528 L 4,-293.072
 L 4.74609,-292.692 L 5.52786,-292.392 L 6.3367,-292.175 L 7.16376,-292.044 L 8,-292 L 8.00499,-292
 L 8.00499,-292 L 321.995,-292 z
M 323.843,-354.508 L 323.688,-354.533 L 323.536,-354.573 L 323.39,-354.63 L 323.25,-354.701 L 323.118,-354.786
 L 322.996,-354.885 L 322.885,-354.996 L 322.786,-355.118 L 322.701,-355.25 L 322.63,-355.39 L 322.573,-355.536
 L 322.533,-355.688 L 322.508,-355.843 L 322.5,-356 L 322.508,-356.157 L 322.533,-356.312 L 322.573,-356.464
 L 322.63,-356.61 L 322.701,-356.75 L 322.786,-356.882 L 322.885,-357.004 L 322.996,-357.115 L 323.118,-357.214
 L 323.25,-357.299 L 323.39,-357.37 L 323.536,-357.427 L 323.688,-357.467 L 323.843,-357.492 L 324,-357.5
 L 324.157,-357.492 L 324.312,-357.467 L 324.464,-357.427 L 324.61,-357.37 L 324.75,-357.299 L 324.882,-357.214
 L 325.004,-357.115 L 325.115,-357.004 L 325.214,-356.882 L 325.299,-356.75 L 325.37,-356.61 L 325.427,-356.464
 L 325.467,-356.312 L 325.492,-356.157 L 325.5,-356 L 325.492,-355.843 L 325.467,-355.688 L 325.427,-355.536
 L 325.37,-355.39 L 325.299,-355.25 L 325.214,-355.118 L 325.115,-354.996 L 325.004,-354.885 L 324.882,-354.786
 L 324.75,-354.701 L 324.61,-354.63 L 324.464,-354.573 L 324.312,-354.533 L 324.157,-354.508 L 324,-354.5
 z
M 5.8432,-354.508 L 5.68813,-354.533 L 5.53647,-354.573 L 5.38989,-354.63 L 5.25,-354.701 L 5.11832,-354.786
 L 4.99629,-354.885 L 4.88527,-354.996 L 4.78647,-355.118 L 4.70096,-355.25 L 4.62967,-355.39 L 4.57341,-355.536
 L 4.53278,-355.688 L 4.50821,-355.843 L 4.5,-356 L 4.50821,-356.157 L 4.53278,-356.312 L 4.57341,-356.464
 L 4.62967,-356.61 L 4.70096,-356.75 L 4.78647,-356.882 L 4.88527,-357.004 L 4.99629,-357.115 L 5.11832,-357.214
 L 5.25,-357.299 L 5.38989,-357.37 L 5.53647,-357.427 L 5.68813,-357.467 L 5.8432,-357.492 L 6,-357.5
 L 6.15678,-357.492 L 6.31186,-357.467 L 6.46352,-357.427 L 6.61009,-357.37 L 6.75,-357.299 L 6.88167,-357.214
 L 7.00369,-357.115 L 7.11472,-357.004 L 7.21352,-356.882 L 7.29903,-356.75 L 7.37032,-356.61 L 7.42657,-356.464
 L 7.46721,-356.312 L 7.49178,-356.157 L 7.5,-356 L 7.49178,-355.843 L 7.46721,-355.688 L 7.42657,-355.536
 L 7.37032,-355.39 L 7.29903,-355.25 L 7.21352,-355.118 L 7.11472,-354.996 L 7.00369,-354.885 L 6.88167,-354.786
 L 6.75,-354.701 L 6.61009,-354.63 L 6.46352,-354.573 L 6.31186,-354.533 L 6.15678,-354.508 L 6,-354.5
 z
M 41.5,-299.99 L 41.2236,-304 L 40,-304 L 40,-319.5 L 33,-319.5 L 33,-308.6
 L 7,-308.6 L 7,-339.6 L 33,-339.6 L 33,-334.5 L 40,-334.5 L 40,-350
 L 41.2241,-350 L 41.5,-354 L 44.5,-354 L 44.7759,-350 L 50.9841,-350 L 51.26,-354
 L 54.26,-354 L 54.5359,-350 L 60.7441,-350 L 61.02,-354 L 64.02,-354 L 64.2959,-350
 L 70.5041,-350 L 70.78,-354 L 73.78,-354 L 74.0559,-350 L 80.2641,-350 L 80.54,-354
 L 83.54,-354 L 83.8159,-350 L 90.0241,-350 L 90.3,-354 L 93.3,-354 L 93.5759,-350
 L 99.7841,-350 L 100.06,-354 L 103.06,-354 L 103.336,-350 L 109.544,-350 L 109.82,-354
 L 112.82,-354 L 113.096,-350 L 119.304,-350 L 119.58,-354 L 122.58,-354 L 122.856,-350
 L 129.064,-350 L 129.34,-354 L 132.34,-354 L 132.616,-350 L 138.824,-350 L 139.1,-354
 L 142.1,-354 L 143.445,-334.5 L 147.515,-334.5 L 148.86,-354 L 151.86,-354 L 153.36,-332.25
 L 153,-332.25 L 153,-321.75 L 153.36,-321.75 L 151.86,-299.99 L 148.86,-299.99 L 147.515,-319.5
 L 143.445,-319.5 L 142.1,-299.99 L 139.1,-299.99 L 138.824,-304 L 132.616,-304 L 132.34,-299.99
 L 129.34,-299.99 L 129.064,-304 L 122.856,-304 L 122.58,-299.99 L 119.58,-299.99 L 119.304,-304
 L 113.096,-304 L 112.82,-299.99 L 109.82,-299.99 L 109.544,-304 L 103.336,-304 L 103.06,-299.99
 L 100.06,-299.99 L 99.7836,-304 L 93.5764,-304 L 93.3,-299.99 L 90.3,-299.99 L 90.0236,-304
 L 83.8164,-304 L 83.54,-299.99 L 80.54,-299.99 L 80.2636,-304 L 74.0564,-304 L 73.78,-299.99
 L 70.78,-299.99 L 70.5036,-304 L 64.2964,-304 L 64.02,-299.99 L 61.02,-299.99 L 60.7436,-304
 L 54.5364,-304 L 54.26,-299.99 L 51.26,-299.99 L 50.9836,-304 L 44.7764,-304 L 44.5,-299.99
 z
M 196.16,-332.25 L 197.66,-354 L 200.66,-354 L 202.16,-332.25 z
M 205.92,-332.25 L 207.42,-354 L 210.42,-354 L 211.92,-332.25 z
M 284,-332.25 L 285.5,-354 L 288.5,-354 L 290,-332.25 z
M 166.88,-332.25 L 168.38,-354 L 171.38,-354 L 172.88,-332.25 z
M 186.4,-332.25 L 187.9,-354 L 190.9,-354 L 192.4,-332.25 z
M 244.96,-332.25 L 246.46,-354 L 249.46,-354 L 250.96,-332.25 z
M 157.12,-332.25 L 158.62,-354 L 161.62,-354 L 163.12,-332.25 z
M 176.64,-332.25 L 178.14,-354 L 181.14,-354 L 182.64,-332.25 z
M 274.24,-332.25 L 275.74,-354 L 278.74,-354 L 280.24,-332.25 z
M 264.48,-332.25 L 265.98,-354 L 268.98,-354 L 270.48,-332.25 z
M 254.72,-332.25 L 256.22,-354 L 259.22,-354 L 260.72,-332.25 z
M 235.2,-332.25 L 236.7,-354 L 239.7,-354 L 241.2,-332.25 z
M 225.44,-332.25 L 226.94,-354 L 229.94,-354 L 231.44,-332.25 z
M 215.68,-332.25 L 217.18,-354 L 220.18,-354 L 221.68,-332.25 z
M 236.7,-299.99 L 235.2,-321.75 L 241.2,-321.75 L 239.7,-299.99 z
M 285.5,-299.99 L 284,-321.75 L 290,-321.75 L 288.5,-299.99 z
M 275.74,-299.99 L 274.24,-321.75 L 280.24,-321.75 L 278.74,-299.99 z
M 265.98,-299.99 L 264.48,-321.75 L 270.48,-321.75 L 268.98,-299.99 z
M 168.38,-299.99 L 166.88,-321.75 L 172.88,-321.75 L 171.38,-299.99 z
M 158.62,-299.99 L 157.12,-321.75 L 163.12,-321.75 L 161.62,-299.99 z
M 178.14,-299.99 L 176.64,-321.75 L 182.64,-321.75 L 181.14,-299.99 z
M 187.9,-299.99 L 186.4,-321.75 L 192.4,-321.75 L 190.9,-299.99 z
M 197.66,-299.99 L 196.16,-321.75 L 202.16,-321.75 L 200.66,-299.99 z
M 207.42,-299.99 L 205.92,-321.75 L 211.92,-321.75 L 210.42,-299.99 z
M 217.18,-299.99 L 215.68,-321.75 L 221.68,-321.75 L 220.18,-299.99 z
M 246.46,-299.99 L 244.96,-321.75 L 250.96,-321.75 L 249.46,-299.99 z
M 256.22,-299.99 L 254.72,-321.75 L 260.72,-321.75 L 259.22,-299.99 z
M 226.94,-299.99 L 225.44,-321.75 L 231.44,-321.75 L 229.94,-299.99 z
M 323.843,-296.508 L 323.688,-296.533 L 323.536,-296.573 L 323.39,-296.63 L 323.25,-296.701 L 323.118,-296.786
 L 322.996,-296.885 L 322.885,-296.996 L 322.786,-297.118 L 322.701,-297.25 L 322.63,-297.39 L 322.573,-297.536
 L 322.533,-297.688 L 322.508,-297.843 L 322.5,-298 L 322.508,-298.157 L 322.533,-298.312 L 322.573,-298.464
 L 322.63,-298.61 L 322.701,-298.75 L 322.786,-298.882 L 322.885,-299.004 L 322.996,-299.115 L 323.118,-299.214
 L 323.25,-299.299 L 323.39,-299.37 L 323.536,-299.427 L 323.688,-299.467 L 323.843,-299.492 L 324,-299.5
 L 324.157,-299.492 L 324.312,-299.467 L 324.464,-299.427 L 324.61,-299.37 L 324.75,-299.299 L 324.882,-299.214
 L 325.004,-299.115 L 325.115,-299.004 L 325.214,-298.882 L 325.299,-298.75 L 325.37,-298.61 L 325.427,-298.464
 L 325.467,-298.312 L 325.492,-298.157 L 325.5,-298 L 325.492,-297.843 L 325.467,-297.688 L 325.427,-297.536
 L 325.37,-297.39 L 325.299,-297.25 L 325.214,-297.118 L 325.115,-296.996 L 325.004,-296.885 L 324.882,-296.786
 L 324.75,-296.701 L 324.61,-296.63 L 324.464,-296.573 L 324.312,-296.533 L 324.157,-296.508 L 324,-296.5
 z
M 5.8432,-296.508 L 5.68813,-296.533 L 5.53647,-296.573 L 5.38989,-296.63 L 5.25,-296.701 L 5.11832,-296.786
 L 4.99629,-296.885 L 4.88527,-296.996 L 4.78647,-297.118 L 4.70096,-297.25 L 4.62967,-297.39 L 4.57341,-297.536
 L 4.53278,-297.688 L 4.50821,-297.843 L 4.5,-298 L 4.50821,-298.157 L 4.53278,-298.312 L 4.57341,-298.464
 L 4.62967,-298.61 L 4.70096,-298.75 L 4.78647,-298.882 L 4.88527,-299.004 L 4.99629,-299.115 L 5.11832,-299.214
 L 5.25,-299.299 L 5.38989,-299.37 L 5.53647,-299.427 L 5.68813,-299.467 L 5.8432,-299.492 L 6,-299.5
 L 6.15678,-299.492 L 6.31186,-299.467 L 6.46352,-299.427 L 6.61009,-299.37 L 6.75,-299.299 L 6.88167,-299.214
 L 7.00369,-299.115 L 7.11472,-299.004 L 7.21352,-298.882 L 7.29903,-298.75 L 7.37032,-298.61 L 7.42657,-298.464
 L 7.46721,-298.312 L 7.49178,-298.157 L 7.5,-298 L 7.49178,-297.843 L 7.46721,-297.688 L 7.42657,-297.536
 L 7.37032,-297.39 L 7.29903,-297.25 L 7.21352,-297.118 L 7.11472,-296.996 L 7.00369,-296.885 L 6.88167,-296.786
 L 6.75,-296.701 L 6.61009,-296.63 L 6.46352,-296.573 L 6.31186,-296.533 L 6.15678,-296.508 L 6,-296.5
 z
M 40.8345,-232.193 L 40.8411,-232.185 L 41.2852,-231.741 L 41.7733,-231.346 L 42.3,-231.004 L 42.8596,-230.719
 L 43.4459,-230.494 L 44.0525,-230.331 L 44.6728,-230.233 L 45.0656,-230.212 L 44.5005,-219 L 51.2595,-219
 L 50.5395,-233.285 L 50.7813,-233.76 L 51.0063,-234.346 L 51.1689,-234.953 L 51.2671,-235.573 L 51.3,-236.2
 L 51.2671,-236.827 L 51.1689,-237.447 L 51.0063,-238.054 L 50.7813,-238.64 L 50.4961,-239.2 L 50.2199,-239.625
 L 49.76,-248.75 L 55.76,-248.75 L 54.2605,-219 L 61.0195,-219 L 59.52,-248.75 L 65.52,-248.75
 L 64.0205,-219 L 70.7795,-219 L 69.28,-248.75 L 75.28,-248.75 L 73.7805,-219 L 80.5395,-219
 L 79.04,-248.75 L 85.04,-248.75 L 83.5405,-219 L 90.2995,-219 L 88.8,-248.75 L 94.8,-248.75
 L 93.3005,-219 L 100.059,-219 L 98.56,-248.75 L 104.56,-248.75 L 103.061,-219 L 109.819,-219
 L 108.32,-248.75 L 114.32,-248.75 L 112.82,-219 L 119.579,-219 L 118.08,-248.75 L 124.08,-248.75
 L 122.58,-219 L 129.339,-219 L 127.84,-248.75 L 133.84,-248.75 L 132.34,-219 L 139.099,-219
 L 137.6,-248.75 L 143.6,-248.75 L 142.1,-219 L 148.859,-219 L 147.36,-248.75 L 153.36,-248.75
 L 151.86,-219 L 158.619,-219 L 157.12,-248.75 L 163.12,-248.75 L 161.62,-219 L 168.379,-219
 L 166.88,-248.75 L 172.88,-248.75 L 171.38,-219 L 178.139,-219 L 176.64,-248.75 L 182.64,-248.75
 L 181.141,-219 L 187.899,-219 L 186.4,-248.75 L 192.4,-248.75 L 190.9,-219 L 197.659,-219
 L 196.16,-248.75 L 202.16,-248.75 L 200.66,-219 L 207.419,-219 L 205.92,-248.75 L 211.92,-248.75
 L 210.421,-219 L 217.179,-219 L 215.68,-248.75 L 221.68,-248.75 L 220.18,-219 L 226.939,-219
 L 225.44,-248.75 L 231.44,-248.75 L 229.94,-219 L 236.699,-219 L 235.2,-248.75 L 241.2,-248.75
 L 239.701,-219 L 246.459,-219 L 244.96,-248.75 L 250.96,-248.75 L 249.46,-219 L 256.219,-219
 L 254.72,-248.75 L 260.72,-248.75 L 259.22,-219 L 265.979,-219 L 264.48,-248.75 L 270.48,-248.75
 L 268.98,-219 L 275.739,-219 L 274.24,-248.75 L 280.24,-248.75 L 278.74,-219 L 285.499,-219
 L 284,-248.75 L 290,-248.75 L 288.501,-219 L 321.995,-219 L 321.995,-219 L 322,-219
 L 322.836,-219.044 L 323.663,-219.175 L 324.472,-219.392 L 325.254,-219.692 L 326,-220.072 L 326.702,-220.528
 L 327.353,-221.055 L 327.945,-221.647 L 328.472,-222.298 L 328.928,-223 L 329.308,-223.746 L 329.608,-224.528
 L 329.825,-225.337 L 329.956,-226.164 L 330,-227 L 330,-227.005 L 330,-227.005 L 330,-280.995
 L 330,-280.995 L 330,-281 L 329.956,-281.836 L 329.825,-282.663 L 329.608,-283.472 L 329.308,-284.254
 L 328.928,-285 L 328.472,-285.702 L 327.945,-286.353 L 327.353,-286.945 L 326.702,-287.472 L 326,-287.928
 L 325.254,-288.308 L 324.472,-288.608 L 323.663,-288.825 L 322.836,-288.956 L 322,-289 L 321.995,-289
 L 321.995,-289 L 288.5,-289 L 290,-259.25 L 284,-259.25 L 285.5,-289 L 278.74,-289
 L 280.24,-259.25 L 274.24,-259.25 L 275.74,-289 L 268.98,-289 L 270.48,-259.25 L 264.48,-259.25
 L 265.98,-289 L 259.22,-289 L 260.72,-259.25 L 254.72,-259.25 L 256.22,-289 L 249.46,-289
 L 250.96,-259.25 L 244.96,-259.25 L 246.46,-289 L 239.7,-289 L 241.2,-259.25 L 235.2,-259.25
 L 236.7,-289 L 229.94,-289 L 231.44,-259.25 L 225.44,-259.25 L 226.94,-289 L 220.18,-289
 L 221.68,-259.25 L 215.68,-259.25 L 217.18,-289 L 210.42,-289 L 211.92,-259.25 L 205.92,-259.25
 L 207.42,-289 L 200.66,-289 L 202.16,-259.25 L 196.16,-259.25 L 197.66,-289 L 190.9,-289
 L 192.4,-259.25 L 186.4,-259.25 L 187.9,-289 L 181.14,-289 L 182.64,-259.25 L 176.64,-259.25
 L 178.14,-289 L 171.38,-289 L 172.88,-259.25 L 166.88,-259.25 L 168.38,-289 L 161.62,-289
 L 163.12,-259.25 L 157.12,-259.25 L 158.62,-289 L 151.86,-289 L 153.36,-259.25 L 147.36,-259.25
 L 148.86,-289 L 142.1,-289 L 143.6,-259.25 L 137.6,-259.25 L 138.024,-267.65 L 138.159,-267.785
 L 138.554,-268.273 L 138.896,-268.8 L 139.181,-269.36 L 139.406,-269.946 L 139.569,-270.553 L 139.667,-271.173
 L 139.7,-271.8 L 139.667,-272.427 L 139.569,-273.047 L 139.406,-273.654 L 139.181,-274.24 L 138.896,-274.8
 L 138.554,-275.327 L 138.419,-275.494 L 139.1,-289 L 132.34,-289 L 132.908,-277.741 L 132.453,-277.669
 L 131.846,-277.506 L 131.26,-277.281 L 130.7,-276.996 L 130.173,-276.654 L 129.685,-276.259 L 129.241,-275.815
 L 128.846,-275.327 L 128.634,-275.001 L 129.34,-289 L 122.58,-289 L 124.08,-259.25 L 118.08,-259.25
 L 119.58,-289 L 112.82,-289 L 114.32,-259.25 L 108.32,-259.25 L 109.82,-289 L 103.06,-289
 L 104.56,-259.25 L 98.56,-259.25 L 100.06,-289 L 93.3,-289 L 94.8,-259.25 L 88.8,-259.25
 L 90.3,-289 L 83.54,-289 L 85.04,-259.25 L 79.04,-259.25 L 80.54,-289 L 73.78,-289
 L 75.28,-259.25 L 69.28,-259.25 L 70.78,-289 L 64.02,-289 L 65.52,-259.25 L 59.52,-259.25
 L 61.02,-289 L 54.26,-289 L 55.76,-259.25 L 49.76,-259.25 L 51.26,-289 L 44.5,-289
 L 46,-259.25 L 40,-259.25 L 41.5,-289 L 8.00499,-289 L 8.00499,-289 L 8,-289
 L 7.16376,-288.956 L 6.3367,-288.825 L 5.52786,-288.608 L 4.74609,-288.308 L 4,-287.928 L 3.29773,-287.472
 L 2.64696,-286.945 L 2.05486,-286.353 L 1.52788,-285.702 L 1.07181,-285 L 0.69165,-284.254 L 0.391556,-283.472
 L 0.17482,-282.663 L 0.0438385,-281.836 L 0,-281 L 0.000259399,-280.995 L 0,-280.995 L 0,-227.005
 L 0.000259399,-227.005 L 0,-227 L 0.0438385,-226.164 L 0.17482,-225.337 L 0.391556,-224.528 L 0.69165,-223.746
 L 1.07181,-223 L 1.52788,-222.298 L 2.05486,-221.647 L 2.64696,-221.055 L 3.29773,-220.528 L 4,-220.072
 L 4.74609,-219.692 L 5.52786,-219.392 L 6.3367,-219.175 L 7.16376,-219.044 L 8,-219 L 8.00499,-219
 L 8.00499,-219 L 41.4995,-219 z
M 323.843,-281.508 L 323.688,-281.533 L 323.536,-281.573 L 323.39,-281.63 L 323.25,-281.701 L 323.118,-281.786
 L 322.996,-281.885 L 322.885,-281.996 L 322.786,-282.118 L 322.701,-282.25 L 322.63,-282.39 L 322.573,-282.536
 L 322.533,-282.688 L 322.508,-282.843 L 322.5,-283 L 322.508,-283.157 L 322.533,-283.312 L 322.573,-283.464
 L 322.63,-283.61 L 322.701,-283.75 L 322.786,-283.882 L 322.885,-284.004 L 322.996,-284.115 L 323.118,-284.214
 L 323.25,-284.299 L 323.39,-284.37 L 323.536,-284.427 L 323.688,-284.467 L 323.843,-284.492 L 324,-284.5
 L 324.157,-284.492 L 324.312,-284.467 L 324.464,-284.427 L 324.61,-284.37 L 324.75,-284.299 L 324.882,-284.214
 L 325.004,-284.115 L 325.115,-284.004 L 325.214,-283.882 L 325.299,-283.75 L 325.37,-283.61 L 325.427,-283.464
 L 325.467,-283.312 L 325.492,-283.157 L 325.5,-283 L 325.492,-282.843 L 325.467,-282.688 L 325.427,-282.536
 L 325.37,-282.39 L 325.299,-282.25 L 325.214,-282.118 L 325.115,-281.996 L 325.004,-281.885 L 324.882,-281.786
 L 324.75,-281.701 L 324.61,-281.63 L 324.464,-281.573 L 324.312,-281.533 L 324.157,-281.508 L 324,-281.5
 z
M 5.8432,-281.508 L 5.68813,-281.533 L 5.53647,-281.573 L 5.38989,-281.63 L 5.25,-281.701 L 5.11832,-281.786
 L 4.99629,-281.885 L 4.88527,-281.996 L 4.78647,-282.118 L 4.70096,-282.25 L 4.62967,-282.39 L 4.57341,-282.536
 L 4.53278,-282.688 L 4.50821,-282.843 L 4.5,-283 L 4.50821,-283.157 L 4.53278,-283.312 L 4.57341,-283.464
 L 4.62967,-283.61 L 4.70096,-283.75 L 4.78647,-283.882 L 4.88527,-284.004 L 4.99629,-284.115 L 5.11832,-284.214
 L 5.25,-284.299 L 5.38989,-284.37 L 5.53647,-284.427 L 5.68813,-284.467 L 5.8432,-284.492 L 6,-284.5
 L 6.15678,-284.492 L 6.31186,-284.467 L 6.46352,-284.427 L 6.61009,-284.37 L 6.75,-284.299 L 6.88167,-284.214
 L 7.00369,-284.115 L 7.11472,-284.004 L 7.21352,-283.882 L 7.29903,-283.75 L 7.37032,-283.61 L 7.42657,-283.464
 L 7.46721,-283.312 L 7.49178,-283.157 L 7.5,-283 L 7.49178,-282.843 L 7.46721,-282.688 L 7.42657,-282.536
 L 7.37032,-282.39 L 7.29903,-282.25 L 7.21352,-282.118 L 7.11472,-281.996 L 7.00369,-281.885 L 6.88167,-281.786
 L 6.75,-281.701 L 6.61009,-281.63 L 6.46352,-281.573 L 6.31186,-281.533 L 6.15678,-281.508 L 6,-281.5
 z
M 127.84,-259.25 L 128.338,-269.126 L 128.504,-268.8 L 128.846,-268.273 L 129.241,-267.785 L 129.685,-267.341
 L 130.173,-266.946 L 130.7,-266.604 L 131.26,-266.319 L 131.846,-266.094 L 132.453,-265.931 L 133.073,-265.833
 L 133.509,-265.81 L 133.84,-259.25 z
M 7,-235.6 L 7,-266.6 L 33,-266.6 L 33,-235.6 z
M 40,-248.75 L 46,-248.75 L 45.6689,-242.181 L 45.3,-242.2 L 44.6728,-242.167 L 44.0525,-242.069
 L 43.4459,-241.906 L 42.8596,-241.681 L 42.3,-241.396 L 41.7733,-241.054 L 41.2852,-240.659 L 40.8411,-240.215
 L 40.4543,-239.737 z
M 323.843,-223.508 L 323.688,-223.533 L 323.536,-223.573 L 323.39,-223.63 L 323.25,-223.701 L 323.118,-223.786
 L 322.996,-223.885 L 322.885,-223.996 L 322.786,-224.118 L 322.701,-224.25 L 322.63,-224.39 L 322.573,-224.536
 L 322.533,-224.688 L 322.508,-224.843 L 322.5,-225 L 322.508,-225.157 L 322.533,-225.312 L 322.573,-225.464
 L 322.63,-225.61 L 322.701,-225.75 L 322.786,-225.882 L 322.885,-226.004 L 322.996,-226.115 L 323.118,-226.214
 L 323.25,-226.299 L 323.39,-226.37 L 323.536,-226.427 L 323.688,-226.467 L 323.843,-226.492 L 324,-226.5
 L 324.157,-226.492 L 324.312,-226.467 L 324.464,-226.427 L 324.61,-226.37 L 324.75,-226.299 L 324.882,-226.214
 L 325.004,-226.115 L 325.115,-226.004 L 325.214,-225.882 L 325.299,-225.75 L 325.37,-225.61 L 325.427,-225.464
 L 325.467,-225.312 L 325.492,-225.157 L 325.5,-225 L 325.492,-224.843 L 325.467,-224.688 L 325.427,-224.536
 L 325.37,-224.39 L 325.299,-224.25 L 325.214,-224.118 L 325.115,-223.996 L 325.004,-223.885 L 324.882,-223.786
 L 324.75,-223.701 L 324.61,-223.63 L 324.464,-223.573 L 324.312,-223.533 L 324.157,-223.508 L 324,-223.5
 z
M 5.8432,-223.508 L 5.68813,-223.533 L 5.53647,-223.573 L 5.38989,-223.63 L 5.25,-223.701 L 5.11832,-223.786
 L 4.99629,-223.885 L 4.88527,-223.996 L 4.78647,-224.118 L 4.70096,-224.25 L 4.62967,-224.39 L 4.57341,-224.536
 L 4.53278,-224.688 L 4.50821,-224.843 L 4.5,-225 L 4.50821,-225.157 L 4.53278,-225.312 L 4.57341,-225.464
 L 4.62967,-225.61 L 4.70096,-225.75 L 4.78647,-225.882 L 4.88527,-226.004 L 4.99629,-226.115 L 5.11832,-226.214
 L 5.25,-226.299 L 5.38989,-226.37 L 5.53647,-226.427 L 5.68813,-226.467 L 5.8432,-226.492 L 6,-226.5
 L 6.15678,-226.492 L 6.31186,-226.467 L 6.46352,-226.427 L 6.61009,-226.37 L 6.75,-226.299 L 6.88167,-226.214
 L 7.00369,-226.115 L 7.11472,-226.004 L 7.21352,-225.882 L 7.29903,-225.75 L 7.37032,-225.61 L 7.42657,-225.464
 L 7.46721,-225.312 L 7.49178,-225.157 L 7.5,-225 L 7.49178,-224.843 L 7.46721,-224.688 L 7.42657,-224.536
 L 7.37032,-224.39 L 7.29903,-224.25 L 7.21352,-224.118 L 7.11472,-223.996 L 7.00369,-223.885 L 6.88167,-223.786
 L 6.75,-223.701 L 6.61009,-223.63 L 6.46352,-223.573 L 6.31186,-223.533 L 6.15678,-223.508 L 6,-223.5
 z
M 321.995,-146 L 322,-146 L 322.836,-146.044 L 323.663,-146.175 L 324.472,-146.392 L 325.254,-146.692
 L 326,-147.072 L 326.702,-147.528 L 327.353,-148.055 L 327.945,-148.647 L 328.472,-149.298 L 328.928,-150
 L 329.308,-150.746 L 329.608,-151.528 L 329.825,-152.337 L 329.956,-153.164 L 330,-154 L 330,-154.005
 L 330,-154.005 L 330,-207.995 L 330,-207.995 L 330,-208 L 329.956,-208.836 L 329.825,-209.663
 L 329.608,-210.472 L 329.308,-211.254 L 328.928,-212 L 328.472,-212.702 L 327.945,-213.353 L 327.353,-213.945
 L 326.702,-214.472 L 326,-214.928 L 325.254,-215.308 L 324.472,-215.608 L 323.663,-215.825 L 322.836,-215.956
 L 322,-216 L 321.995,-216 L 321.995,-216 L 8.00499,-216 L 8.00499,-216 L 8,-216
 L 7.16376,-215.956 L 6.3367,-215.825 L 5.52786,-215.608 L 4.74609,-215.308 L 4,-214.928 L 3.29773,-214.472
 L 2.64696,-213.945 L 2.05486,-213.353 L 1.52788,-212.702 L 1.07181,-212 L 0.69165,-211.254 L 0.391556,-210.472
 L 0.17482,-209.663 L 0.0438385,-208.836 L 0,-208 L 0.000259399,-207.995 L 0,-207.995 L 0,-154.005
 L 0.000259399,-154.005 L 0,-154 L 0.0438385,-153.164 L 0.17482,-152.337 L 0.391556,-151.528 L 0.69165,-150.746
 L 1.07181,-150 L 1.52788,-149.298 L 2.05486,-148.647 L 2.64696,-148.055 L 3.29773,-147.528 L 4,-147.072
 L 4.74609,-146.692 L 5.52786,-146.392 L 6.3367,-146.175 L 7.16376,-146.044 L 8,-146 L 8.00499,-146
 L 8.00499,-146 L 321.995,-146 z
M 323.843,-208.508 L 323.688,-208.533 L 323.536,-208.573 L 323.39,-208.63 L 323.25,-208.701 L 323.118,-208.786
 L 322.996,-208.885 L 322.885,-208.996 L 322.786,-209.118 L 322.701,-209.25 L 322.63,-209.39 L 322.573,-209.536
 L 322.533,-209.688 L 322.508,-209.843 L 322.5,-210 L 322.508,-210.157 L 322.533,-210.312 L 322.573,-210.464
 L 322.63,-210.61 L 322.701,-210.75 L 322.786,-210.882 L 322.885,-211.004 L 322.996,-211.115 L 323.118,-211.214
 L 323.25,-211.299 L 323.39,-211.37 L 323.536,-211.427 L 323.688,-211.467 L 323.843,-211.492 L 324,-211.5
 L 324.157,-211.492 L 324.312,-211.467 L 324.464,-211.427 L 324.61,-211.37 L 324.75,-211.299 L 324.882,-211.214
 L 325.004,-211.115 L 325.115,-211.004 L 325.214,-210.882 L 325.299,-210.75 L 325.37,-210.61 L 325.427,-210.464
 L 325.467,-210.312 L 325.492,-210.157 L 325.5,-210 L 325.492,-209.843 L 325.467,-209.688 L 325.427,-209.536
 L 325.37,-209.39 L 325.299,-209.25 L 325.214,-209.118 L 325.115,-208.996 L 325.004,-208.885 L 324.882,-208.786
 L 324.75,-208.701 L 324.61,-208.63 L 324.464,-208.573 L 324.312,-208.533 L 324.157,-208.508 L 324,-208.5
 z
M 5.8432,-208.508 L 5.68813,-208.533 L 5.53647,-208.573 L 5.38989,-208.63 L 5.25,-208.701 L 5.11832,-208.786
 L 4.99629,-208.885 L 4.88527,-208.996 L 4.78647,-209.118 L 4.70096,-209.25 L 4.62967,-209.39 L 4.57341,-209.536
 L 4.53278,-209.688 L 4.50821,-209.843 L 4.5,-210 L 4.50821,-210.157 L 4.53278,-210.312 L 4.57341,-210.464
 L 4.62967,-210.61 L 4.70096,-210.75 L 4.78647,-210.882 L 4.88527,-211.004 L 4.99629,-211.115 L 5.11832,-211.214
 L 5.25,-211.299 L 5.38989,-211.37 L 5.53647,-211.427 L 5.68813,-211.467 L 5.8432,-211.492 L 6,-211.5
 L 6.15678,-211.492 L 6.31186,-211.467 L 6.46352,-211.427 L 6.61009,-211.37 L 6.75,-211.299 L 6.88167,-211.214
 L 7.00369,-211.115 L 7.11472,-211.004 L 7.21352,-210.882 L 7.29903,-210.75 L 7.37032,-210.61 L 7.42657,-210.464
 L 7.46721,-210.312 L 7.49178,-210.157 L 7.5,-210 L 7.49178,-209.843 L 7.46721,-209.688 L 7.42657,-209.536
 L 7.37032,-209.39 L 7.29903,-209.25 L 7.21352,-209.118 L 7.11472,-208.996 L 7.00369,-208.885 L 6.88167,-208.786
 L 6.75,-208.701 L 6.61009,-208.63 L 6.46352,-208.573 L 6.31186,-208.533 L 6.15678,-208.508 L 6,-208.5
 z
M 52,-155.917 L 52,-176.925 L 33,-176.925 L 33,-162.6 L 7,-162.6 L 7,-193.6
 L 33,-193.6 L 33,-185.075 L 52,-185.075 L 52,-206.083 L 278,-206.083 L 278,-185.075
 L 290,-185.075 L 290,-176.925 L 278,-176.925 L 278,-155.917 z
M 5.8432,-150.508 L 5.68813,-150.533 L 5.53647,-150.573 L 5.38989,-150.63 L 5.25,-150.701 L 5.11832,-150.786
 L 4.99629,-150.885 L 4.88527,-150.996 L 4.78647,-151.118 L 4.70096,-151.25 L 4.62967,-151.39 L 4.57341,-151.536
 L 4.53278,-151.688 L 4.50821,-151.843 L 4.5,-152 L 4.50821,-152.157 L 4.53278,-152.312 L 4.57341,-152.464
 L 4.62967,-152.61 L 4.70096,-152.75 L 4.78647,-152.882 L 4.88527,-153.004 L 4.99629,-153.115 L 5.11832,-153.214
 L 5.25,-153.299 L 5.38989,-153.37 L 5.53647,-153.427 L 5.68813,-153.467 L 5.8432,-153.492 L 6,-153.5
 L 6.15678,-153.492 L 6.31186,-153.467 L 6.46352,-153.427 L 6.61009,-153.37 L 6.75,-153.299 L 6.88167,-153.214
 L 7.00369,-153.115 L 7.11472,-153.004 L 7.21352,-152.882 L 7.29903,-152.75 L 7.37032,-152.61 L 7.42657,-152.464
 L 7.46721,-152.312 L 7.49178,-152.157 L 7.5,-152 L 7.49178,-151.843 L 7.46721,-151.688 L 7.42657,-151.536
 L 7.37032,-151.39 L 7.29903,-151.25 L 7.21352,-151.118 L 7.11472,-150.996 L 7.00369,-150.885 L 6.88167,-150.786
 L 6.75,-150.701 L 6.61009,-150.63 L 6.46352,-150.573 L 6.31186,-150.533 L 6.15678,-150.508 L 6,-150.5
 z
M 323.843,-150.508 L 323.688,-150.533 L 323.536,-150.573 L 323.39,-150.63 L 323.25,-150.701 L 323.118,-150.786
 L 322.996,-150.885 L 322.885,-150.996 L 322.786,-151.118 L 322.701,-151.25 L 322.63,-151.39 L 322.573,-151.536
 L 322.533,-151.688 L 322.508,-151.843 L 322.5,-152 L 322.508,-152.157 L 322.533,-152.312 L 322.573,-152.464
 L 322.63,-152.61 L 322.701,-152.75 L 322.786,-152.882 L 322.885,-153.004 L 322.996,-153.115 L 323.118,-153.214
 L 323.25,-153.299 L 323.39,-153.37 L 323.536,-153.427 L 323.688,-153.467 L 323.843,-153.492 L 324,-153.5
 L 324.157,-153.492 L 324.312,-153.467 L 324.464,-153.427 L 324.61,-153.37 L 324.75,-153.299 L 324.882,-153.214
 L 325.004,-153.115 L 325.115,-153.004 L 325.214,-152.882 L 325.299,-152.75 L 325.37,-152.61 L 325.427,-152.464
 L 325.467,-152.312 L 325.492,-152.157 L 325.5,-152 L 325.492,-151.843 L 325.467,-151.688 L 325.427,-151.536
 L 325.37,-151.39 L 325.299,-151.25 L 325.214,-151.118 L 325.115,-150.996 L 325.004,-150.885 L 324.882,-150.786
 L 324.75,-150.701 L 324.61,-150.63 L 324.464,-150.573 L 324.312,-150.533 L 324.157,-150.508 L 324,-150.5
 z
M 321.995,-73.0003 L 322,-73 L 322.836,-73.0438 L 323.663,-73.1748 L 324.472,-73.3916 L 325.254,-73.6917
 L 326,-74.0718 L 326.702,-74.5279 L 327.353,-75.0549 L 327.945,-75.647 L 328.472,-76.2977 L 328.928,-77
 L 329.308,-77.7461 L 329.608,-78.5279 L 329.825,-79.3367 L 329.956,-80.1638 L 330,-81 L 330,-81.005
 L 330,-81.005 L 330,-134.995 L 330,-134.995 L 330,-135 L 329.956,-135.836 L 329.825,-136.663
 L 329.608,-137.472 L 329.308,-138.254 L 328.928,-139 L 328.472,-139.702 L 327.945,-140.353 L 327.353,-140.945
 L 326.702,-141.472 L 326,-141.928 L 325.254,-142.308 L 324.472,-142.608 L 323.663,-142.825 L 322.836,-142.956
 L 322,-143 L 321.995,-143 L 321.995,-143 L 8.00499,-143 L 8.00499,-143 L 8,-143
 L 7.16376,-142.956 L 6.3367,-142.825 L 5.52786,-142.608 L 4.74609,-142.308 L 4,-141.928 L 3.29773,-141.472
 L 2.64696,-140.945 L 2.05486,-140.353 L 1.52788,-139.702 L 1.07181,-139 L 0.69165,-138.254 L 0.391556,-137.472
 L 0.17482,-136.663 L 0.0438385,-135.836 L 0,-135 L 0.000259399,-134.995 L 0,-134.995 L 0,-81.005
 L 0.000259399,-81.005 L 0,-81 L 0.0438385,-80.1638 L 0.17482,-79.3367 L 0.391556,-78.5279 L 0.69165,-77.7461
 L 1.07181,-77 L 1.52788,-76.2977 L 2.05486,-75.647 L 2.64696,-75.0549 L 3.29773,-74.5279 L 4,-74.0718
 L 4.74609,-73.6917 L 5.52786,-73.3916 L 6.3367,-73.1748 L 7.16376,-73.0438 L 8,-73 L 8.00499,-73.0003
 L 8.00499,-73 L 321.995,-73 z
M 323.843,-135.508 L 323.688,-135.533 L 323.536,-135.573 L 323.39,-135.63 L 323.25,-135.701 L 323.118,-135.786
 L 322.996,-135.885 L 322.885,-135.996 L 322.786,-136.118 L 322.701,-136.25 L 322.63,-136.39 L 322.573,-136.536
 L 322.533,-136.688 L 322.508,-136.843 L 322.5,-137 L 322.508,-137.157 L 322.533,-137.312 L 322.573,-137.464
 L 322.63,-137.61 L 322.701,-137.75 L 322.786,-137.882 L 322.885,-138.004 L 322.996,-138.115 L 323.118,-138.214
 L 323.25,-138.299 L 323.39,-138.37 L 323.536,-138.427 L 323.688,-138.467 L 323.843,-138.492 L 324,-138.5
 L 324.157,-138.492 L 324.312,-138.467 L 324.464,-138.427 L 324.61,-138.37 L 324.75,-138.299 L 324.882,-138.214
 L 325.004,-138.115 L 325.115,-138.004 L 325.214,-137.882 L 325.299,-137.75 L 325.37,-137.61 L 325.427,-137.464
 L 325.467,-137.312 L 325.492,-137.157 L 325.5,-137 L 325.492,-136.843 L 325.467,-136.688 L 325.427,-136.536
 L 325.37,-136.39 L 325.299,-136.25 L 325.214,-136.118 L 325.115,-135.996 L 325.004,-135.885 L 324.882,-135.786
 L 324.75,-135.701 L 324.61,-135.63 L 324.464,-135.573 L 324.312,-135.533 L 324.157,-135.508 L 324,-135.5
 z
M 5.8432,-135.508 L 5.68813,-135.533 L 5.53647,-135.573 L 5.38989,-135.63 L 5.25,-135.701 L 5.11832,-135.786
 L 4.99629,-135.885 L 4.88527,-135.996 L 4.78647,-136.118 L 4.70096,-136.25 L 4.62967,-136.39 L 4.57341,-136.536
 L 4.53278,-136.688 L 4.50821,-136.843 L 4.5,-137 L 4.50821,-137.157 L 4.53278,-137.312 L 4.57341,-137.464
 L 4.62967,-137.61 L 4.70096,-137.75 L 4.78647,-137.882 L 4.88527,-138.004 L 4.99629,-138.115 L 5.11832,-138.214
 L 5.25,-138.299 L 5.38989,-138.37 L 5.53647,-138.427 L 5.68813,-138.467 L 5.8432,-138.492 L 6,-138.5
 L 6.15678,-138.492 L 6.31186,-138.467 L 6.46352,-138.427 L 6.61009,-138.37 L 6.75,-138.299 L 6.88167,-138.214
 L 7.00369,-138.115 L 7.11472,-138.004 L 7.21352,-137.882 L 7.29903,-137.75 L 7.37032,-137.61 L 7.42657,-137.464
 L 7.46721,-137.312 L 7.49178,-137.157 L 7.5,-137 L 7.49178,-136.843 L 7.46721,-136.688 L 7.42657,-136.536
 L 7.37032,-136.39 L 7.29903,-136.25 L 7.21352,-136.118 L 7.11472,-135.996 L 7.00369,-135.885 L 6.88167,-135.786
 L 6.75,-135.701 L 6.61009,-135.63 L 6.46352,-135.573 L 6.31186,-135.533 L 6.15678,-135.508 L 6,-135.5
 z
M 52,-82.9167 L 52,-103.925 L 33,-103.925 L 33,-89.6 L 7,-89.6 L 7,-120.6
 L 33,-120.6 L 33,-112.075 L 52,-112.075 L 52,-133.083 L 278,-133.083 L 278,-112.075
 L 290,-112.075 L 290,-103.925 L 278,-103.925 L 278,-82.9167 z
M 169.523,-100.027 L 170.04,-100.109 L 170.545,-100.245 L 171.034,-100.432 L 171.5,-100.67 L 171.939,-100.955
 L 172.346,-101.284 L 172.716,-101.654 L 173.045,-102.061 L 173.33,-102.5 L 173.568,-102.966 L 173.755,-103.455
 L 173.891,-103.96 L 173.973,-104.477 L 174,-105 L 173.973,-105.523 L 173.891,-106.04 L 173.755,-106.545
 L 173.568,-107.034 L 173.33,-107.5 L 173.045,-107.939 L 172.716,-108.346 L 172.346,-108.716 L 171.939,-109.045
 L 171.5,-109.33 L 171.034,-109.568 L 170.545,-109.755 L 170.04,-109.891 L 169.523,-109.973 L 169,-110
 L 168.477,-109.973 L 167.96,-109.891 L 167.455,-109.755 L 166.966,-109.568 L 166.5,-109.33 L 166.061,-109.045
 L 165.654,-108.716 L 165.284,-108.346 L 164.955,-107.939 L 164.67,-107.5 L 164.432,-107.034 L 164.245,-106.545
 L 164.109,-106.04 L 164.027,-105.523 L 164,-105 L 164.027,-104.477 L 164.109,-103.96 L 164.245,-103.455
 L 164.432,-102.966 L 164.67,-102.5 L 164.955,-102.061 L 165.284,-101.654 L 165.654,-101.284 L 166.061,-100.955
 L 166.5,-100.67 L 166.966,-100.432 L 167.455,-100.245 L 167.96,-100.109 L 168.477,-100.027 L 169,-100
 z
M 156.523,-100.027 L 157.04,-100.109 L 157.545,-100.245 L 158.034,-100.432 L 158.5,-100.67 L 158.939,-100.955
 L 159.346,-101.284 L 159.716,-101.654 L 160.045,-102.061 L 160.33,-102.5 L 160.568,-102.966 L 160.755,-103.455
 L 160.891,-103.96 L 160.973,-104.477 L 161,-105 L 160.973,-105.523 L 160.891,-106.04 L 160.755,-106.545
 L 160.568,-107.034 L 160.33,-107.5 L 160.045,-107.939 L 159.716,-108.346 L 159.346,-108.716 L 158.939,-109.045
 L 158.5,-109.33 L 158.034,-109.568 L 157.545,-109.755 L 157.04,-109.891 L 156.523,-109.973 L 156,-110
 L 155.477,-109.973 L 154.96,-109.891 L 154.455,-109.755 L 153.966,-109.568 L 153.5,-109.33 L 153.061,-109.045
 L 152.654,-108.716 L 152.284,-108.346 L 151.955,-107.939 L 151.67,-107.5 L 151.432,-107.034 L 151.245,-106.545
 L 151.109,-106.04 L 151.027,-105.523 L 151,-105 L 151.027,-104.477 L 151.109,-103.96 L 151.245,-103.455
 L 151.432,-102.966 L 151.67,-102.5 L 151.955,-102.061 L 152.284,-101.654 L 152.654,-101.284 L 153.061,-100.955
 L 153.5,-100.67 L 153.966,-100.432 L 154.455,-100.245 L 154.96,-100.109 L 155.477,-100.027 L 156,-100
 z
M 143.523,-100.027 L 144.04,-100.109 L 144.545,-100.245 L 145.034,-100.432 L 145.5,-100.67 L 145.939,-100.955
 L 146.346,-101.284 L 146.716,-101.654 L 147.045,-102.061 L 147.33,-102.5 L 147.568,-102.966 L 147.755,-103.455
 L 147.891,-103.96 L 147.973,-104.477 L 148,-105 L 147.973,-105.523 L 147.891,-106.04 L 147.755,-106.545
 L 147.568,-107.034 L 147.33,-107.5 L 147.045,-107.939 L 146.716,-108.346 L 146.346,-108.716 L 145.939,-109.045
 L 145.5,-109.33 L 145.034,-109.568 L 144.545,-109.755 L 144.04,-109.891 L 143.523,-109.973 L 143,-110
 L 142.477,-109.973 L 141.96,-109.891 L 141.455,-109.755 L 140.966,-109.568 L 140.5,-109.33 L 140.061,-109.045
 L 139.654,-108.716 L 139.284,-108.346 L 138.955,-107.939 L 138.67,-107.5 L 138.432,-107.034 L 138.245,-106.545
 L 138.109,-106.04 L 138.027,-105.523 L 138,-105 L 138.027,-104.477 L 138.109,-103.96 L 138.245,-103.455
 L 138.432,-102.966 L 138.67,-102.5 L 138.955,-102.061 L 139.284,-101.654 L 139.654,-101.284 L 140.061,-100.955
 L 140.5,-100.67 L 140.966,-100.432 L 141.455,-100.245 L 141.96,-100.109 L 142.477,-100.027 L 143,-100
 z
M 130.523,-100.027 L 131.04,-100.109 L 131.545,-100.245 L 132.034,-100.432 L 132.5,-100.67 L 132.939,-100.955
 L 133.346,-101.284 L 133.716,-101.654 L 134.045,-102.061 L 134.33,-102.5 L 134.568,-102.966 L 134.755,-103.455
 L 134.891,-103.96 L 134.973,-104.477 L 135,-105 L 134.973,-105.523 L 134.891,-106.04 L 134.755,-106.545
 L 134.568,-107.034 L 134.33,-107.5 L 134.045,-107.939 L 133.716,-108.346 L 133.346,-108.716 L 132.939,-109.045
 L 132.5,-109.33 L 132.034,-109.568 L 131.545,-109.755 L 131.04,-109.891 L 130.523,-109.973 L 130,-110
 L 129.477,-109.973 L 128.96,-109.891 L 128.455,-109.755 L 127.966,-109.568 L 127.5,-109.33 L 127.061,-109.045
 L 126.654,-108.716 L 126.284,-108.346 L 125.955,-107.939 L 125.67,-107.5 L 125.432,-107.034 L 125.245,-106.545
 L 125.109,-106.04 L 125.027,-105.523 L 125,-105 L 125.027,-104.477 L 125.109,-103.96 L 125.245,-103.455
 L 125.432,-102.966 L 125.67,-102.5 L 125.955,-102.061 L 126.284,-101.654 L 126.654,-101.284 L 127.061,-100.955
 L 127.5,-100.67 L 127.966,-100.432 L 128.455,-100.245 L 128.96,-100.109 L 129.477,-100.027 L 130,-100
 z
M 117.523,-100.027 L 118.04,-100.109 L 118.545,-100.245 L 119.034,-100.432 L 119.5,-100.67 L 119.939,-100.955
 L 120.346,-101.284 L 120.716,-101.654 L 121.045,-102.061 L 121.33,-102.5 L 121.568,-102.966 L 121.755,-103.455
 L 121.891,-103.96 L 121.973,-104.477 L 122,-105 L 121.973,-105.523 L 121.891,-106.04 L 121.755,-106.545
 L 121.568,-107.034 L 121.33,-107.5 L 121.045,-107.939 L 120.716,-108.346 L 120.346,-108.716 L 119.939,-109.045
 L 119.5,-109.33 L 119.034,-109.568 L 118.545,-109.755 L 118.04,-109.891 L 117.523,-109.973 L 117,-110
 L 116.477,-109.973 L 115.96,-109.891 L 115.455,-109.755 L 114.966,-109.568 L 114.5,-109.33 L 114.061,-109.045
 L 113.654,-108.716 L 113.284,-108.346 L 112.955,-107.939 L 112.67,-107.5 L 112.432,-107.034 L 112.245,-106.545
 L 112.109,-106.04 L 112.027,-105.523 L 112,-105 L 112.027,-104.477 L 112.109,-103.96 L 112.245,-103.455
 L 112.432,-102.966 L 112.67,-102.5 L 112.955,-102.061 L 113.284,-101.654 L 113.654,-101.284 L 114.061,-100.955
 L 114.5,-100.67 L 114.966,-100.432 L 115.455,-100.245 L 115.96,-100.109 L 116.477,-100.027 L 117,-100
 z
M 104.523,-100.027 L 105.04,-100.109 L 105.545,-100.245 L 106.034,-100.432 L 106.5,-100.67 L 106.939,-100.955
 L 107.346,-101.284 L 107.716,-101.654 L 108.045,-102.061 L 108.33,-102.5 L 108.568,-102.966 L 108.755,-103.455
 L 108.891,-103.96 L 108.973,-104.477 L 109,-105 L 108.973,-105.523 L 108.891,-106.04 L 108.755,-106.545
 L 108.568,-107.034 L 108.33,-107.5 L 108.045,-107.939 L 107.716,-108.346 L 107.346,-108.716 L 106.939,-109.045
 L 106.5,-109.33 L 106.034,-109.568 L 105.545,-109.755 L 105.04,-109.891 L 104.523,-109.973 L 104,-110
 L 103.477,-109.973 L 102.96,-109.891 L 102.455,-109.755 L 101.966,-109.568 L 101.5,-109.33 L 101.061,-109.045
 L 100.654,-108.716 L 100.284,-108.346 L 99.9549,-107.939 L 99.6699,-107.5 L 99.4323,-107.034 L 99.2447,-106.545
 L 99.1093,-106.04 L 99.0274,-105.523 L 99,-105 L 99.0274,-104.477 L 99.1093,-103.96 L 99.2447,-103.455
 L 99.4323,-102.966 L 99.6699,-102.5 L 99.9549,-102.061 L 100.284,-101.654 L 100.654,-101.284 L 101.061,-100.955
 L 101.5,-100.67 L 101.966,-100.432 L 102.455,-100.245 L 102.96,-100.109 L 103.477,-100.027 L 104,-100
 z
M 91.5226,-100.027 L 92.0396,-100.109 L 92.5451,-100.245 L 93.0337,-100.432 L 93.5,-100.67 L 93.9389,-100.955
 L 94.3456,-101.284 L 94.7157,-101.654 L 95.0451,-102.061 L 95.3301,-102.5 L 95.5677,-102.966 L 95.7553,-103.455
 L 95.8907,-103.96 L 95.9726,-104.477 L 96,-105 L 95.9726,-105.523 L 95.8907,-106.04 L 95.7553,-106.545
 L 95.5677,-107.034 L 95.3301,-107.5 L 95.0451,-107.939 L 94.7157,-108.346 L 94.3456,-108.716 L 93.9389,-109.045
 L 93.5,-109.33 L 93.0337,-109.568 L 92.5451,-109.755 L 92.0396,-109.891 L 91.5226,-109.973 L 91,-110
 L 90.4774,-109.973 L 89.9604,-109.891 L 89.4549,-109.755 L 88.9663,-109.568 L 88.5,-109.33 L 88.0611,-109.045
 L 87.6543,-108.716 L 87.2843,-108.346 L 86.9549,-107.939 L 86.6699,-107.5 L 86.4323,-107.034 L 86.2447,-106.545
 L 86.1093,-106.04 L 86.0274,-105.523 L 86,-105 L 86.0274,-104.477 L 86.1093,-103.96 L 86.2447,-103.455
 L 86.4323,-102.966 L 86.6699,-102.5 L 86.9549,-102.061 L 87.2843,-101.654 L 87.6543,-101.284 L 88.0611,-100.955
 L 88.5,-100.67 L 88.9663,-100.432 L 89.4549,-100.245 L 89.9604,-100.109 L 90.4774,-100.027 L 91,-100
 z
M 78.5226,-100.027 L 79.0396,-100.109 L 79.5451,-100.245 L 80.0337,-100.432 L 80.5,-100.67 L 80.9389,-100.955
 L 81.3456,-101.284 L 81.7157,-101.654 L 82.0451,-102.061 L 82.3301,-102.5 L 82.5677,-102.966 L 82.7553,-103.455
 L 82.8907,-103.96 L 82.9726,-104.477 L 83,-105 L 82.9726,-105.523 L 82.8907,-106.04 L 82.7553,-106.545
 L 82.5677,-107.034 L 82.3301,-107.5 L 82.0451,-107.939 L 81.7157,-108.346 L 81.3456,-108.716 L 80.9389,-109.045
 L 80.5,-109.33 L 80.0337,-109.568 L 79.5451,-109.755 L 79.0396,-109.891 L 78.5226,-109.973 L 78,-110
 L 77.4774,-109.973 L 76.9604,-109.891 L 76.4549,-109.755 L 75.9663,-109.568 L 75.5,-109.33 L 75.0611,-109.045
 L 74.6543,-108.716 L 74.2843,-108.346 L 73.9549,-107.939 L 73.6699,-107.5 L 73.4323,-107.034 L 73.2447,-106.545
 L 73.1093,-106.04 L 73.0274,-105.523 L 73,-105 L 73.0274,-104.477 L 73.1093,-103.96 L 73.2447,-103.455
 L 73.4323,-102.966 L 73.6699,-102.5 L 73.9549,-102.061 L 74.2843,-101.654 L 74.6543,-101.284 L 75.0611,-100.955
 L 75.5,-100.67 L 75.9663,-100.432 L 76.4549,-100.245 L 76.9604,-100.109 L 77.4774,-100.027 L 78,-100
 z
M 65.5226,-100.027 L 66.0396,-100.109 L 66.5451,-100.245 L 67.0337,-100.432 L 67.5,-100.67 L 67.9389,-100.955
 L 68.3456,-101.284 L 68.7157,-101.654 L 69.0451,-102.061 L 69.3301,-102.5 L 69.5677,-102.966 L 69.7553,-103.455
 L 69.8907,-103.96 L 69.9726,-104.477 L 70,-105 L 69.9726,-105.523 L 69.8907,-106.04 L 69.7553,-106.545
 L 69.5677,-107.034 L 69.3301,-107.5 L 69.0451,-107.939 L 68.7157,-108.346 L 68.3456,-108.716 L 67.9389,-109.045
 L 67.5,-109.33 L 67.0337,-109.568 L 66.5451,-109.755 L 66.0396,-109.891 L 65.5226,-109.973 L 65,-110
 L 64.4774,-109.973 L 63.9604,-109.891 L 63.4549,-109.755 L 62.9663,-109.568 L 62.5,-109.33 L 62.0611,-109.045
 L 61.6543,-108.716 L 61.2843,-108.346 L 60.9549,-107.939 L 60.6699,-107.5 L 60.4323,-107.034 L 60.2447,-106.545
 L 60.1093,-106.04 L 60.0274,-105.523 L 60,-105 L 60.0274,-104.477 L 60.1093,-103.96 L 60.2447,-103.455
 L 60.4323,-102.966 L 60.6699,-102.5 L 60.9549,-102.061 L 61.2843,-101.654 L 61.6543,-101.284 L 62.0611,-100.955
 L 62.5,-100.67 L 62.9663,-100.432 L 63.4549,-100.245 L 63.9604,-100.109 L 64.4774,-100.027 L 65,-100
 z
M 323.843,-77.5082 L 323.688,-77.5328 L 323.536,-77.5734 L 323.39,-77.6297 L 323.25,-77.701 L 323.118,-77.7865
 L 322.996,-77.8853 L 322.885,-77.9963 L 322.786,-78.1183 L 322.701,-78.25 L 322.63,-78.3899 L 322.573,-78.5365
 L 322.533,-78.6881 L 322.508,-78.8432 L 322.5,-79 L 322.508,-79.1568 L 322.533,-79.3119 L 322.573,-79.4635
 L 322.63,-79.6101 L 322.701,-79.75 L 322.786,-79.8817 L 322.885,-80.0037 L 322.996,-80.1147 L 323.118,-80.2135
 L 323.25,-80.299 L 323.39,-80.3703 L 323.536,-80.4266 L 323.688,-80.4672 L 323.843,-80.4918 L 324,-80.5
 L 324.157,-80.4918 L 324.312,-80.4672 L 324.464,-80.4266 L 324.61,-80.3703 L 324.75,-80.299 L 324.882,-80.2135
 L 325.004,-80.1147 L 325.115,-80.0037 L 325.214,-79.8817 L 325.299,-79.75 L 325.37,-79.6101 L 325.427,-79.4635
 L 325.467,-79.3119 L 325.492,-79.1568 L 325.5,-79 L 325.492,-78.8432 L 325.467,-78.6881 L 325.427,-78.5365
 L 325.37,-78.3899 L 325.299,-78.25 L 325.214,-78.1183 L 325.115,-77.9963 L 325.004,-77.8853 L 324.882,-77.7865
 L 324.75,-77.701 L 324.61,-77.6297 L 324.464,-77.5734 L 324.312,-77.5328 L 324.157,-77.5082 L 324,-77.5
 z
M 5.8432,-77.5082 L 5.68813,-77.5328 L 5.53647,-77.5734 L 5.38989,-77.6297 L 5.25,-77.701 L 5.11832,-77.7865
 L 4.99629,-77.8853 L 4.88527,-77.9963 L 4.78647,-78.1183 L 4.70096,-78.25 L 4.62967,-78.3899 L 4.57341,-78.5365
 L 4.53278,-78.6881 L 4.50821,-78.8432 L 4.5,-79 L 4.50821,-79.1568 L 4.53278,-79.3119 L 4.57341,-79.4635
 L 4.62967,-79.6101 L 4.70096,-79.75 L 4.78647,-79.8817 L 4.88527,-80.0037 L 4.99629,-80.1147 L 5.11832,-80.2135
 L 5.25,-80.299 L 5.38989,-80.3703 L 5.53647,-80.4266 L 5.68813,-80.4672 L 5.8432,-80.4918 L 6,-80.5
 L 6.15678,-80.4918 L 6.31186,-80.4672 L 6.46352,-80.4266 L 6.61009,-80.3703 L 6.75,-80.299 L 6.88167,-80.2135
 L 7.00369,-80.1147 L 7.11472,-80.0037 L 7.21352,-79.8817 L 7.29903,-79.75 L 7.37032,-79.6101 L 7.42657,-79.4635
 L 7.46721,-79.3119 L 7.49178,-79.1568 L 7.5,-79 L 7.49178,-78.8432 L 7.46721,-78.6881 L 7.42657,-78.5365
 L 7.37032,-78.3899 L 7.29903,-78.25 L 7.21352,-78.1183 L 7.11472,-77.9963 L 7.00369,-77.8853 L 6.88167,-77.7865
 L 6.75,-77.701 L 6.61009,-77.6297 L 6.46352,-77.5734 L 6.31186,-77.5328 L 6.15678,-77.5082 L 6,-77.5
 z
M 321.995,-0.000259399 L 322,-0 L 322.836,-0.0438385 L 323.663,-0.17482 L 324.472,-0.391556 L 325.254,-0.69165
 L 326,-1.07181 L 326.702,-1.52788 L 327.353,-2.05486 L 327.945,-2.64696 L 328.472,-3.29773 L 328.928,-4
 L 329.308,-4.74609 L 329.608,-5.52786 L 329.825,-6.3367 L 329.956,-7.16376 L 330,-8 L 330,-8.00499
 L 330,-8.00499 L 330,-61.995 L 330,-61.995 L 330,-62 L 329.956,-62.8362 L 329.825,-63.6633
 L 329.608,-64.4721 L 329.308,-65.2539 L 328.928,-66 L 328.472,-66.7023 L 327.945,-67.353 L 327.353,-67.9451
 L 326.702,-68.4721 L 326,-68.9282 L 325.254,-69.3083 L 324.472,-69.6084 L 323.663,-69.8252 L 322.836,-69.9562
 L 322,-70 L 321.995,-69.9997 L 321.995,-70 L 8.00499,-70 L 8.00499,-69.9997 L 8,-70
 L 7.16376,-69.9562 L 6.3367,-69.8252 L 5.52786,-69.6084 L 4.74609,-69.3083 L 4,-68.9282 L 3.29773,-68.4721
 L 2.64696,-67.9451 L 2.05486,-67.353 L 1.52788,-66.7023 L 1.07181,-66 L 0.69165,-65.2539 L 0.391556,-64.4721
 L 0.17482,-63.6633 L 0.0438385,-62.8362 L 0,-62 L 0.000259399,-61.995 L 0,-61.995 L 0,-8.00499
 L 0.000259399,-8.00499 L 0,-8 L 0.0438385,-7.16376 L 0.17482,-6.3367 L 0.391556,-5.52786 L 0.69165,-4.74609
 L 1.07181,-4 L 1.52788,-3.29773 L 2.05486,-2.64696 L 2.64696,-2.05486 L 3.29773,-1.52788 L 4,-1.07181
 L 4.74609,-0.69165 L 5.52786,-0.391556 L 6.3367,-0.17482 L 7.16376,-0.0438385 L 8,-0 L 8.00499,-0.000259399
 L 8.00499,-0 L 321.995,-0 z
M 40,-30.925 L 40,-39.075 L 290,-39.075 L 290,-30.925 z
M 23.6603,-31.7678 L 23.3243,-31.821 L 22.9957,-31.9091 L 22.6781,-32.031 L 22.375,-32.1854 L 22.0897,-32.3707
 L 21.8253,-32.5848 L 21.5848,-32.8253 L 21.3707,-33.0897 L 21.1854,-33.375 L 21.031,-33.6781 L 20.9091,-33.9957
 L 20.821,-34.3243 L 20.7678,-34.6603 L 20.75,-35 L 20.7678,-35.3397 L 20.821,-35.6757 L 20.9091,-36.0043
 L 21.031,-36.3219 L 21.1854,-36.625 L 21.3707,-36.9103 L 21.5848,-37.1747 L 21.8253,-37.4152 L 22.0897,-37.6293
 L 22.375,-37.8146 L 22.6781,-37.969 L 22.9957,-38.0909 L 23.3243,-38.179 L 23.6603,-38.2322 L 24,-38.25
 L 24.3397,-38.2322 L 24.6757,-38.179 L 25.0043,-38.0909 L 25.3219,-37.969 L 25.625,-37.8146 L 25.9103,-37.6293
 L 26.1747,-37.4152 L 26.4152,-37.1747 L 26.6293,-36.9103 L 26.8146,-36.625 L 26.969,-36.3219 L 27.0909,-36.0043
 L 27.179,-35.6757 L 27.2322,-35.3397 L 27.25,-35 L 27.2322,-34.6603 L 27.179,-34.3243 L 27.0909,-33.9957
 L 26.969,-33.6781 L 26.8146,-33.375 L 26.6293,-33.0897 L 26.4152,-32.8253 L 26.1747,-32.5848 L 25.9103,-32.3707
 L 25.625,-32.1854 L 25.3219,-32.031 L 25.0043,-31.9091 L 24.6757,-31.821 L 24.3397,-31.7678 L 24,-31.75
 z
" stroke="black" fill="lightgray" stroke-width="0.5"/>
</svg>
